<?xml version="1.0" encoding="utf-8" standalone="no"?>
<!DOCTYPE svg PUBLIC "-//W3C//DTD SVG 1.1//EN"
  "http://www.w3.org/Graphics/SVG/1.1/DTD/svg11.dtd">
<!-- Created with matplotlib (https://matplotlib.org/) -->
<svg height="281.644153pt" version="1.1" viewBox="0 0 279.360852 281.644153" width="279.360852pt" xmlns="http://www.w3.org/2000/svg" xmlns:xlink="http://www.w3.org/1999/xlink">
 <metadata>
  <rdf:RDF xmlns:cc="http://creativecommons.org/ns#" xmlns:dc="http://purl.org/dc/elements/1.1/" xmlns:rdf="http://www.w3.org/1999/02/22-rdf-syntax-ns#">
   <cc:Work>
    <dc:type rdf:resource="http://purl.org/dc/dcmitype/StillImage"/>
    <dc:date>2022-05-24T11:50:37.155953</dc:date>
    <dc:format>image/svg+xml</dc:format>
    <dc:creator>
     <cc:Agent>
      <dc:title>Matplotlib v3.3.4, https://matplotlib.org/</dc:title>
     </cc:Agent>
    </dc:creator>
   </cc:Work>
  </rdf:RDF>
 </metadata>
 <defs>
  <style type="text/css">*{stroke-linecap:butt;stroke-linejoin:round;}</style>
 </defs>
 <g id="figure_1">
  <g id="patch_1">
   <path d="M 0 281.644153 
L 279.360852 281.644153 
L 279.360852 0 
L 0 0 
z
" style="fill:#ffffff;"/>
  </g>
  <g id="axes_1">
   <g id="patch_2">
    <path d="M 48.960852 245.7328 
L 272.160852 245.7328 
L 272.160852 28.2928 
L 48.960852 28.2928 
z
" style="fill:#ffffff;"/>
   </g>
   <g id="matplotlib.axis_1">
    <g id="xtick_1">
     <g id="line2d_1">
      <path clip-path="url(#paa236960ec)" d="M 48.960852 245.7328 
L 48.960852 28.2928 
" style="fill:none;stroke:#808080;stroke-dasharray:0.7,3.5;stroke-dashoffset:0;stroke-width:0.7;"/>
     </g>
     <g id="line2d_2">
      <defs>
       <path d="M 0 0 
L 0 3.5 
" id="mefbb530fd2" style="stroke:#000000;stroke-width:0.8;"/>
      </defs>
      <g>
       <use style="stroke:#000000;stroke-width:0.8;" x="48.960852" xlink:href="#mefbb530fd2" y="245.7328"/>
      </g>
     </g>
     <g id="text_1">
      <!-- $\mathdefault{10^{2}}$ -->
      <g transform="translate(41.993898 259.651298)scale(0.1 -0.1)">
       <defs>
        <path d="M 26.59375 63.796875 
C 26.59375 65.890625 26.5 66 25.09375 66 
C 21.203125 61.359375 15.296875 59.890625 9.703125 59.6875 
C 9.40625 59.6875 8.90625 59.6875 8.796875 59.5 
C 8.703125 59.296875 8.703125 59.09375 8.703125 57 
C 11.796875 57 17 57.59375 21 59.984375 
L 21 7.296875 
C 21 3.796875 20.796875 2.59375 12.203125 2.59375 
L 9.203125 2.59375 
L 9.203125 0 
C 14 0.09375 19 0.1875 23.796875 0.1875 
C 28.59375 0.1875 33.59375 0.09375 38.40625 0 
L 38.40625 2.59375 
L 35.40625 2.59375 
C 26.796875 2.59375 26.59375 3.6875 26.59375 7.296875 
z
" id="CMR17-49"/>
        <path d="M 42 31.84375 
C 42 37.96875 41.90625 48.421875 37.703125 56.453125 
C 34 63.484375 28.09375 66 22.90625 66 
C 18.09375 66 12 63.78125 8.203125 56.5625 
C 4.203125 49.015625 3.796875 39.671875 3.796875 31.84375 
C 3.796875 26.109375 3.90625 17.375 7 9.734375 
C 11.296875 -0.609375 19 -2 22.90625 -2 
C 27.5 -2 34.5 -0.109375 38.59375 9.4375 
C 41.59375 16.375 42 24.5 42 31.84375 
z
M 22.90625 -0.40625 
C 16.5 -0.40625 12.703125 5.125 11.296875 12.75 
C 10.203125 18.6875 10.203125 27.328125 10.203125 32.953125 
C 10.203125 40.6875 10.203125 47.109375 11.5 53.234375 
C 13.40625 61.78125 19 64.390625 22.90625 64.390625 
C 27 64.390625 32.296875 61.671875 34.203125 53.4375 
C 35.5 47.71875 35.59375 40.984375 35.59375 32.953125 
C 35.59375 26.421875 35.59375 18.375 34.40625 12.453125 
C 32.296875 1.5 26.40625 -0.40625 22.90625 -0.40625 
z
" id="CMR17-48"/>
        <path d="M 41.703125 15.46875 
L 39.90625 15.46875 
C 38.90625 8.390625 38.09375 7.1875 37.703125 6.59375 
C 37.203125 5.796875 30 5.796875 28.59375 5.796875 
L 9.40625 5.796875 
C 13 9.6875 20 16.765625 28.5 24.9375 
C 34.59375 30.71875 41.703125 37.5 41.703125 47.390625 
C 41.703125 59.1875 32.296875 66 21.796875 66 
C 10.796875 66 4.09375 56.296875 4.09375 47.296875 
C 4.09375 43.390625 7 42.890625 8.203125 42.890625 
C 9.203125 42.890625 12.203125 43.484375 12.203125 46.984375 
C 12.203125 50.09375 9.59375 51 8.203125 51 
C 7.59375 51 7 50.890625 6.59375 50.6875 
C 8.5 59.1875 14.296875 63.390625 20.40625 63.390625 
C 29.09375 63.390625 34.796875 56.5 34.796875 47.390625 
C 34.796875 38.703125 29.703125 31.21875 24 24.734375 
L 4.09375 2.296875 
L 4.09375 0 
L 39.296875 0 
z
" id="CMR17-50"/>
       </defs>
       <use transform="scale(0.996264)" xlink:href="#CMR17-49"/>
       <use transform="translate(45.690477 0)scale(0.996264)" xlink:href="#CMR17-48"/>
       <use transform="translate(91.380954 36.153639)scale(0.697382)" xlink:href="#CMR17-50"/>
      </g>
     </g>
    </g>
    <g id="xtick_2">
     <g id="line2d_3">
      <path clip-path="url(#paa236960ec)" d="M 145.960892 245.7328 
L 145.960892 28.2928 
" style="fill:none;stroke:#808080;stroke-dasharray:0.7,3.5;stroke-dashoffset:0;stroke-width:0.7;"/>
     </g>
     <g id="line2d_4">
      <g>
       <use style="stroke:#000000;stroke-width:0.8;" x="145.960892" xlink:href="#mefbb530fd2" y="245.7328"/>
      </g>
     </g>
     <g id="text_2">
      <!-- $\mathdefault{10^{3}}$ -->
      <g transform="translate(138.993937 259.651298)scale(0.1 -0.1)">
       <defs>
        <path d="M 22.09375 34 
C 31 34 34.90625 26.140625 34.90625 17.09375 
C 34.90625 5.03125 28.5 0.390625 22.703125 0.390625 
C 17.40625 0.390625 8.796875 3.015625 6.09375 10.796875 
C 6.59375 10.59375 7.09375 10.59375 7.59375 10.59375 
C 10 10.59375 11.796875 12.1875 11.796875 14.796875 
C 11.796875 17.6875 9.59375 19 7.59375 19 
C 5.90625 19 3.296875 18.1875 3.296875 14.484375 
C 3.296875 5.234375 12.296875 -2 22.90625 -2 
C 34 -2 42.5 6.75 42.5 16.984375 
C 42.5 26.84375 34.5 34 25 35.09375 
C 32.59375 36.671875 39.90625 43.375 39.90625 52.390625 
C 39.90625 60.25 32 66 23 66 
C 13.90625 66 5.90625 60.34375 5.90625 52.296875 
C 5.90625 48.796875 8.5 48.1875 9.796875 48.1875 
C 11.90625 48.1875 13.703125 49.484375 13.703125 52.09375 
C 13.703125 54.6875 11.90625 56 9.796875 56 
C 9.40625 56 8.90625 56 8.5 55.796875 
C 11.40625 62.484375 19.296875 63.6875 22.796875 63.6875 
C 26.296875 63.6875 32.90625 61.96875 32.90625 52.296875 
C 32.90625 49.484375 32.5 44.546875 29.09375 40.21875 
C 26.09375 36.390625 22.703125 36.1875 19.40625 35.890625 
C 18.90625 35.890625 16.59375 35.6875 16.203125 35.6875 
C 15.5 35.59375 15.09375 35.5 15.09375 34.796875 
C 15.09375 34.09375 15.203125 34 17.203125 34 
z
" id="CMR17-51"/>
       </defs>
       <use transform="scale(0.996264)" xlink:href="#CMR17-49"/>
       <use transform="translate(45.690477 0)scale(0.996264)" xlink:href="#CMR17-48"/>
       <use transform="translate(91.380954 36.153639)scale(0.697382)" xlink:href="#CMR17-51"/>
      </g>
     </g>
    </g>
    <g id="xtick_3">
     <g id="line2d_5">
      <path clip-path="url(#paa236960ec)" d="M 242.960931 245.7328 
L 242.960931 28.2928 
" style="fill:none;stroke:#808080;stroke-dasharray:0.7,3.5;stroke-dashoffset:0;stroke-width:0.7;"/>
     </g>
     <g id="line2d_6">
      <g>
       <use style="stroke:#000000;stroke-width:0.8;" x="242.960931" xlink:href="#mefbb530fd2" y="245.7328"/>
      </g>
     </g>
     <g id="text_3">
      <!-- $\mathdefault{10^{4}}$ -->
      <g transform="translate(235.993977 259.651298)scale(0.1 -0.1)">
       <defs>
        <path d="M 33.59375 64.796875 
C 33.59375 66.890625 33.5 67 31.703125 67 
L 2 19.59375 
L 2 17 
L 27.796875 17 
L 27.796875 7.1875 
C 27.796875 3.59375 27.59375 2.59375 20.59375 2.59375 
L 18.703125 2.59375 
L 18.703125 0 
C 21.90625 0.1875 27.296875 0.1875 30.703125 0.1875 
C 34.09375 0.1875 39.5 0.1875 42.703125 0 
L 42.703125 2.59375 
L 40.796875 2.59375 
C 33.796875 2.59375 33.59375 3.59375 33.59375 7.1875 
L 33.59375 17 
L 43.796875 17 
L 43.796875 19.59375 
L 33.59375 19.59375 
z
M 28.09375 58.171875 
L 28.09375 19.59375 
L 4 19.59375 
z
" id="CMR17-52"/>
       </defs>
       <use transform="scale(0.996264)" xlink:href="#CMR17-49"/>
       <use transform="translate(45.690477 0)scale(0.996264)" xlink:href="#CMR17-48"/>
       <use transform="translate(91.380954 36.153639)scale(0.697382)" xlink:href="#CMR17-52"/>
      </g>
     </g>
    </g>
    <g id="xtick_4">
     <g id="line2d_7">
      <defs>
       <path d="M 0 0 
L 0 2 
" id="mb434be2030" style="stroke:#000000;stroke-width:0.6;"/>
      </defs>
      <g>
       <use style="stroke:#000000;stroke-width:0.6;" x="78.160774" xlink:href="#mb434be2030" y="245.7328"/>
      </g>
     </g>
    </g>
    <g id="xtick_5">
     <g id="line2d_8">
      <g>
       <use style="stroke:#000000;stroke-width:0.6;" x="95.241633" xlink:href="#mb434be2030" y="245.7328"/>
      </g>
     </g>
    </g>
    <g id="xtick_6">
     <g id="line2d_9">
      <g>
       <use style="stroke:#000000;stroke-width:0.6;" x="107.360695" xlink:href="#mb434be2030" y="245.7328"/>
      </g>
     </g>
    </g>
    <g id="xtick_7">
     <g id="line2d_10">
      <g>
       <use style="stroke:#000000;stroke-width:0.6;" x="116.76097" xlink:href="#mb434be2030" y="245.7328"/>
      </g>
     </g>
    </g>
    <g id="xtick_8">
     <g id="line2d_11">
      <g>
       <use style="stroke:#000000;stroke-width:0.6;" x="124.441554" xlink:href="#mb434be2030" y="245.7328"/>
      </g>
     </g>
    </g>
    <g id="xtick_9">
     <g id="line2d_12">
      <g>
       <use style="stroke:#000000;stroke-width:0.6;" x="130.935395" xlink:href="#mb434be2030" y="245.7328"/>
      </g>
     </g>
    </g>
    <g id="xtick_10">
     <g id="line2d_13">
      <g>
       <use style="stroke:#000000;stroke-width:0.6;" x="136.560616" xlink:href="#mb434be2030" y="245.7328"/>
      </g>
     </g>
    </g>
    <g id="xtick_11">
     <g id="line2d_14">
      <g>
       <use style="stroke:#000000;stroke-width:0.6;" x="141.522413" xlink:href="#mb434be2030" y="245.7328"/>
      </g>
     </g>
    </g>
    <g id="xtick_12">
     <g id="line2d_15">
      <g>
       <use style="stroke:#000000;stroke-width:0.6;" x="175.160813" xlink:href="#mb434be2030" y="245.7328"/>
      </g>
     </g>
    </g>
    <g id="xtick_13">
     <g id="line2d_16">
      <g>
       <use style="stroke:#000000;stroke-width:0.6;" x="192.241672" xlink:href="#mb434be2030" y="245.7328"/>
      </g>
     </g>
    </g>
    <g id="xtick_14">
     <g id="line2d_17">
      <g>
       <use style="stroke:#000000;stroke-width:0.6;" x="204.360734" xlink:href="#mb434be2030" y="245.7328"/>
      </g>
     </g>
    </g>
    <g id="xtick_15">
     <g id="line2d_18">
      <g>
       <use style="stroke:#000000;stroke-width:0.6;" x="213.761009" xlink:href="#mb434be2030" y="245.7328"/>
      </g>
     </g>
    </g>
    <g id="xtick_16">
     <g id="line2d_19">
      <g>
       <use style="stroke:#000000;stroke-width:0.6;" x="221.441593" xlink:href="#mb434be2030" y="245.7328"/>
      </g>
     </g>
    </g>
    <g id="xtick_17">
     <g id="line2d_20">
      <g>
       <use style="stroke:#000000;stroke-width:0.6;" x="227.935435" xlink:href="#mb434be2030" y="245.7328"/>
      </g>
     </g>
    </g>
    <g id="xtick_18">
     <g id="line2d_21">
      <g>
       <use style="stroke:#000000;stroke-width:0.6;" x="233.560656" xlink:href="#mb434be2030" y="245.7328"/>
      </g>
     </g>
    </g>
    <g id="xtick_19">
     <g id="line2d_22">
      <g>
       <use style="stroke:#000000;stroke-width:0.6;" x="238.522452" xlink:href="#mb434be2030" y="245.7328"/>
      </g>
     </g>
    </g>
    <g id="xtick_20">
     <g id="line2d_23">
      <g>
       <use style="stroke:#000000;stroke-width:0.6;" x="272.160852" xlink:href="#mb434be2030" y="245.7328"/>
      </g>
     </g>
    </g>
    <g id="text_4">
     <!-- Cycles to Failure -->
     <g transform="translate(123.782048 272.506975)scale(0.1 -0.1)">
      <defs>
       <path d="M 62.09375 67.984375 
C 62.09375 69.796875 62 69.890625 61.40625 69.890625 
C 61 69.890625 60.90625 69.796875 60.203125 68.59375 
L 55.796875 60.140625 
C 50.90625 66.390625 44.90625 70 37.203125 70 
C 20.09375 70 4.59375 54.796875 4.59375 34.046875 
C 4.59375 13.078125 20.09375 -2 37.296875 -2 
C 52.59375 -2 62.09375 11.578125 62.09375 23.15625 
C 62.09375 24.171875 62.09375 24.578125 61.203125 24.578125 
C 60.40625 24.578125 60.40625 24.265625 60.296875 23.359375 
C 59.5 9.25 49.5 0.59375 38.703125 0.59375 
C 28.5 0.59375 12.203125 7.84375 12.203125 34.046875 
C 12.203125 60.34375 28.796875 67.390625 38.5 67.390625 
C 49.796875 67.390625 58 57.515625 59.90625 43.515625 
C 60.09375 42.296875 60.09375 42.109375 61 42.109375 
C 62.09375 42.109375 62.09375 42.296875 62.09375 44.125 
z
" id="CMR17-67"/>
       <path d="M 39 34.109375 
C 41.5 40.296875 46 40.390625 47.40625 40.390625 
L 47.40625 43 
C 45.5 42.890625 43 42.796875 41.09375 42.796875 
C 39 42.796875 35.703125 42.796875 33.703125 43 
L 33.703125 40.390625 
C 37.5 40.09375 37.59375 37.25 37.59375 36.4375 
C 37.59375 35.4375 37.40625 34.921875 36.90625 33.71875 
L 26 6.390625 
L 14.09375 35.9375 
C 13.59375 37.15625 13.59375 37.859375 13.59375 37.96875 
C 13.59375 40.1875 15.90625 40.390625 18.296875 40.390625 
L 18.296875 43 
C 15.90625 42.796875 11.59375 42.796875 9.09375 42.796875 
C 6.40625 42.796875 3.203125 42.796875 1 43 
L 1 40.390625 
C 6.40625 40.390625 7 39.890625 8.296875 36.640625 
L 23.203125 -0.484375 
C 18.703125 -12.421875 16.09375 -19.40625 9.796875 -19.40625 
C 8.703125 -19.40625 6.203125 -19.109375 4.40625 -17.28125 
C 6.703125 -17.078125 7.703125 -15.65625 7.703125 -13.9375 
C 7.703125 -12.21875 6.5 -10.703125 4.5 -10.703125 
C 2.296875 -10.703125 1.203125 -12.21875 1.203125 -14.046875 
C 1.203125 -18.09375 5.296875 -21 9.796875 -21 
C 15.59375 -21 19.203125 -15.359375 21.203125 -10.296875 
z
" id="CMR17-121"/>
       <path d="M 34.90625 35 
C 33 35 30.203125 35 30.203125 31.484375 
C 30.203125 28.6875 32.5 27.890625 33.796875 27.890625 
C 34.5 27.890625 37.40625 28.1875 37.40625 31.6875 
C 37.40625 38.6875 30.59375 44 22.90625 44 
C 12.296875 44 3.296875 34.390625 3.296875 21.546875 
C 3.296875 8.140625 12.703125 -1 22.90625 -1 
C 35.296875 -1 38.40625 10.5625 38.40625 11.671875 
C 38.40625 12.078125 38.296875 12.375 37.59375 12.375 
C 36.90625 12.375 36.796875 12.28125 36.40625 10.96875 
C 33.796875 2.8125 28.09375 0.796875 23.796875 0.796875 
C 17.40625 0.796875 9.703125 6.734375 9.703125 21.640625 
C 9.703125 36.84375 17.09375 42.1875 23 42.1875 
C 26.90625 42.1875 32.703125 40.34375 34.90625 35 
z
" id="CMR17-99"/>
       <path d="M 15.296875 69 
L 3.40625 67.890625 
L 3.40625 65.296875 
C 9.296875 65.296875 10.203125 64.703125 10.203125 59.921875 
L 10.203125 6.859375 
C 10.203125 3.09375 9.796875 2.59375 3.40625 2.59375 
L 3.40625 0 
C 5.796875 0.1875 10.203125 0.1875 12.703125 0.1875 
C 15.296875 0.1875 19.703125 0.1875 22.09375 0 
L 22.09375 2.59375 
C 15.703125 2.59375 15.296875 2.984375 15.296875 6.859375 
z
" id="CMR17-108"/>
       <path d="M 38.09375 23.484375 
C 38.5 23.890625 38.5 24.09375 38.5 25.09375 
C 38.5 35.171875 33.09375 44 21.703125 44 
C 11.09375 44 2.703125 33.984375 2.703125 21.78125 
C 2.703125 8.65625 12.203125 -1 22.796875 -1 
C 34 -1 38.40625 9.671875 38.40625 11.796875 
C 38.40625 12.5 37.796875 12.5 37.59375 12.5 
C 36.90625 12.5 36.796875 12.296875 36.40625 11.078125 
C 34.203125 4.21875 28.703125 0.796875 23.5 0.796875 
C 19.203125 0.796875 14.90625 3.21875 12.203125 7.65625 
C 9.09375 12.796875 9.09375 18.75 9.09375 23.484375 
z
M 9.203125 25 
C 9.90625 39.234375 17.59375 42.390625 21.59375 42.390625 
C 28.40625 42.390625 33 36.0625 33.09375 25 
z
" id="CMR17-101"/>
       <path d="M 30.90625 42 
C 30.90625 43.796875 30.796875 43.890625 30.203125 43.890625 
C 29.796875 43.890625 29.703125 43.796875 28.5 42.296875 
C 28.203125 41.890625 27.296875 40.890625 27 40.5 
C 23.796875 43.890625 19.296875 44 17.59375 44 
C 6.5 44 2.5 38.1875 2.5 32.390625 
C 2.5 23.390625 12.703125 21.296875 15.59375 20.6875 
C 21.90625 19.390625 24.09375 19 26.203125 17.1875 
C 27.5 16 29.703125 13.796875 29.703125 10.1875 
C 29.703125 6 27.296875 0.59375 18.09375 0.59375 
C 9.40625 0.59375 6.296875 7.1875 4.5 16 
C 4.203125 17.390625 4.203125 17.5 3.40625 17.5 
C 2.59375 17.5 2.5 17.390625 2.5 15.390625 
L 2.5 1 
C 2.5 -0.8125 2.59375 -0.90625 3.203125 -0.90625 
C 3.703125 -0.90625 3.796875 -0.8125 4.296875 0 
C 4.90625 0.890625 6.40625 3.296875 7 4.296875 
C 9 1.59375 12.5 -1 18.09375 -1 
C 28 -1 33.296875 4.390625 33.296875 12.1875 
C 33.296875 17.296875 30.59375 20 29.296875 21.1875 
C 26.296875 24.296875 22.796875 25 18.59375 25.796875 
C 13.09375 27 6.09375 28.390625 6.09375 34.5 
C 6.09375 37.09375 7.5 42.59375 17.59375 42.59375 
C 28.296875 42.59375 28.90625 32.59375 29.09375 29.390625 
C 29.203125 28.890625 29.703125 28.796875 30 28.796875 
C 30.90625 28.796875 30.90625 29.09375 30.90625 30.796875 
z
" id="CMR17-115"/>
       <path d="M 15.09375 40.390625 
L 29.09375 40.390625 
L 29.09375 43 
L 15.09375 43 
L 15.09375 62 
L 13.296875 62 
C 13.09375 51.4375 9.59375 42.1875 1.09375 41.984375 
L 1.09375 40.390625 
L 9.796875 40.390625 
L 9.796875 12.15625 
C 9.796875 10.234375 9.796875 -1 21.40625 -1 
C 27.296875 -1 30.703125 4.8125 30.703125 12.25 
L 30.703125 17.984375 
L 28.90625 17.984375 
L 28.90625 12.34375 
C 28.90625 5.421875 26.203125 0.796875 22 0.796875 
C 19.09375 0.796875 15.09375 2.796875 15.09375 11.953125 
z
" id="CMR17-116"/>
       <path d="M 43.09375 21.1875 
C 43.09375 34 33.796875 44 22.90625 44 
C 12 44 2.703125 34 2.703125 21.1875 
C 2.703125 8.59375 12 -1 22.90625 -1 
C 33.796875 -1 43.09375 8.59375 43.09375 21.1875 
z
M 22.90625 0.796875 
C 18.203125 0.796875 14.203125 3.59375 11.90625 7.5 
C 9.40625 12 9.09375 17.59375 9.09375 22 
C 9.09375 26.1875 9.296875 31.390625 11.90625 35.890625 
C 13.90625 39.1875 17.796875 42.390625 22.90625 42.390625 
C 27.40625 42.390625 31.203125 39.890625 33.59375 36.390625 
C 36.703125 31.6875 36.703125 25.09375 36.703125 22 
C 36.703125 18.09375 36.5 12.09375 33.796875 7.296875 
C 31 2.6875 26.703125 0.796875 22.90625 0.796875 
z
" id="CMR17-111"/>
       <path d="M 54.40625 67.796875 
L 5.09375 67.796875 
L 5.09375 65.1875 
C 12 65.1875 13.09375 65.1875 13.09375 60.671875 
L 13.09375 7.03125 
C 13.09375 2.59375 12 2.59375 5.09375 2.59375 
L 5.09375 0 
C 8 0.1875 13.59375 0.1875 16.703125 0.1875 
C 20.796875 0.1875 25.59375 0.1875 29.703125 0 
L 29.703125 2.59375 
L 27.5 2.59375 
C 19.90625 2.59375 19.703125 3.578125 19.703125 7.125 
L 19.703125 32.390625 
L 28.703125 32.390625 
C 38 32.390625 38.90625 29.140625 38.90625 20.84375 
L 40.703125 20.84375 
L 40.703125 46.734375 
L 38.90625 46.734375 
C 38.90625 38.296875 38 35 28.703125 35 
L 19.703125 35 
L 19.703125 61.28125 
C 19.703125 64.6875 19.90625 65.1875 23.90625 65.1875 
L 36.796875 65.1875 
C 51.90625 65.1875 53.59375 58.96875 55 45.625 
L 56.796875 45.625 
z
" id="CMR17-70"/>
       <path d="M 36 25.875 
C 36 32 36 35.546875 31.796875 39.59375 
C 28.09375 42.984375 23.796875 44 20.40625 44 
C 12.5 44 6.796875 37.625 6.796875 30.890625 
C 6.796875 27.1875 9.796875 27 10.40625 27 
C 11.703125 27 14 27.796875 14 30.59375 
C 14 33.09375 12.09375 34.1875 10.40625 34.1875 
C 10 34.1875 9.5 34.09375 9.203125 34 
C 11.296875 40.53125 16.703125 42.390625 20.203125 42.390625 
C 25.203125 42.390625 30.703125 37.828125 30.703125 29.296875 
L 30.703125 25.5 
C 24.796875 25.296875 17.703125 24.5 12.09375 21.453125 
C 5.796875 17.921875 4 12.84375 4 9 
C 4 1.203125 13 -1 18.296875 -1 
C 23.796875 -1 28.90625 2.109375 31.09375 7.890625 
C 31.296875 3.421875 34.09375 -0.609375 38.5 -0.609375 
C 40.59375 -0.609375 45.90625 0.796875 45.90625 8.796875 
L 45.90625 14.46875 
L 44.09375 14.46875 
L 44.09375 8.703125 
C 44.09375 2.515625 41.40625 1.703125 40.09375 1.703125 
C 36 1.703125 36 6.96875 36 11.4375 
z
M 30.703125 13.859375 
C 30.703125 5.046875 24.5 0.59375 19 0.59375 
C 14 0.59375 10.09375 4.34375 10.09375 9 
C 10.09375 12.046875 11.40625 17.40625 17.203125 20.65625 
C 22 23.390625 27.5 23.796875 30.703125 24 
z
" id="CMR17-97"/>
       <path d="M 15.5 61.890625 
C 15.5 64.09375 13.703125 66 11.40625 66 
C 9.203125 66 7.296875 64.1875 7.296875 61.890625 
C 7.296875 59.6875 9.09375 57.796875 11.40625 57.796875 
C 13.59375 57.796875 15.5 59.59375 15.5 61.890625 
z
M 3.796875 42.890625 
L 3.796875 40.296875 
C 9.40625 40.296875 10.203125 39.6875 10.203125 34.859375 
L 10.203125 6.921875 
C 10.203125 3.09375 9.796875 2.59375 3.40625 2.59375 
L 3.40625 0 
C 5.796875 0.1875 10.09375 0.1875 12.59375 0.1875 
C 15 0.1875 19.09375 0.1875 21.40625 0 
L 21.40625 2.59375 
C 15.5 2.59375 15.296875 3.203125 15.296875 6.8125 
L 15.296875 44 
z
" id="CMR17-105"/>
       <path d="M 29.40625 42.890625 
L 29.40625 40.296875 
C 35.296875 40.296875 36.203125 39.6875 36.203125 34.828125 
L 36.203125 16.453125 
C 36.203125 7.96875 31.703125 0.59375 24.296875 0.59375 
C 16.09375 0.59375 15.40625 5.546875 15.40625 10.796875 
L 15.40625 44 
L 3.296875 42.890625 
L 3.296875 40.296875 
C 7.296875 40.296875 10 40.296875 10.09375 36.25 
L 10.09375 16.859375 
C 10.09375 10.09375 10.09375 5.75 12.703125 2.921875 
C 14 1.609375 16.5 -1 23.703125 -1 
C 32.203125 -1 35.5 6.25 36.296875 8.375 
L 36.40625 8.375 
L 36.40625 -1 
L 48.296875 -0.203125 
L 48.296875 2.40625 
C 42.40625 2.40625 41.5 3.015625 41.5 7.859375 
L 41.5 44 
z
" id="CMR17-117"/>
       <path d="M 15 23.703125 
C 15 33.34375 19.09375 42.390625 26.59375 42.390625 
C 27.296875 42.390625 28 42.296875 28.703125 41.984375 
C 28.703125 41.984375 26.5 41.28125 26.5 38.671875 
C 26.5 36.265625 28.40625 35.265625 29.90625 35.265625 
C 31.09375 35.265625 33.296875 35.96875 33.296875 38.78125 
C 33.296875 41.984375 30.09375 44 26.703125 44 
C 19.09375 44 15.796875 36.5625 14.796875 33.046875 
L 14.703125 33.046875 
L 14.703125 44 
L 3.09375 42.890625 
L 3.09375 40.28125 
C 9 40.28125 9.90625 39.6875 9.90625 34.859375 
L 9.90625 6.921875 
C 9.90625 3.09375 9.5 2.59375 3.09375 2.59375 
L 3.09375 0 
C 5.5 0.1875 10.09375 0.1875 12.703125 0.1875 
C 15.59375 0.1875 20.703125 0.1875 23.40625 0 
L 23.40625 2.59375 
C 16.203125 2.59375 15 2.59375 15 7.109375 
z
" id="CMR17-114"/>
      </defs>
      <use transform="scale(0.996264)" xlink:href="#CMR17-67"/>
      <use transform="translate(66.509881 0)scale(0.996264)" xlink:href="#CMR17-121"/>
      <use transform="translate(114.802796 0)scale(0.996264)" xlink:href="#CMR17-99"/>
      <use transform="translate(155.288457 0)scale(0.996264)" xlink:href="#CMR17-108"/>
      <use transform="translate(180.159515 0)scale(0.996264)" xlink:href="#CMR17-101"/>
      <use transform="translate(220.645176 0)scale(0.996264)" xlink:href="#CMR17-115"/>
      <use transform="translate(286.52248 0)scale(0.996264)" xlink:href="#CMR17-116"/>
      <use transform="translate(321.803248 0)scale(0.996264)" xlink:href="#CMR17-111"/>
      <use transform="translate(397.569691 0)scale(0.996264)" xlink:href="#CMR17-70"/>
      <use transform="translate(449.746282 0)scale(0.996264)" xlink:href="#CMR17-97"/>
      <use transform="translate(495.436759 0)scale(0.996264)" xlink:href="#CMR17-105"/>
      <use transform="translate(520.307818 0)scale(0.996264)" xlink:href="#CMR17-108"/>
      <use transform="translate(545.178876 0)scale(0.996264)" xlink:href="#CMR17-117"/>
      <use transform="translate(596.074246 0)scale(0.996264)" xlink:href="#CMR17-114"/>
      <use transform="translate(631.355014 0)scale(0.996264)" xlink:href="#CMR17-101"/>
     </g>
    </g>
   </g>
   <g id="matplotlib.axis_2">
    <g id="ytick_1">
     <g id="line2d_24">
      <path clip-path="url(#paa236960ec)" d="M 48.960852 245.7328 
L 272.160852 245.7328 
" style="fill:none;stroke:#808080;stroke-dasharray:0.7,3.5;stroke-dashoffset:0;stroke-width:0.7;"/>
     </g>
     <g id="line2d_25">
      <defs>
       <path d="M 0 0 
L -3.5 0 
" id="m40ef006e32" style="stroke:#000000;stroke-width:0.8;"/>
      </defs>
      <g>
       <use style="stroke:#000000;stroke-width:0.8;" x="48.960852" xlink:href="#m40ef006e32" y="245.7328"/>
      </g>
     </g>
     <g id="text_5">
      <!-- $\mathdefault{10^{-1}}$ -->
      <g transform="translate(21.800279 249.192049)scale(0.1 -0.1)">
       <defs>
        <path d="M 65.90625 23 
C 67.59375 23 69.40625 23 69.40625 25 
C 69.40625 27 67.59375 27 65.90625 27 
L 11.796875 27 
C 10.09375 27 8.296875 27 8.296875 25 
C 8.296875 23 10.09375 23 11.796875 23 
z
" id="CMSY10-0"/>
       </defs>
       <use transform="scale(0.996264)" xlink:href="#CMR17-49"/>
       <use transform="translate(45.690477 0)scale(0.996264)" xlink:href="#CMR17-48"/>
       <use transform="translate(91.380954 36.153639)scale(0.697382)" xlink:href="#CMSY10-0"/>
       <use transform="translate(145.621947 36.153639)scale(0.697382)" xlink:href="#CMR17-49"/>
      </g>
     </g>
    </g>
    <g id="ytick_2">
     <g id="line2d_26">
      <path clip-path="url(#paa236960ec)" d="M 48.960852 151.235988 
L 272.160852 151.235988 
" style="fill:none;stroke:#808080;stroke-dasharray:0.7,3.5;stroke-dashoffset:0;stroke-width:0.7;"/>
     </g>
     <g id="line2d_27">
      <g>
       <use style="stroke:#000000;stroke-width:0.8;" x="48.960852" xlink:href="#m40ef006e32" y="151.235988"/>
      </g>
     </g>
     <g id="text_6">
      <!-- $\mathdefault{10^{0}}$ -->
      <g transform="translate(28.026944 154.695237)scale(0.1 -0.1)">
       <use transform="scale(0.996264)" xlink:href="#CMR17-49"/>
       <use transform="translate(45.690477 0)scale(0.996264)" xlink:href="#CMR17-48"/>
       <use transform="translate(91.380954 36.153639)scale(0.697382)" xlink:href="#CMR17-48"/>
      </g>
     </g>
    </g>
    <g id="ytick_3">
     <g id="line2d_28">
      <path clip-path="url(#paa236960ec)" d="M 48.960852 56.739175 
L 272.160852 56.739175 
" style="fill:none;stroke:#808080;stroke-dasharray:0.7,3.5;stroke-dashoffset:0;stroke-width:0.7;"/>
     </g>
     <g id="line2d_29">
      <g>
       <use style="stroke:#000000;stroke-width:0.8;" x="48.960852" xlink:href="#m40ef006e32" y="56.739175"/>
      </g>
     </g>
     <g id="text_7">
      <!-- $\mathdefault{10^{1}}$ -->
      <g transform="translate(28.026944 60.198424)scale(0.1 -0.1)">
       <use transform="scale(0.996264)" xlink:href="#CMR17-49"/>
       <use transform="translate(45.690477 0)scale(0.996264)" xlink:href="#CMR17-48"/>
       <use transform="translate(91.380954 36.153639)scale(0.697382)" xlink:href="#CMR17-49"/>
      </g>
     </g>
    </g>
    <g id="ytick_4">
     <g id="line2d_30">
      <defs>
       <path d="M 0 0 
L -2 0 
" id="m6ebf53eaa4" style="stroke:#000000;stroke-width:0.6;"/>
      </defs>
      <g>
       <use style="stroke:#000000;stroke-width:0.6;" x="48.960852" xlink:href="#m6ebf53eaa4" y="217.286425"/>
      </g>
     </g>
    </g>
    <g id="ytick_5">
     <g id="line2d_31">
      <g>
       <use style="stroke:#000000;stroke-width:0.6;" x="48.960852" xlink:href="#m6ebf53eaa4" y="200.646362"/>
      </g>
     </g>
    </g>
    <g id="ytick_6">
     <g id="line2d_32">
      <g>
       <use style="stroke:#000000;stroke-width:0.6;" x="48.960852" xlink:href="#m6ebf53eaa4" y="188.84005"/>
      </g>
     </g>
    </g>
    <g id="ytick_7">
     <g id="line2d_33">
      <g>
       <use style="stroke:#000000;stroke-width:0.6;" x="48.960852" xlink:href="#m6ebf53eaa4" y="179.682363"/>
      </g>
     </g>
    </g>
    <g id="ytick_8">
     <g id="line2d_34">
      <g>
       <use style="stroke:#000000;stroke-width:0.6;" x="48.960852" xlink:href="#m6ebf53eaa4" y="172.199987"/>
      </g>
     </g>
    </g>
    <g id="ytick_9">
     <g id="line2d_35">
      <g>
       <use style="stroke:#000000;stroke-width:0.6;" x="48.960852" xlink:href="#m6ebf53eaa4" y="165.873729"/>
      </g>
     </g>
    </g>
    <g id="ytick_10">
     <g id="line2d_36">
      <g>
       <use style="stroke:#000000;stroke-width:0.6;" x="48.960852" xlink:href="#m6ebf53eaa4" y="160.393675"/>
      </g>
     </g>
    </g>
    <g id="ytick_11">
     <g id="line2d_37">
      <g>
       <use style="stroke:#000000;stroke-width:0.6;" x="48.960852" xlink:href="#m6ebf53eaa4" y="155.559925"/>
      </g>
     </g>
    </g>
    <g id="ytick_12">
     <g id="line2d_38">
      <g>
       <use style="stroke:#000000;stroke-width:0.6;" x="48.960852" xlink:href="#m6ebf53eaa4" y="122.789612"/>
      </g>
     </g>
    </g>
    <g id="ytick_13">
     <g id="line2d_39">
      <g>
       <use style="stroke:#000000;stroke-width:0.6;" x="48.960852" xlink:href="#m6ebf53eaa4" y="106.14955"/>
      </g>
     </g>
    </g>
    <g id="ytick_14">
     <g id="line2d_40">
      <g>
       <use style="stroke:#000000;stroke-width:0.6;" x="48.960852" xlink:href="#m6ebf53eaa4" y="94.343237"/>
      </g>
     </g>
    </g>
    <g id="ytick_15">
     <g id="line2d_41">
      <g>
       <use style="stroke:#000000;stroke-width:0.6;" x="48.960852" xlink:href="#m6ebf53eaa4" y="85.18555"/>
      </g>
     </g>
    </g>
    <g id="ytick_16">
     <g id="line2d_42">
      <g>
       <use style="stroke:#000000;stroke-width:0.6;" x="48.960852" xlink:href="#m6ebf53eaa4" y="77.703175"/>
      </g>
     </g>
    </g>
    <g id="ytick_17">
     <g id="line2d_43">
      <g>
       <use style="stroke:#000000;stroke-width:0.6;" x="48.960852" xlink:href="#m6ebf53eaa4" y="71.376917"/>
      </g>
     </g>
    </g>
    <g id="ytick_18">
     <g id="line2d_44">
      <g>
       <use style="stroke:#000000;stroke-width:0.6;" x="48.960852" xlink:href="#m6ebf53eaa4" y="65.896862"/>
      </g>
     </g>
    </g>
    <g id="ytick_19">
     <g id="line2d_45">
      <g>
       <use style="stroke:#000000;stroke-width:0.6;" x="48.960852" xlink:href="#m6ebf53eaa4" y="61.063112"/>
      </g>
     </g>
    </g>
    <g id="ytick_20">
     <g id="line2d_46">
      <g>
       <use style="stroke:#000000;stroke-width:0.6;" x="48.960852" xlink:href="#m6ebf53eaa4" y="28.2928"/>
      </g>
     </g>
    </g>
    <g id="text_8">
     <!-- Plastic Strain Energy Density (MJ/kg$^3$) -->
     <g transform="translate(15.309619 224.566607)rotate(-90)scale(0.1 -0.1)">
      <defs>
       <path d="M 19.796875 32 
L 35.796875 32 
C 48.703125 32 58.09375 40.359375 58.09375 49.796875 
C 58.09375 59.234375 48.90625 68 35.796875 68 
L 5.203125 68 
L 5.203125 65.390625 
C 12.09375 65.390625 13.203125 65.390625 13.203125 60.921875 
L 13.203125 7.078125 
C 13.203125 2.59375 12.09375 2.59375 5.203125 2.59375 
L 5.203125 0 
C 8.09375 0.1875 13.40625 0.1875 16.5 0.1875 
C 19.59375 0.1875 24.90625 0.1875 27.796875 0 
L 27.796875 2.59375 
C 20.90625 2.59375 19.796875 2.59375 19.796875 7.078125 
z
M 19.59375 34.09375 
L 19.59375 61.515625 
C 19.59375 64.890625 19.796875 65.390625 23.796875 65.390625 
L 33.90625 65.390625 
C 46.796875 65.390625 50.5 58.046875 50.5 49.796875 
C 50.5 40.75 46.09375 34.09375 33.90625 34.09375 
z
" id="CMR17-80"/>
       <path d="M 43.796875 67.984375 
C 43.796875 69.796875 43.703125 69.890625 43.09375 69.890625 
C 42.5 69.890625 42.296875 69.484375 41.90625 68.59375 
L 38.90625 61.953125 
C 35.09375 67.5 29.296875 70 23 70 
C 12.796875 70 4.59375 61.84375 4.59375 51.578125 
C 4.59375 48.453125 5.296875 44.015625 8.703125 39.78125 
C 12.40625 35.15625 15.90625 34.34375 23.90625 32.234375 
C 26.90625 31.421875 31.90625 30.109375 32.90625 29.703125 
C 38.59375 27.296875 41.59375 21.25 41.59375 15.609375 
C 41.59375 8.34375 36.5 0.59375 27.796875 0.59375 
C 17.09375 0.59375 7.09375 6.640625 6.40625 20.75 
C 6.296875 22.359375 6.203125 22.453125 5.5 22.453125 
C 4.703125 22.453125 4.59375 22.359375 4.59375 20.34375 
L 4.59375 0 
C 4.59375 -1.8125 4.703125 -1.90625 5.296875 -1.90625 
C 6 -1.90625 6.203125 -1.40625 7.59375 1.703125 
C 7.703125 2 7.703125 2.203125 9.59375 6.03125 
C 14.59375 -0.609375 23 -2 27.796875 -2 
C 38.703125 -2 46.40625 7.140625 46.40625 17.828125 
C 46.40625 23.0625 44.5 27.09375 43.40625 28.90625 
C 39.203125 35.359375 34.703125 36.5625 29.90625 37.765625 
C 29.203125 38.078125 29 38.078125 23.40625 39.484375 
C 18 40.890625 15.703125 41.59375 13.203125 44.3125 
C 10.40625 47.4375 9.40625 50.671875 9.40625 53.890625 
C 9.40625 60.4375 14.59375 67.59375 23.09375 67.59375 
C 33.703125 67.59375 40.296875 60.03125 41.796875 47.4375 
C 42.09375 45.625 42.203125 45.53125 42.90625 45.53125 
C 43.796875 45.53125 43.796875 45.828125 43.796875 47.546875 
z
" id="CMR17-83"/>
       <path d="M 41.5 30.53125 
C 41.5 35.65625 40.5 44 28.703125 44 
C 20.796875 44 16.703125 37.875 15.203125 33.84375 
L 15.09375 33.84375 
L 15.09375 44 
L 3.296875 42.890625 
L 3.296875 40.28125 
C 9.203125 40.28125 10.09375 39.6875 10.09375 34.859375 
L 10.09375 6.921875 
C 10.09375 3.09375 9.703125 2.59375 3.296875 2.59375 
L 3.296875 0 
C 5.703125 0.1875 10.09375 0.1875 12.703125 0.1875 
C 15.296875 0.1875 19.796875 0.1875 22.203125 0 
L 22.203125 2.59375 
C 15.796875 2.59375 15.40625 3 15.40625 6.921875 
L 15.40625 26.21875 
C 15.40625 35.453125 21 42.390625 28 42.390625 
C 35.40625 42.390625 36.203125 35.765625 36.203125 30.9375 
L 36.203125 6.921875 
C 36.203125 3.09375 35.796875 2.59375 29.40625 2.59375 
L 29.40625 0 
C 31.796875 0.1875 36.203125 0.1875 38.796875 0.1875 
C 41.40625 0.1875 45.90625 0.1875 48.296875 0 
L 48.296875 2.59375 
C 41.90625 2.59375 41.5 3 41.5 6.921875 
z
" id="CMR17-110"/>
       <path d="M 60.703125 25.21875 
L 58.90625 25.21875 
C 56.703125 10.5625 55.40625 2.59375 37.796875 2.59375 
L 23.90625 2.59375 
C 19.90625 2.59375 19.703125 3.09375 19.703125 6.484375 
L 19.703125 34 
L 29.09375 34 
C 38.5 34 39.40625 30.609375 39.40625 22.328125 
L 41.203125 22.328125 
L 41.203125 48.21875 
L 39.40625 48.21875 
C 39.40625 39.96875 38.5 36.59375 29.09375 36.59375 
L 19.703125 36.59375 
L 19.703125 61.3125 
C 19.703125 64.703125 19.90625 65.1875 23.90625 65.1875 
L 37.59375 65.1875 
C 53.09375 65.1875 54.90625 59.03125 56.296875 45.828125 
L 58.09375 45.828125 
L 55.703125 67.796875 
L 5.09375 67.796875 
L 5.09375 65.1875 
C 12 65.1875 13.09375 65.1875 13.09375 60.71875 
L 13.09375 7.078125 
C 13.09375 2.59375 12 2.59375 5.09375 2.59375 
L 5.09375 0 
L 57.09375 0 
z
" id="CMR17-69"/>
       <path d="M 11.09375 18.203125 
C 13 16.6875 16.296875 15 20.296875 15 
C 28.203125 15 35 21.234375 35 29.609375 
C 35 32.234375 34.203125 36.265625 31.203125 39.390625 
C 34 42.390625 38.09375 43.390625 40.40625 43.390625 
C 40.796875 43.390625 41.40625 43.390625 41.90625 43.09375 
C 41.5 42.984375 40.59375 42.59375 40.59375 40.984375 
C 40.59375 39.6875 41.5 38.796875 42.796875 38.796875 
C 44.296875 38.796875 45.09375 39.796875 45.09375 41.09375 
C 45.09375 42.984375 43.59375 45 40.40625 45 
C 36.40625 45 32.90625 43.09375 30.09375 40.484375 
C 27.09375 43.1875 23.5 44.1875 20.296875 44.1875 
C 12.40625 44.1875 5.59375 37.984375 5.59375 29.609375 
C 5.59375 23.859375 8.90625 20.21875 9.90625 19.21875 
C 6.90625 15.6875 6.90625 11.59375 6.90625 11.09375 
C 6.90625 8.5 7.90625 4.6875 11.296875 2.59375 
C 6.09375 1.28125 2 -2.875 2 -8.078125 
C 2 -15.5625 11.5 -21 22.90625 -21 
C 33.90625 -21 43.796875 -15.765625 43.796875 -7.96875 
C 43.796875 6 29 6 21.296875 6 
C 19 6 14.90625 6 14.40625 6.09375 
C 11.296875 6.59375 9.203125 9.390625 9.203125 12.890625 
C 9.203125 13.796875 9.203125 16 11.09375 18.203125 
z
M 20.296875 16.6875 
C 11.5 16.6875 11.5 27.59375 11.5 29.609375 
C 11.5 31.625 11.5 42.484375 20.296875 42.484375 
C 29.09375 42.484375 29.09375 31.625 29.09375 29.609375 
C 29.09375 27.59375 29.09375 16.6875 20.296875 16.6875 
z
M 22.90625 -19.3125 
C 12.90625 -19.3125 6 -13.796875 6 -8.078125 
C 6 -4.859375 7.703125 -1.84375 9.90625 -0.171875 
C 12.40625 1.59375 13.40625 1.59375 20.203125 1.59375 
C 28.40625 1.59375 39.796875 1.59375 39.796875 -8.078125 
C 39.796875 -13.796875 32.90625 -19.3125 22.90625 -19.3125 
z
" id="CMR17-103"/>
       <path d="M 5.203125 68 
L 5.203125 65.390625 
C 12.09375 65.390625 13.203125 65.390625 13.203125 60.90625 
L 13.203125 7.078125 
C 13.203125 2.59375 12.09375 2.59375 5.203125 2.59375 
L 5.203125 0 
L 37 0 
C 53.09375 0 66 14.734375 66 33.4375 
C 66 52.25 53.296875 68 37 68 
z
M 23.796875 2.59375 
C 19.796875 2.59375 19.59375 3.09375 19.59375 6.46875 
L 19.59375 61.5 
C 19.59375 64.890625 19.796875 65.390625 23.796875 65.390625 
L 35 65.390625 
C 43.296875 65.390625 58.59375 60.515625 58.59375 33.4375 
C 58.59375 19.40625 54.5 13.734375 52.59375 11.046875 
C 50.203125 7.96875 44.5 2.59375 35 2.59375 
z
" id="CMR17-68"/>
       <path d="M 30.59375 -24.40625 
C 30.59375 -24.3125 30.59375 -24.109375 30.296875 -23.8125 
C 25.703125 -19.109375 13.40625 -6.296875 13.40625 24.9375 
C 13.40625 56.171875 25.5 68.875 30.40625 73.890625 
C 30.40625 73.984375 30.59375 74.1875 30.59375 74.484375 
C 30.59375 74.796875 30.296875 75 29.90625 75 
C 28.796875 75 20.296875 67.578125 15.40625 56.5625 
C 10.40625 45.453125 9 34.65625 9 25.046875 
C 9 17.828125 9.703125 5.625 15.703125 -7.296875 
C 20.5 -17.703125 28.703125 -25 29.90625 -25 
C 30.40625 -25 30.59375 -24.8125 30.59375 -24.40625 
z
" id="CMR17-40"/>
       <path d="M 20.90625 66.390625 
C 20.296875 67.890625 20.203125 68 18.09375 68 
L 5.296875 68 
L 5.296875 65.390625 
C 12.203125 65.390625 13.296875 65.390625 13.296875 60.90625 
L 13.296875 9.75 
C 13.296875 7.265625 13.296875 2.59375 5.296875 2.59375 
L 5.296875 0 
C 7.59375 0.1875 11.796875 0.1875 14.296875 0.1875 
C 16.796875 0.1875 21 0.1875 23.296875 0 
L 23.296875 2.59375 
C 15.296875 2.59375 15.296875 7.265625 15.296875 9.75 
L 15.296875 64.984375 
L 15.40625 64.984375 
L 38.90625 1.59375 
C 39.296875 0.59375 39.5 0 40.296875 0 
C 41.09375 0 41.296875 0.59375 41.703125 1.59375 
L 65.40625 65.484375 
L 65.5 65.484375 
L 65.5 7.078125 
C 65.5 2.59375 64.40625 2.59375 57.5 2.59375 
L 57.5 0 
C 60.203125 0.1875 65.59375 0.1875 68.5 0.1875 
C 71.40625 0.1875 76.90625 0.1875 79.59375 0 
L 79.59375 2.59375 
C 72.703125 2.59375 71.59375 2.59375 71.59375 7.078125 
L 71.59375 60.90625 
C 71.59375 65.390625 72.703125 65.390625 79.59375 65.390625 
L 79.59375 68 
L 66.90625 68 
C 64.796875 68 64.703125 67.890625 64.09375 66.390625 
L 42.5 8.0625 
z
" id="CMR17-77"/>
       <path d="M 29.5 14.09375 
C 29.5 4.9375 24.5 -0.40625 19.40625 -0.40625 
C 16.796875 -0.40625 10.796875 0.765625 8.203125 6.6875 
C 8.59375 6.59375 9.09375 6.484375 9.5 6.484375 
C 11.40625 6.484375 13.796875 7.796875 13.796875 10.796875 
C 13.796875 13.1875 12.09375 15 9.59375 15 
C 7.203125 15 5.296875 13.484375 5.296875 10.59375 
C 5.296875 3.96875 11.40625 -2 19.59375 -2 
C 27.40625 -2 34.59375 3.484375 35.796875 11.796875 
C 35.90625 12.484375 35.90625 12.6875 35.90625 16.09375 
L 35.90625 58.34375 
C 35.90625 60.0625 35.90625 62.875 36.09375 63.484375 
C 36.5 65.390625 38.796875 65.390625 41.90625 65.390625 
L 41.90625 68 
C 41.703125 68 34.59375 67.796875 32.09375 67.796875 
C 27.90625 67.796875 23.296875 67.796875 19.09375 68 
L 19.09375 65.390625 
L 21.5 65.390625 
C 29.296875 65.390625 29.5 64.28125 29.5 60.671875 
z
" id="CMR17-74"/>
       <path d="M 40.703125 71.484375 
C 41.203125 72.78125 41.203125 72.984375 41.203125 73.1875 
C 41.203125 74.390625 40.296875 75 39.5 75 
C 38.296875 75 37.90625 74.1875 37.5 72.984375 
L 5.09375 -21.5 
C 4.59375 -22.8125 4.59375 -23 4.59375 -23.203125 
C 4.59375 -24.40625 5.5 -25 6.296875 -25 
C 7.5 -25 7.90625 -24.203125 8.296875 -23 
z
" id="CMR17-47"/>
       <path d="M 26.09375 26.234375 
C 26 26.4375 25.5 27.03125 25.5 27.328125 
C 25.5 27.53125 32.59375 33.984375 33.5 34.78125 
C 39.203125 39.5625 42.796875 40.046875 45.40625 40.15625 
L 45.40625 42.734375 
C 44.796875 42.734375 44.59375 42.734375 44.5 42.640625 
L 39.59375 42.53125 
C 36.796875 42.53125 32.5 42.53125 29.796875 42.734375 
L 29.796875 40.15625 
C 31.203125 40.046875 32.203125 39.265625 32.203125 37.859375 
C 32.203125 35.875 30.203125 33.984375 30.09375 33.984375 
L 15 20.28125 
L 15 69 
L 3.09375 67.890625 
L 3.09375 65.296875 
C 9 65.296875 9.90625 64.703125 9.90625 59.921875 
L 9.90625 6.859375 
C 9.90625 3.09375 9.5 2.59375 3.09375 2.59375 
L 3.09375 0 
C 5.5 0.1875 9.90625 0.1875 12.40625 0.1875 
C 14.90625 0.1875 19.296875 0.1875 21.703125 0 
L 21.703125 2.59375 
C 15.296875 2.59375 14.90625 2.984375 14.90625 6.859375 
L 14.90625 17.796875 
L 21.796875 24.0625 
L 31.90625 9.15625 
C 33.09375 7.359375 34.09375 5.96875 34.09375 4.671875 
C 34.09375 2.890625 32.296875 2.59375 31.09375 2.59375 
L 31.09375 0 
C 33.5 0.1875 37.796875 0.1875 40.296875 0.1875 
C 42.09375 0.1875 45.796875 0.09375 47.5 0 
L 47.5 2.59375 
C 42.796875 2.59375 41.703125 3.484375 38.703125 7.859375 
z
" id="CMR17-107"/>
       <path d="M 26.296875 24.9375 
C 26.296875 32.140625 25.59375 44.359375 19.59375 57.265625 
C 14.796875 67.6875 6.59375 75 5.40625 75 
C 5.09375 75 4.703125 74.890625 4.703125 74.390625 
C 4.703125 74.1875 4.796875 74.09375 4.90625 73.890625 
C 9.703125 68.875 21.90625 56.171875 21.90625 25.046875 
C 21.90625 -6.1875 9.796875 -18.90625 4.90625 -23.90625 
C 4.796875 -24.109375 4.703125 -24.203125 4.703125 -24.40625 
C 4.703125 -24.90625 5.09375 -25 5.40625 -25 
C 6.5 -25 15 -17.609375 19.90625 -6.59375 
C 24.90625 4.515625 26.296875 15.328125 26.296875 24.9375 
z
" id="CMR17-41"/>
      </defs>
      <use transform="scale(0.996264)" xlink:href="#CMR17-80"/>
      <use transform="translate(62.586301 0)scale(0.996264)" xlink:href="#CMR17-108"/>
      <use transform="translate(87.457359 0)scale(0.996264)" xlink:href="#CMR17-97"/>
      <use transform="translate(133.147836 0)scale(0.996264)" xlink:href="#CMR17-115"/>
      <use transform="translate(168.949174 0)scale(0.996264)" xlink:href="#CMR17-116"/>
      <use transform="translate(204.229942 0)scale(0.996264)" xlink:href="#CMR17-105"/>
      <use transform="translate(229.101 0)scale(0.996264)" xlink:href="#CMR17-99"/>
      <use transform="translate(299.662627 0)scale(0.996264)" xlink:href="#CMR17-83"/>
      <use transform="translate(350.557997 0)scale(0.996264)" xlink:href="#CMR17-116"/>
      <use transform="translate(385.838764 0)scale(0.996264)" xlink:href="#CMR17-114"/>
      <use transform="translate(421.119532 0)scale(0.996264)" xlink:href="#CMR17-97"/>
      <use transform="translate(466.810009 0)scale(0.996264)" xlink:href="#CMR17-105"/>
      <use transform="translate(491.681068 0)scale(0.996264)" xlink:href="#CMR17-110"/>
      <use transform="translate(572.652404 0)scale(0.996264)" xlink:href="#CMR17-69"/>
      <use transform="translate(635.238704 0)scale(0.996264)" xlink:href="#CMR17-110"/>
      <use transform="translate(686.134074 0)scale(0.996264)" xlink:href="#CMR17-101"/>
      <use transform="translate(726.619735 0)scale(0.996264)" xlink:href="#CMR17-114"/>
      <use transform="translate(761.900503 0)scale(0.996264)" xlink:href="#CMR17-103"/>
      <use transform="translate(807.59098 0)scale(0.996264)" xlink:href="#CMR17-121"/>
      <use transform="translate(885.959862 0)scale(0.996264)" xlink:href="#CMR17-68"/>
      <use transform="translate(956.353418 0)scale(0.996264)" xlink:href="#CMR17-101"/>
      <use transform="translate(996.839078 0)scale(0.996264)" xlink:href="#CMR17-110"/>
      <use transform="translate(1047.734448 0)scale(0.996264)" xlink:href="#CMR17-115"/>
      <use transform="translate(1083.535786 0)scale(0.996264)" xlink:href="#CMR17-105"/>
      <use transform="translate(1108.406844 0)scale(0.996264)" xlink:href="#CMR17-116"/>
      <use transform="translate(1141.085158 0)scale(0.996264)" xlink:href="#CMR17-121"/>
      <use transform="translate(1219.45404 0)scale(0.996264)" xlink:href="#CMR17-40"/>
      <use transform="translate(1254.734808 0)scale(0.996264)" xlink:href="#CMR17-77"/>
      <use transform="translate(1339.421749 0)scale(0.996264)" xlink:href="#CMR17-74"/>
      <use transform="translate(1386.393538 0)scale(0.996264)" xlink:href="#CMR17-47"/>
      <use transform="translate(1432.084015 0)scale(0.996264)" xlink:href="#CMR17-107"/>
      <use transform="translate(1480.376931 0)scale(0.996264)" xlink:href="#CMR17-103"/>
      <use transform="translate(1526.067408 36.153639)scale(0.697382)" xlink:href="#CMR17-51"/>
      <use transform="translate(1558.548722 0)scale(0.996264)" xlink:href="#CMR17-41"/>
     </g>
    </g>
   </g>
   <g id="line2d_47">
    <path clip-path="url(#paa236960ec)" d="M 61.290023 34.045745 
L 101.646952 76.792899 
L 121.874569 98.218539 
L 135.48304 112.633 
L 145.752322 123.510503 
L 154.002442 132.249253 
L 160.898432 139.553672 
L 166.822765 145.828887 
L 172.015745 151.329431 
L 176.63826 156.225725 
L 180.803333 160.637483 
L 184.593401 164.652026 
L 188.070451 168.335012 
L 191.282265 171.737052 
L 194.266456 174.897988 
L 197.053163 177.849743 
L 199.666909 180.618295 
L 202.127916 183.22506 
L 204.453054 185.687909 
L 206.656542 188.021904 
L 208.750481 190.23986 
L 210.745249 192.352772 
L 212.649815 194.370141 
L 214.471987 196.300235 
L 216.218599 198.150293 
L 217.895668 199.92669 
L 219.508521 201.635068 
L 221.061894 203.280443 
L 222.56002 204.867298 
L 224.006693 206.399654 
L 225.405331 207.881129 
L 226.759021 209.314994 
L 228.070563 210.704215 
L 229.342502 212.051487 
L 230.57716 213.35927 
L 231.77666 214.629813 
L 232.942949 215.865179 
L 234.077818 217.067262 
L 235.182913 218.237809 
L 236.259759 219.378433 
L 237.309763 220.490625 
L 238.33423 221.575769 
L 239.334374 222.635149 
L 240.311323 223.66996 
L 241.266129 224.681316 
L 242.199772 225.670256 
L 243.113171 226.637753 
L 244.007185 227.584717 
L 244.88262 228.512001 
L 245.740232 229.420407 
" style="fill:none;stroke:#0000ff;stroke-linecap:square;stroke-width:0.8;"/>
   </g>
   <g id="line2d_48">
    <defs>
     <path d="M -3 3 
L 3 -3 
M -3 -3 
L 3 3 
" id="mfe0d622433" style="stroke:#0000ff;"/>
    </defs>
    <g clip-path="url(#paa236960ec)">
     <use style="fill-opacity:0;stroke:#0000ff;" x="61.290023" xlink:href="#mfe0d622433" y="42.438304"/>
     <use style="fill-opacity:0;stroke:#0000ff;" x="62.222753" xlink:href="#mfe0d622433" y="41.182139"/>
     <use style="fill-opacity:0;stroke:#0000ff;" x="96.893867" xlink:href="#mfe0d622433" y="65.703548"/>
     <use style="fill-opacity:0;stroke:#0000ff;" x="98.613558" xlink:href="#mfe0d622433" y="68.091887"/>
     <use style="fill-opacity:0;stroke:#0000ff;" x="137.239671" xlink:href="#mfe0d622433" y="111.122565"/>
     <use style="fill-opacity:0;stroke:#0000ff;" x="137.652174" xlink:href="#mfe0d622433" y="112.929512"/>
     <use style="fill-opacity:0;stroke:#0000ff;" x="163.349552" xlink:href="#mfe0d622433" y="144.861437"/>
     <use style="fill-opacity:0;stroke:#0000ff;" x="174.502738" xlink:href="#mfe0d622433" y="147.780902"/>
     <use style="fill-opacity:0;stroke:#0000ff;" x="175.43375" xlink:href="#mfe0d622433" y="150.614034"/>
     <use style="fill-opacity:0;stroke:#0000ff;" x="201.280924" xlink:href="#mfe0d622433" y="189.782903"/>
     <use style="fill-opacity:0;stroke:#0000ff;" x="213.845178" xlink:href="#mfe0d622433" y="188.447916"/>
     <use style="fill-opacity:0;stroke:#0000ff;" x="238.858124" xlink:href="#mfe0d622433" y="227.082487"/>
     <use style="fill-opacity:0;stroke:#0000ff;" x="245.740232" xlink:href="#mfe0d622433" y="234.38312"/>
    </g>
   </g>
   <g id="line2d_49">
    <path clip-path="url(#paa236960ec)" d="M 99.890219 104.874254 
L 118.81142 120.773995 
L 131.821357 131.706421 
L 141.747251 140.047284 
L 149.77464 146.792807 
L 156.514462 152.456371 
L 162.323231 157.337558 
L 167.427237 161.626523 
L 171.979137 165.451546 
L 176.086803 168.903273 
L 179.829284 172.048131 
L 183.266245 174.936256 
L 186.443825 177.606419 
L 189.398442 180.089224 
L 192.159344 182.409248 
L 194.750378 184.586528 
L 197.19124 186.637617 
L 199.498387 188.576344 
L 201.685713 190.414384 
L 203.765051 192.16168 
L 205.746564 193.826772 
L 207.639044 195.417049 
L 209.45015 196.938945 
L 211.186592 198.398101 
L 212.854283 199.799484 
L 214.45846 201.147496 
L 216.003784 202.446053 
L 217.494422 203.698656 
L 218.934112 204.908447 
L 220.326221 206.078255 
L 221.673795 207.210639 
L 222.979594 208.30792 
L 224.246132 209.372209 
L 225.475699 210.405431 
L 226.670395 211.40935 
L 227.832141 212.385581 
L 228.962707 213.335611 
L 230.063723 214.26081 
L 231.136695 215.162442 
L 232.183015 216.041679 
L 233.203976 216.899606 
L 234.200777 217.737232 
L 235.174537 218.555495 
L 236.126295 219.355271 
L 237.057025 220.137375 
L 237.967635 220.902573 
L 238.858977 221.65158 
L 239.73185 222.385067 
L 240.587003 223.103664 
L 241.425142 223.807963 
" style="fill:none;stroke:#ff0000;stroke-linecap:square;stroke-width:0.8;"/>
   </g>
   <g id="line2d_50">
    <defs>
     <path d="M -3 3 
L 3 -3 
M -3 -3 
L 3 3 
" id="m66a5db94a1" style="stroke:#ff0000;"/>
    </defs>
    <g clip-path="url(#paa236960ec)">
     <use style="fill-opacity:0;stroke:#ff0000;" x="193.445964" xlink:href="#m66a5db94a1" y="180.836781"/>
     <use style="fill-opacity:0;stroke:#ff0000;" x="165.760538" xlink:href="#m66a5db94a1" y="180.844852"/>
     <use style="fill-opacity:0;stroke:#ff0000;" x="220.504462" xlink:href="#m66a5db94a1" y="214.799416"/>
     <use style="fill-opacity:0;stroke:#ff0000;" x="191.533646" xlink:href="#m66a5db94a1" y="184.328866"/>
     <use style="fill-opacity:0;stroke:#ff0000;" x="104.30354" xlink:href="#m66a5db94a1" y="95.948754"/>
     <use style="fill-opacity:0;stroke:#ff0000;" x="108.80991" xlink:href="#m66a5db94a1" y="95.440393"/>
     <use style="fill-opacity:0;stroke:#ff0000;" x="228.85806" xlink:href="#m66a5db94a1" y="219.173586"/>
     <use style="fill-opacity:0;stroke:#ff0000;" x="241.425142" xlink:href="#m66a5db94a1" y="213.683722"/>
     <use style="fill-opacity:0;stroke:#ff0000;" x="101.129326" xlink:href="#m66a5db94a1" y="116.997003"/>
     <use style="fill-opacity:0;stroke:#ff0000;" x="99.890219" xlink:href="#m66a5db94a1" y="114.563858"/>
     <use style="fill-opacity:0;stroke:#ff0000;" x="112.880468" xlink:href="#m66a5db94a1" y="127.896944"/>
     <use style="fill-opacity:0;stroke:#ff0000;" x="102.805036" xlink:href="#m66a5db94a1" y="114.388562"/>
     <use style="fill-opacity:0;stroke:#ff0000;" x="143.174648" xlink:href="#m66a5db94a1" y="133.861924"/>
     <use style="fill-opacity:0;stroke:#ff0000;" x="145.02376" xlink:href="#m66a5db94a1" y="131.479164"/>
     <use style="fill-opacity:0;stroke:#ff0000;" x="141.802325" xlink:href="#m66a5db94a1" y="131.901998"/>
     <use style="fill-opacity:0;stroke:#ff0000;" x="148.375801" xlink:href="#m66a5db94a1" y="131.082732"/>
     <use style="fill-opacity:0;stroke:#ff0000;" x="132.818461" xlink:href="#m66a5db94a1" y="139.771061"/>
     <use style="fill-opacity:0;stroke:#ff0000;" x="189.169415" xlink:href="#m66a5db94a1" y="181.282305"/>
     <use style="fill-opacity:0;stroke:#ff0000;" x="160.969534" xlink:href="#m66a5db94a1" y="159.834526"/>
     <use style="fill-opacity:0;stroke:#ff0000;" x="164.963166" xlink:href="#m66a5db94a1" y="153.578244"/>
    </g>
   </g>
   <g id="line2d_51">
    <path clip-path="url(#paa236960ec)" d="M 66.599687 39.669886 
L 104.085735 79.376124 
L 123.602178 100.04847 
L 136.888185 114.121368 
L 146.973419 124.803921 
L 155.104532 133.416617 
L 161.917255 140.632838 
L 167.780064 146.842883 
L 172.925728 152.293311 
L 177.510726 157.149864 
L 181.645319 161.529338 
L 185.410137 165.517135 
L 188.865925 169.177599 
L 192.05959 172.560416 
L 195.028108 175.704751 
L 197.801144 178.642026 
L 200.402861 181.397835 
L 202.853201 183.993301 
L 205.168814 186.446062 
L 207.363748 188.770995 
L 209.44996 190.980767 
L 211.437714 193.08625 
L 213.335886 195.096846 
L 215.152204 197.020739 
L 216.893437 198.8651 
L 218.565546 200.636243 
L 220.173811 202.339761 
L 221.722929 203.980628 
L 223.217095 205.56329 
L 224.660076 207.091735 
L 226.055263 208.569554 
L 227.40572 209.999995 
L 228.714227 211.386001 
L 229.983311 212.730249 
L 231.215278 214.035183 
L 232.412239 215.303036 
L 233.576128 216.535858 
L 234.708723 217.735534 
L 235.811663 218.903798 
L 236.886462 220.042254 
L 237.934519 221.152385 
L 238.957134 222.235566 
L 239.955512 223.293075 
L 240.930776 224.326101 
L 241.883972 225.335752 
L 242.816076 226.323062 
L 243.728002 227.288999 
L 244.620605 228.234468 
L 245.494686 229.160318 
L 246.350999 230.067349 
" style="fill:none;stroke:#0000ff;stroke-linecap:square;stroke-width:0.8;"/>
   </g>
   <g id="line2d_52">
    <defs>
     <path d="M 0 3 
C 0.795609 3 1.55874 2.683901 2.12132 2.12132 
C 2.683901 1.55874 3 0.795609 3 0 
C 3 -0.795609 2.683901 -1.55874 2.12132 -2.12132 
C 1.55874 -2.683901 0.795609 -3 0 -3 
C -0.795609 -3 -1.55874 -2.683901 -2.12132 -2.12132 
C -2.683901 -1.55874 -3 -0.795609 -3 0 
C -3 0.795609 -2.683901 1.55874 -2.12132 2.12132 
C -1.55874 2.683901 -0.795609 3 0 3 
z
" id="me37b11e581" style="stroke:#0000ff;"/>
    </defs>
    <g clip-path="url(#paa236960ec)">
     <use style="fill-opacity:0;stroke:#0000ff;" x="66.599687" xlink:href="#me37b11e581" y="49.598539"/>
     <use style="fill-opacity:0;stroke:#0000ff;" x="80.416263" xlink:href="#me37b11e581" y="65.355915"/>
     <use style="fill-opacity:0;stroke:#0000ff;" x="139.114525" xlink:href="#me37b11e581" y="112.745272"/>
     <use style="fill-opacity:0;stroke:#0000ff;" x="171.739711" xlink:href="#me37b11e581" y="140.420289"/>
     <use style="fill-opacity:0;stroke:#0000ff;" x="216.271282" xlink:href="#me37b11e581" y="189.201412"/>
     <use style="fill-opacity:0;stroke:#0000ff;" x="246.350999" xlink:href="#me37b11e581" y="217.375714"/>
    </g>
   </g>
   <g id="line2d_53">
    <path clip-path="url(#paa236960ec)" d="M 101.975512 106.626554 
L 119.184808 121.087758 
L 131.367943 131.325411 
L 140.806614 139.256854 
L 148.512777 145.732447 
L 155.024879 151.204654 
L 160.66379 155.943107 
L 165.636232 160.121517 
L 170.083224 163.858385 
L 174.105281 167.238174 
L 177.776576 170.323213 
L 181.153411 173.160813 
L 184.279535 175.787737 
L 187.189615 178.233117 
L 189.911593 180.520431 
L 192.468316 182.66888 
L 194.878706 184.694364 
L 197.158612 186.610199 
L 199.321437 188.427651 
L 201.378623 190.156332 
L 203.340009 191.804511 
L 205.214122 193.379354 
L 207.0084 194.88711 
L 208.729367 196.333261 
L 210.382779 197.722646 
L 211.97374 199.059552 
L 213.506797 200.3478 
L 214.986016 201.590809 
L 216.415053 202.791647 
L 217.797199 203.953083 
L 219.135434 205.07762 
L 220.432464 206.167532 
L 221.690749 207.224886 
L 222.912538 208.251572 
L 224.099888 209.249318 
L 225.254687 210.219712 
L 226.378674 211.164213 
L 227.473448 212.084167 
L 228.540492 212.980817 
L 229.581174 213.855317 
L 230.596765 214.708732 
L 231.588448 215.542057 
L 232.557323 216.356215 
L 233.504414 217.152068 
L 234.430679 217.930422 
L 235.337016 218.692029 
L 236.224264 219.437595 
L 237.093209 220.167781 
L 237.944592 220.88321 
L 238.779109 221.584466 
" style="fill:none;stroke:#ff0000;stroke-linecap:square;stroke-width:0.8;"/>
   </g>
   <g id="line2d_54">
    <defs>
     <path d="M 0 3 
C 0.795609 3 1.55874 2.683901 2.12132 2.12132 
C 2.683901 1.55874 3 0.795609 3 0 
C 3 -0.795609 2.683901 -1.55874 2.12132 -2.12132 
C 1.55874 -2.683901 0.795609 -3 0 -3 
C -0.795609 -3 -1.55874 -2.683901 -2.12132 -2.12132 
C -2.683901 -1.55874 -3 -0.795609 -3 0 
C -3 0.795609 -2.683901 1.55874 -2.12132 2.12132 
C -1.55874 2.683901 -0.795609 3 0 3 
z
" id="mc78afc48d2" style="stroke:#ff0000;"/>
    </defs>
    <g clip-path="url(#paa236960ec)">
     <use style="fill-opacity:0;stroke:#ff0000;" x="103.271817" xlink:href="#mc78afc48d2" y="93.885737"/>
     <use style="fill-opacity:0;stroke:#ff0000;" x="238.779109" xlink:href="#mc78afc48d2" y="217.314273"/>
     <use style="fill-opacity:0;stroke:#ff0000;" x="101.975512" xlink:href="#mc78afc48d2" y="124.094908"/>
     <use style="fill-opacity:0;stroke:#ff0000;" x="131.47357" xlink:href="#mc78afc48d2" y="143.270963"/>
     <use style="fill-opacity:0;stroke:#ff0000;" x="170.628616" xlink:href="#mc78afc48d2" y="155.768981"/>
    </g>
   </g>
   <g id="line2d_55">
    <path clip-path="url(#paa236960ec)" style="fill:none;stroke:#0000ff;stroke-linecap:square;stroke-width:1.7;"/>
   </g>
   <g id="line2d_56">
    <path clip-path="url(#paa236960ec)" style="fill:none;stroke:#ff0000;stroke-linecap:square;stroke-width:1.7;"/>
   </g>
   <g id="patch_3">
    <path d="M 48.960852 245.7328 
L 48.960852 28.2928 
" style="fill:none;stroke:#000000;stroke-linecap:square;stroke-linejoin:miter;stroke-width:0.8;"/>
   </g>
   <g id="patch_4">
    <path d="M 272.160852 245.7328 
L 272.160852 28.2928 
" style="fill:none;stroke:#000000;stroke-linecap:square;stroke-linejoin:miter;stroke-width:0.8;"/>
   </g>
   <g id="patch_5">
    <path d="M 48.960852 245.7328 
L 272.160852 245.7328 
" style="fill:none;stroke:#000000;stroke-linecap:square;stroke-linejoin:miter;stroke-width:0.8;"/>
   </g>
   <g id="patch_6">
    <path d="M 48.960852 28.2928 
L 272.160852 28.2928 
" style="fill:none;stroke:#000000;stroke-linecap:square;stroke-linejoin:miter;stroke-width:0.8;"/>
   </g>
   <g id="legend_1">
    <g id="patch_7">
     <path d="M 91.677303 24.735616 
L 213.824852 24.735616 
Q 215.824852 24.735616 215.824852 22.735616 
L 215.824852 9.2 
Q 215.824852 7.2 213.824852 7.2 
L 91.677303 7.2 
Q 89.677303 7.2 89.677303 9.2 
L 89.677303 22.735616 
Q 89.677303 24.735616 91.677303 24.735616 
z
" style="fill:#ffffff;"/>
    </g>
    <g id="line2d_57"/>
    <g id="line2d_58">
     <defs>
      <path d="M -2.5 2.5 
L 2.5 -2.5 
M -2.5 -2.5 
L 2.5 2.5 
" id="m0f020e1367" style="stroke:#000000;stroke-width:1.5;"/>
     </defs>
     <g>
      <use style="fill-opacity:0;stroke:#000000;stroke-width:1.5;" x="103.677303" xlink:href="#m0f020e1367" y="15.298437"/>
     </g>
    </g>
    <g id="text_9">
     <!-- Train -->
     <g transform="translate(121.677303 18.798437)scale(0.1 -0.1)">
      <defs>
       <path d="M 62.203125 67.6875 
L 4.5 67.6875 
L 2.796875 45.6875 
L 4.59375 45.6875 
C 5.90625 62.203125 7.296875 65.09375 22.703125 65.09375 
C 24.5 65.09375 27.40625 65.09375 28.203125 64.984375 
C 30.09375 64.6875 30.09375 63.5 30.09375 61.203125 
L 30.09375 7.265625 
C 30.09375 3.6875 29.796875 2.59375 21.5 2.59375 
L 18.703125 2.59375 
L 18.703125 0 
C 23.5 0.09375 28.5 0.1875 33.40625 0.1875 
C 38.296875 0.1875 43.296875 0.09375 48.09375 0 
L 48.09375 2.59375 
L 45.296875 2.59375 
C 37 2.59375 36.703125 3.6875 36.703125 7.265625 
L 36.703125 61.203125 
C 36.703125 63.390625 36.703125 64.59375 38.5 64.984375 
C 39.296875 65.09375 42.203125 65.09375 44 65.09375 
C 59.296875 65.09375 60.796875 62.203125 62.09375 45.6875 
L 63.90625 45.6875 
z
" id="CMR17-84"/>
      </defs>
      <use transform="scale(0.996264)" xlink:href="#CMR17-84"/>
      <use transform="translate(58.702625 0)scale(0.996264)" xlink:href="#CMR17-114"/>
      <use transform="translate(93.983393 0)scale(0.996264)" xlink:href="#CMR17-97"/>
      <use transform="translate(139.67387 0)scale(0.996264)" xlink:href="#CMR17-105"/>
      <use transform="translate(164.544929 0)scale(0.996264)" xlink:href="#CMR17-110"/>
     </g>
    </g>
    <g id="line2d_59"/>
    <g id="line2d_60">
     <defs>
      <path d="M 0 2.5 
C 0.663008 2.5 1.29895 2.236584 1.767767 1.767767 
C 2.236584 1.29895 2.5 0.663008 2.5 0 
C 2.5 -0.663008 2.236584 -1.29895 1.767767 -1.767767 
C 1.29895 -2.236584 0.663008 -2.5 0 -2.5 
C -0.663008 -2.5 -1.29895 -2.236584 -1.767767 -1.767767 
C -2.236584 -1.29895 -2.5 -0.663008 -2.5 0 
C -2.5 0.663008 -2.236584 1.29895 -1.767767 1.767767 
C -1.29895 2.236584 -0.663008 2.5 0 2.5 
z
" id="m6356fc2f7e" style="stroke:#000000;stroke-width:1.5;"/>
     </defs>
     <g>
      <use style="fill-opacity:0;stroke:#000000;stroke-width:1.5;" x="175.227919" xlink:href="#m6356fc2f7e" y="15.298437"/>
     </g>
    </g>
    <g id="text_10">
     <!-- Test -->
     <g transform="translate(193.227919 18.798437)scale(0.1 -0.1)">
      <use transform="scale(0.996264)" xlink:href="#CMR17-84"/>
      <use transform="translate(58.702625 0)scale(0.996264)" xlink:href="#CMR17-101"/>
      <use transform="translate(99.188286 0)scale(0.996264)" xlink:href="#CMR17-115"/>
      <use transform="translate(134.989623 0)scale(0.996264)" xlink:href="#CMR17-116"/>
     </g>
    </g>
   </g>
   <g id="legend_2">
    <g id="patch_8">
     <path d="M 131.427271 66.528904 
L 265.160852 66.528904 
Q 267.160852 66.528904 267.160852 64.528904 
L 267.160852 35.2928 
Q 267.160852 33.2928 265.160852 33.2928 
L 131.427271 33.2928 
Q 129.427271 33.2928 129.427271 35.2928 
L 129.427271 64.528904 
Q 129.427271 66.528904 131.427271 66.528904 
z
" style="fill:#ffffff;"/>
    </g>
    <g id="line2d_61">
     <path d="M 133.427271 41.902419 
L 153.427271 41.902419 
" style="fill:none;stroke:#0000ff;stroke-linecap:square;stroke-width:1.7;"/>
    </g>
    <g id="line2d_62"/>
    <g id="text_11">
     <!-- \SI{850}{\celsius}\quad $y = 3572x^{-1.09}$ -->
     <g transform="translate(161.427271 45.402419)scale(0.1 -0.1)">
      <defs>
       <path d="M 27.203125 35.765625 
C 33.5 38.96875 39.90625 43.796875 39.90625 51.53125 
C 39.90625 60.6875 31.09375 66 23 66 
C 13.90625 66 5.90625 59.375 5.90625 50.234375 
C 5.90625 47.71875 6.5 43.390625 10.40625 39.578125 
C 11.40625 38.578125 15.59375 35.5625 18.296875 33.65625 
C 13.796875 31.34375 3.296875 25.8125 3.296875 14.765625 
C 3.296875 4.40625 13.09375 -2 22.796875 -2 
C 33.5 -2 42.5 5.71875 42.5 15.96875 
C 42.5 25.109375 36.40625 29.328125 32.40625 32.046875 
z
M 14.09375 44.609375 
C 13.296875 45.109375 9.296875 48.21875 9.296875 52.9375 
C 9.296875 59.078125 15.59375 63.6875 22.796875 63.6875 
C 30.703125 63.6875 36.5 58.0625 36.5 51.53125 
C 36.5 42.1875 26.09375 36.859375 25.59375 36.859375 
C 25.5 36.859375 25.40625 36.859375 24.59375 37.46875 
z
M 32.5 24 
C 34 22.90625 38.796875 19.578125 38.796875 13.453125 
C 38.796875 6.015625 31.40625 0.390625 23 0.390625 
C 13.90625 0.390625 7 6.921875 7 14.859375 
C 7 22.796875 13.09375 29.4375 20 32.546875 
z
" id="CMR17-56"/>
       <path d="M 11.40625 58.59375 
C 12.40625 58.1875 16.5 56.890625 20.703125 56.890625 
C 30 56.890625 35.09375 61.890625 38 64.6875 
C 38 65.484375 38 66 37.40625 66 
C 37.296875 66 37.09375 66 36.296875 65.59375 
C 32.796875 64.09375 28.703125 63 23.703125 63 
C 20.703125 63 16.203125 63.359375 11.296875 65.484375 
C 10.203125 66 10 66 9.90625 66 
C 9.40625 66 9.296875 65.890625 9.296875 63.90625 
L 9.296875 34.859375 
C 9.296875 33.015625 9.296875 32.5 10.296875 32.5 
C 10.796875 32.5 11 32.703125 11.5 33.421875 
C 14.703125 38.046875 19.09375 40 24.09375 40 
C 27.59375 40 35.09375 37.734375 35.09375 20.203125 
C 35.09375 16.984375 35.09375 11.1875 32.09375 6.59375 
C 29.59375 2.484375 25.703125 0.390625 21.40625 0.390625 
C 14.796875 0.390625 8.09375 4.984375 6.296875 12.6875 
C 6.703125 12.59375 7.5 12.390625 7.90625 12.390625 
C 9.203125 12.390625 11.703125 13.09375 11.703125 16.1875 
C 11.703125 18.890625 9.796875 20 7.90625 20 
C 5.59375 20 4.09375 18.59375 4.09375 15.796875 
C 4.09375 7.09375 11 -2 21.59375 -2 
C 31.90625 -2 41.703125 6.890625 41.703125 19.796875 
C 41.703125 32.09375 33.90625 41.59375 24.203125 41.59375 
C 19.09375 41.59375 14.796875 39.6875 11.40625 36 
z
" id="CMR17-53"/>
       <path d="M 13.90625 68 
C 8.5 67.296875 5.09375 62.765625 5.09375 57.984375 
C 5.09375 52.921875 9 48 15 48 
L 15.90625 48 
C 21.203125 48.6875 24.796875 53.21875 24.796875 57.984375 
C 24.796875 63.171875 20.5 68 14.796875 68 
z
M 8.203125 57.390625 
L 8.203125 57.984375 
C 8.203125 61.546875 11.296875 64.6875 14.796875 64.796875 
C 18.40625 64.796875 20.90625 61.953125 21.59375 58.59375 
L 21.59375 57.984375 
C 21.59375 54.4375 18.5 51.296875 15 51.1875 
C 11.40625 51.1875 8.90625 54.03125 8.203125 57.390625 
z
" id="Computer_Modern_Roman-176"/>
       <path d="M 26.296875 -10.515625 
C 23.59375 -14.390625 19.703125 -18 14.796875 -18 
C 13.59375 -18 8.796875 -17.796875 7.296875 -12.90625 
C 7.59375 -13.015625 8.09375 -13.015625 8.296875 -13.015625 
C 11.296875 -13.015625 13.296875 -10.40625 13.296875 -8.109375 
C 13.296875 -5.8125 11.40625 -5 9.90625 -5 
C 8.296875 -5 4.796875 -6.203125 4.796875 -11.109375 
C 4.796875 -16.40625 9.09375 -20 14.796875 -20 
C 24.796875 -20 34.90625 -10.515625 37.703125 -0.109375 
L 47.5 38.796875 
C 47.59375 39.296875 47.796875 39.890625 47.796875 40.484375 
C 47.796875 41.984375 46.59375 43 45.09375 43 
C 44.203125 43 42.09375 42.59375 41.296875 39.59375 
L 33.90625 10.265625 
C 33.40625 8.46875 33.40625 8.28125 32.59375 7.171875 
C 30.59375 4.390625 27.296875 1 22.5 1 
C 16.90625 1 16.40625 6.484375 16.40625 9.171875 
C 16.40625 14.859375 19.09375 22.546875 21.796875 29.71875 
C 22.90625 32.609375 23.5 34.015625 23.5 36.015625 
C 23.5 40.203125 20.5 44 15.59375 44 
C 6.40625 44 2.703125 29.53125 2.703125 28.71875 
C 2.703125 28.328125 3.09375 27.828125 3.796875 27.828125 
C 4.703125 27.828125 4.796875 28.234375 5.203125 29.625 
C 7.59375 38 11.40625 41.984375 15.296875 41.984375 
C 16.203125 41.984375 17.90625 41.984375 17.90625 38.703125 
C 17.90625 36.109375 16.796875 33.21875 15.296875 29.421875 
C 10.40625 16.359375 10.40625 13.0625 10.40625 10.671875 
C 10.40625 1.1875 17.203125 -1 22.203125 -1 
C 25.09375 -1 28.703125 -0.109375 32.203125 3.59375 
L 32.296875 3.484375 
C 30.796875 -2.203125 29.796875 -5.609375 26.296875 -10.515625 
z
" id="CMMI12-121"/>
       <path d="M 64.296875 32 
C 65.796875 32 67.296875 32 67.296875 33.6875 
C 67.296875 35.5 65.59375 35.5 63.90625 35.5 
L 8 35.5 
C 6.296875 35.5 4.59375 35.5 4.59375 33.6875 
C 4.59375 32 6.09375 32 7.59375 32 
z
M 63.90625 14.484375 
C 65.59375 14.484375 67.296875 14.484375 67.296875 16.296875 
C 67.296875 18 65.796875 18 64.296875 18 
L 7.59375 18 
C 6.09375 18 4.59375 18 4.59375 16.296875 
C 4.59375 14.484375 6.296875 14.484375 8 14.484375 
z
" id="CMR17-61"/>
       <path d="M 45.09375 61.796875 
L 45.09375 64 
L 21.59375 64 
C 9.90625 64 9.703125 65.09375 9.296875 67 
L 7.5 67 
L 4.59375 48.5 
L 6.40625 48.5 
C 6.703125 50.40625 7.40625 55.5 8.59375 57.390625 
C 9.203125 58.1875 16.59375 58.1875 18.296875 58.1875 
L 40.296875 58.1875 
L 29.203125 41.71875 
C 21.796875 30.640625 16.703125 15.671875 16.703125 2.59375 
C 16.703125 1.390625 16.703125 -2 20.296875 -2 
C 23.90625 -2 23.90625 1.390625 23.90625 2.6875 
L 23.90625 7.28125 
C 23.90625 23.65625 26.703125 34.4375 31.296875 41.3125 
z
" id="CMR17-55"/>
       <path d="M 47.40625 41 
C 44.203125 40.390625 43 37.984375 43 36.09375 
C 43 33.6875 44.90625 32.890625 46.296875 32.890625 
C 49.296875 32.890625 51.40625 35.484375 51.40625 38.1875 
C 51.40625 42.09375 46.59375 44 42.40625 44 
C 36.296875 44 32.90625 38.296875 32 36.390625 
C 29.703125 43.59375 23.5 44 21.703125 44 
C 11.5 44 6.09375 31.140625 6.09375 28.890625 
C 6.09375 28.484375 6.5 27.96875 7.203125 27.96875 
C 8 27.96875 8.203125 28.578125 8.40625 28.984375 
C 11.796875 40.1875 18.5 41.984375 21.40625 41.984375 
C 25.90625 41.984375 26.796875 38.09375 26.796875 35.6875 
C 26.796875 33.484375 26.203125 31.140625 25 26.21875 
L 21.59375 12.15625 
C 20.09375 6.09375 17.203125 1 11.90625 1 
C 11.40625 1 8.90625 1 6.796875 1.96875 
C 10.40625 2.59375 11.203125 5.59375 11.203125 6.796875 
C 11.203125 8.796875 9.703125 10 7.796875 10 
C 5.40625 10 2.796875 7.890625 2.796875 4.6875 
C 2.796875 0.890625 7.5 -1 11.796875 -1 
C 16.59375 -1 20 2.390625 22.09375 6.484375 
C 23.703125 1 28.703125 -1 32.40625 -1 
C 42.59375 -1 48 11.734375 48 14 
C 48 14.515625 47.59375 14.921875 47 14.921875 
C 46.09375 14.921875 46 14.40625 45.703125 13.59375 
C 43 4.6875 37.203125 1 32.703125 1 
C 29.203125 1 27.296875 3.1875 27.296875 7.296875 
C 27.296875 9.484375 27.703125 11.125 29.296875 17.90625 
L 32.796875 31.859375 
C 34.296875 37.890625 37.703125 41.984375 42.296875 41.984375 
C 42.5 41.984375 45.296875 41.984375 47.40625 41 
z
" id="CMMI12-120"/>
       <path d="M 18.40625 4.796875 
C 18.40625 7.6875 16 9.6875 13.59375 9.6875 
C 10.703125 9.6875 8.703125 7.296875 8.703125 4.890625 
C 8.703125 2 11.09375 0 13.5 0 
C 16.40625 0 18.40625 2.390625 18.40625 4.796875 
z
" id="CMMI12-58"/>
       <path d="M 35.203125 29.234375 
C 35.203125 7 26.09375 0.390625 18.59375 0.390625 
C 16.296875 0.390625 10.703125 0.671875 8.40625 4.390625 
C 11 4 12.90625 5.390625 12.90625 7.890625 
C 12.90625 10.59375 10.703125 11.5 9.296875 11.5 
C 8.40625 11.5 5.703125 11.09375 5.703125 7.6875 
C 5.703125 1.0625 11.59375 -2 18.796875 -2 
C 30.296875 -2 42 10.390625 42 32.65625 
C 42 60.265625 30.796875 66 23.203125 66 
C 13.296875 66 3.796875 57.25 3.796875 43.75 
C 3.796875 31.25 11.90625 22 22.09375 22 
C 30.5 22 34.203125 29.84375 35.203125 33.15625 
z
M 22.296875 23.59375 
C 19.59375 23.59375 15.796875 24.09375 12.703125 30.140625 
C 10.59375 34.078125 10.59375 38.703125 10.59375 43.640625 
C 10.59375 49.59375 10.59375 53.71875 13.40625 58.15625 
C 14.796875 60.265625 17.40625 63.6875 23.203125 63.6875 
C 35 63.6875 35 45.453125 35 41.421875 
C 35 34.265625 31.796875 23.59375 22.296875 23.59375 
z
" id="CMR17-57"/>
      </defs>
      <use transform="scale(0.996264)" xlink:href="#CMR17-56"/>
      <use transform="translate(45.690477 0)scale(0.996264)" xlink:href="#CMR17-53"/>
      <use transform="translate(91.380954 0)scale(0.996264)" xlink:href="#CMR17-48"/>
      <use transform="translate(152.302067 0)scale(0.356961)" xlink:href="#Computer_Modern_Roman-176"/>
      <use transform="translate(162.942965 0)scale(0.996264)" xlink:href="#CMR17-67"/>
      <use transform="translate(320.833891 0)scale(0.996264)" xlink:href="#CMMI12-121"/>
      <use transform="translate(399.64668 0)scale(0.996264)" xlink:href="#CMR17-61"/>
      <use transform="translate(499.035477 0)scale(0.996264)" xlink:href="#CMR17-51"/>
      <use transform="translate(544.725954 0)scale(0.996264)" xlink:href="#CMR17-53"/>
      <use transform="translate(590.416432 0)scale(0.996264)" xlink:href="#CMR17-55"/>
      <use transform="translate(636.106909 0)scale(0.996264)" xlink:href="#CMR17-50"/>
      <use transform="translate(681.797386 0)scale(0.996264)" xlink:href="#CMMI12-120"/>
      <use transform="translate(737.231445 36.153639)scale(0.697382)" xlink:href="#CMSY10-0"/>
      <use transform="translate(791.472439 36.153639)scale(0.697382)" xlink:href="#CMR17-49"/>
      <use transform="translate(823.455621 36.153639)scale(0.697382)" xlink:href="#CMMI12-58"/>
      <use transform="translate(842.423553 36.153639)scale(0.697382)" xlink:href="#CMR17-48"/>
      <use transform="translate(874.406735 36.153639)scale(0.697382)" xlink:href="#CMR17-57"/>
     </g>
    </g>
    <g id="line2d_63">
     <path d="M 133.427271 57.091725 
L 153.427271 57.091725 
" style="fill:none;stroke:#ff0000;stroke-linecap:square;stroke-width:1.7;"/>
    </g>
    <g id="line2d_64"/>
    <g id="text_12">
     <!-- \SI{950}{\celsius}\quad $y = 466x^{-0.86}$ -->
     <g transform="translate(161.427271 60.591725)scale(0.1 -0.1)">
      <defs>
       <path d="M 10.59375 34.34375 
C 10.59375 58 21.796875 63.6875 28.296875 63.6875 
C 30.40625 63.6875 35.5 63.265625 37.5 59.09375 
C 35.90625 59.09375 32.90625 59.09375 32.90625 55.59375 
C 32.90625 52.890625 35.09375 52 36.5 52 
C 37.40625 52 40.09375 52.390625 40.09375 55.796875 
C 40.09375 62.296875 35.09375 66 28.203125 66 
C 16.296875 66 3.796875 53.296875 3.796875 31.421875 
C 3.796875 4.015625 15.09375 -2 23.09375 -2 
C 32.796875 -2 42 6.734375 42 20.234375 
C 42 32.828125 33.90625 42 23.703125 42 
C 17.59375 42 13.09375 37.96875 10.59375 30.921875 
z
M 23.09375 0.390625 
C 10.796875 0.390625 10.796875 18.9375 10.796875 22.65625 
C 10.796875 29.90625 14.203125 40.390625 23.5 40.390625 
C 25.203125 40.390625 30.09375 40.390625 33.40625 33.4375 
C 35.203125 29.515625 35.203125 25.375 35.203125 20.34375 
C 35.203125 14.90625 35.203125 10.875 33.09375 6.84375 
C 30.90625 2.703125 27.703125 0.390625 23.09375 0.390625 
z
" id="CMR17-54"/>
      </defs>
      <use transform="scale(0.996264)" xlink:href="#CMR17-57"/>
      <use transform="translate(45.690477 0)scale(0.996264)" xlink:href="#CMR17-53"/>
      <use transform="translate(91.380954 0)scale(0.996264)" xlink:href="#CMR17-48"/>
      <use transform="translate(152.302067 0)scale(0.356961)" xlink:href="#Computer_Modern_Roman-176"/>
      <use transform="translate(162.942965 0)scale(0.996264)" xlink:href="#CMR17-67"/>
      <use transform="translate(320.833891 0)scale(0.996264)" xlink:href="#CMMI12-121"/>
      <use transform="translate(399.64668 0)scale(0.996264)" xlink:href="#CMR17-61"/>
      <use transform="translate(499.035477 0)scale(0.996264)" xlink:href="#CMR17-52"/>
      <use transform="translate(544.725954 0)scale(0.996264)" xlink:href="#CMR17-54"/>
      <use transform="translate(590.416432 0)scale(0.996264)" xlink:href="#CMR17-54"/>
      <use transform="translate(636.106909 0)scale(0.996264)" xlink:href="#CMMI12-120"/>
      <use transform="translate(691.540968 36.153639)scale(0.697382)" xlink:href="#CMSY10-0"/>
      <use transform="translate(745.781961 36.153639)scale(0.697382)" xlink:href="#CMR17-48"/>
      <use transform="translate(777.765143 36.153639)scale(0.697382)" xlink:href="#CMMI12-58"/>
      <use transform="translate(796.733076 36.153639)scale(0.697382)" xlink:href="#CMR17-56"/>
      <use transform="translate(828.716258 36.153639)scale(0.697382)" xlink:href="#CMR17-54"/>
     </g>
    </g>
   </g>
  </g>
 </g>
 <defs>
  <clipPath id="paa236960ec">
   <rect height="217.44" width="223.2" x="48.960852" y="28.2928"/>
  </clipPath>
 </defs>
</svg>
