<?xml version="1.0" encoding="utf-8" standalone="no"?>
<!DOCTYPE svg PUBLIC "-//W3C//DTD SVG 1.1//EN"
  "http://www.w3.org/Graphics/SVG/1.1/DTD/svg11.dtd">
<!-- Created with matplotlib (https://matplotlib.org/) -->
<svg height="288pt" version="1.1" viewBox="0 0 576 288" width="576pt" xmlns="http://www.w3.org/2000/svg" xmlns:xlink="http://www.w3.org/1999/xlink">
 <metadata>
  <rdf:RDF xmlns:cc="http://creativecommons.org/ns#" xmlns:dc="http://purl.org/dc/elements/1.1/" xmlns:rdf="http://www.w3.org/1999/02/22-rdf-syntax-ns#">
   <cc:Work>
    <dc:type rdf:resource="http://purl.org/dc/dcmitype/StillImage"/>
    <dc:date>2022-02-17T20:40:44.353833</dc:date>
    <dc:format>image/svg+xml</dc:format>
    <dc:creator>
     <cc:Agent>
      <dc:title>Matplotlib v3.3.4, https://matplotlib.org/</dc:title>
     </cc:Agent>
    </dc:creator>
   </cc:Work>
  </rdf:RDF>
 </metadata>
 <defs>
  <style type="text/css">*{stroke-linecap:butt;stroke-linejoin:round;}</style>
 </defs>
 <g id="figure_1">
  <g id="patch_1">
   <path d="M 0 288 
L 576 288 
L 576 0 
L 0 0 
z
" style="fill:#ffffff;"/>
  </g>
  <g id="axes_1">
   <g id="patch_2">
    <path d="M 72 252 
L 288 252 
L 288 34.56 
L 72 34.56 
z
" style="fill:#ffffff;"/>
   </g>
   <g id="PolyCollection_1">
    <path clip-path="url(#p79a48db329)" d="M 72 252 
L 72 252 
L 433.210084 252 
L 433.210084 -111.618151 
L 433.210084 -111.618151 
L 72 252 
z
" style="fill-opacity:0.1;stroke:#000000;stroke-opacity:0.1;"/>
   </g>
   <g id="matplotlib.axis_1">
    <g id="xtick_1">
     <g id="line2d_1">
      <path clip-path="url(#p79a48db329)" d="M 106.487395 252 
L 106.487395 34.56 
" style="fill:none;stroke:#808080;stroke-dasharray:0.7,3.5;stroke-dashoffset:0;stroke-width:0.7;"/>
     </g>
     <g id="line2d_2">
      <defs>
       <path d="M 0 0 
L 0 -3.5 
" id="m3f6a09fc4e" style="stroke:#000000;stroke-width:0.8;"/>
      </defs>
      <g>
       <use style="stroke:#000000;stroke-width:0.8;" x="106.487395" xlink:href="#m3f6a09fc4e" y="252"/>
      </g>
     </g>
     <g id="text_1">
      <!-- $\mathdefault{2000}$ -->
      <g transform="translate(96.524724 262.418498)scale(0.1 -0.1)">
       <defs>
        <path d="M 41.703125 15.46875 
L 39.90625 15.46875 
C 38.90625 8.390625 38.09375 7.1875 37.703125 6.59375 
C 37.203125 5.796875 30 5.796875 28.59375 5.796875 
L 9.40625 5.796875 
C 13 9.6875 20 16.765625 28.5 24.9375 
C 34.59375 30.71875 41.703125 37.5 41.703125 47.390625 
C 41.703125 59.1875 32.296875 66 21.796875 66 
C 10.796875 66 4.09375 56.296875 4.09375 47.296875 
C 4.09375 43.390625 7 42.890625 8.203125 42.890625 
C 9.203125 42.890625 12.203125 43.484375 12.203125 46.984375 
C 12.203125 50.09375 9.59375 51 8.203125 51 
C 7.59375 51 7 50.890625 6.59375 50.6875 
C 8.5 59.1875 14.296875 63.390625 20.40625 63.390625 
C 29.09375 63.390625 34.796875 56.5 34.796875 47.390625 
C 34.796875 38.703125 29.703125 31.21875 24 24.734375 
L 4.09375 2.296875 
L 4.09375 0 
L 39.296875 0 
z
" id="CMR17-50"/>
        <path d="M 42 31.84375 
C 42 37.96875 41.90625 48.421875 37.703125 56.453125 
C 34 63.484375 28.09375 66 22.90625 66 
C 18.09375 66 12 63.78125 8.203125 56.5625 
C 4.203125 49.015625 3.796875 39.671875 3.796875 31.84375 
C 3.796875 26.109375 3.90625 17.375 7 9.734375 
C 11.296875 -0.609375 19 -2 22.90625 -2 
C 27.5 -2 34.5 -0.109375 38.59375 9.4375 
C 41.59375 16.375 42 24.5 42 31.84375 
z
M 22.90625 -0.40625 
C 16.5 -0.40625 12.703125 5.125 11.296875 12.75 
C 10.203125 18.6875 10.203125 27.328125 10.203125 32.953125 
C 10.203125 40.6875 10.203125 47.109375 11.5 53.234375 
C 13.40625 61.78125 19 64.390625 22.90625 64.390625 
C 27 64.390625 32.296875 61.671875 34.203125 53.4375 
C 35.5 47.71875 35.59375 40.984375 35.59375 32.953125 
C 35.59375 26.421875 35.59375 18.375 34.40625 12.453125 
C 32.296875 1.5 26.40625 -0.40625 22.90625 -0.40625 
z
" id="CMR17-48"/>
       </defs>
       <use transform="scale(0.996264)" xlink:href="#CMR17-50"/>
       <use transform="translate(45.690477 0)scale(0.996264)" xlink:href="#CMR17-48"/>
       <use transform="translate(91.380954 0)scale(0.996264)" xlink:href="#CMR17-48"/>
       <use transform="translate(137.071431 0)scale(0.996264)" xlink:href="#CMR17-48"/>
      </g>
     </g>
    </g>
    <g id="xtick_2">
     <g id="line2d_3">
      <path clip-path="url(#p79a48db329)" d="M 142.789916 252 
L 142.789916 34.56 
" style="fill:none;stroke:#808080;stroke-dasharray:0.7,3.5;stroke-dashoffset:0;stroke-width:0.7;"/>
     </g>
     <g id="line2d_4">
      <g>
       <use style="stroke:#000000;stroke-width:0.8;" x="142.789916" xlink:href="#m3f6a09fc4e" y="252"/>
      </g>
     </g>
     <g id="text_2">
      <!-- $\mathdefault{4000}$ -->
      <g transform="translate(132.827245 262.418498)scale(0.1 -0.1)">
       <defs>
        <path d="M 33.59375 64.796875 
C 33.59375 66.890625 33.5 67 31.703125 67 
L 2 19.59375 
L 2 17 
L 27.796875 17 
L 27.796875 7.1875 
C 27.796875 3.59375 27.59375 2.59375 20.59375 2.59375 
L 18.703125 2.59375 
L 18.703125 0 
C 21.90625 0.1875 27.296875 0.1875 30.703125 0.1875 
C 34.09375 0.1875 39.5 0.1875 42.703125 0 
L 42.703125 2.59375 
L 40.796875 2.59375 
C 33.796875 2.59375 33.59375 3.59375 33.59375 7.1875 
L 33.59375 17 
L 43.796875 17 
L 43.796875 19.59375 
L 33.59375 19.59375 
z
M 28.09375 58.171875 
L 28.09375 19.59375 
L 4 19.59375 
z
" id="CMR17-52"/>
       </defs>
       <use transform="scale(0.996264)" xlink:href="#CMR17-52"/>
       <use transform="translate(45.690477 0)scale(0.996264)" xlink:href="#CMR17-48"/>
       <use transform="translate(91.380954 0)scale(0.996264)" xlink:href="#CMR17-48"/>
       <use transform="translate(137.071431 0)scale(0.996264)" xlink:href="#CMR17-48"/>
      </g>
     </g>
    </g>
    <g id="xtick_3">
     <g id="line2d_5">
      <path clip-path="url(#p79a48db329)" d="M 179.092437 252 
L 179.092437 34.56 
" style="fill:none;stroke:#808080;stroke-dasharray:0.7,3.5;stroke-dashoffset:0;stroke-width:0.7;"/>
     </g>
     <g id="line2d_6">
      <g>
       <use style="stroke:#000000;stroke-width:0.8;" x="179.092437" xlink:href="#m3f6a09fc4e" y="252"/>
      </g>
     </g>
     <g id="text_3">
      <!-- $\mathdefault{6000}$ -->
      <g transform="translate(169.129766 262.418498)scale(0.1 -0.1)">
       <defs>
        <path d="M 10.59375 34.34375 
C 10.59375 58 21.796875 63.6875 28.296875 63.6875 
C 30.40625 63.6875 35.5 63.265625 37.5 59.09375 
C 35.90625 59.09375 32.90625 59.09375 32.90625 55.59375 
C 32.90625 52.890625 35.09375 52 36.5 52 
C 37.40625 52 40.09375 52.390625 40.09375 55.796875 
C 40.09375 62.296875 35.09375 66 28.203125 66 
C 16.296875 66 3.796875 53.296875 3.796875 31.421875 
C 3.796875 4.015625 15.09375 -2 23.09375 -2 
C 32.796875 -2 42 6.734375 42 20.234375 
C 42 32.828125 33.90625 42 23.703125 42 
C 17.59375 42 13.09375 37.96875 10.59375 30.921875 
z
M 23.09375 0.390625 
C 10.796875 0.390625 10.796875 18.9375 10.796875 22.65625 
C 10.796875 29.90625 14.203125 40.390625 23.5 40.390625 
C 25.203125 40.390625 30.09375 40.390625 33.40625 33.4375 
C 35.203125 29.515625 35.203125 25.375 35.203125 20.34375 
C 35.203125 14.90625 35.203125 10.875 33.09375 6.84375 
C 30.90625 2.703125 27.703125 0.390625 23.09375 0.390625 
z
" id="CMR17-54"/>
       </defs>
       <use transform="scale(0.996264)" xlink:href="#CMR17-54"/>
       <use transform="translate(45.690477 0)scale(0.996264)" xlink:href="#CMR17-48"/>
       <use transform="translate(91.380954 0)scale(0.996264)" xlink:href="#CMR17-48"/>
       <use transform="translate(137.071431 0)scale(0.996264)" xlink:href="#CMR17-48"/>
      </g>
     </g>
    </g>
    <g id="xtick_4">
     <g id="line2d_7">
      <path clip-path="url(#p79a48db329)" d="M 215.394958 252 
L 215.394958 34.56 
" style="fill:none;stroke:#808080;stroke-dasharray:0.7,3.5;stroke-dashoffset:0;stroke-width:0.7;"/>
     </g>
     <g id="line2d_8">
      <g>
       <use style="stroke:#000000;stroke-width:0.8;" x="215.394958" xlink:href="#m3f6a09fc4e" y="252"/>
      </g>
     </g>
     <g id="text_4">
      <!-- $\mathdefault{8000}$ -->
      <g transform="translate(205.432287 262.418498)scale(0.1 -0.1)">
       <defs>
        <path d="M 27.203125 35.765625 
C 33.5 38.96875 39.90625 43.796875 39.90625 51.53125 
C 39.90625 60.6875 31.09375 66 23 66 
C 13.90625 66 5.90625 59.375 5.90625 50.234375 
C 5.90625 47.71875 6.5 43.390625 10.40625 39.578125 
C 11.40625 38.578125 15.59375 35.5625 18.296875 33.65625 
C 13.796875 31.34375 3.296875 25.8125 3.296875 14.765625 
C 3.296875 4.40625 13.09375 -2 22.796875 -2 
C 33.5 -2 42.5 5.71875 42.5 15.96875 
C 42.5 25.109375 36.40625 29.328125 32.40625 32.046875 
z
M 14.09375 44.609375 
C 13.296875 45.109375 9.296875 48.21875 9.296875 52.9375 
C 9.296875 59.078125 15.59375 63.6875 22.796875 63.6875 
C 30.703125 63.6875 36.5 58.0625 36.5 51.53125 
C 36.5 42.1875 26.09375 36.859375 25.59375 36.859375 
C 25.5 36.859375 25.40625 36.859375 24.59375 37.46875 
z
M 32.5 24 
C 34 22.90625 38.796875 19.578125 38.796875 13.453125 
C 38.796875 6.015625 31.40625 0.390625 23 0.390625 
C 13.90625 0.390625 7 6.921875 7 14.859375 
C 7 22.796875 13.09375 29.4375 20 32.546875 
z
" id="CMR17-56"/>
       </defs>
       <use transform="scale(0.996264)" xlink:href="#CMR17-56"/>
       <use transform="translate(45.690477 0)scale(0.996264)" xlink:href="#CMR17-48"/>
       <use transform="translate(91.380954 0)scale(0.996264)" xlink:href="#CMR17-48"/>
       <use transform="translate(137.071431 0)scale(0.996264)" xlink:href="#CMR17-48"/>
      </g>
     </g>
    </g>
    <g id="xtick_5">
     <g id="line2d_9">
      <path clip-path="url(#p79a48db329)" d="M 251.697479 252 
L 251.697479 34.56 
" style="fill:none;stroke:#808080;stroke-dasharray:0.7,3.5;stroke-dashoffset:0;stroke-width:0.7;"/>
     </g>
     <g id="line2d_10">
      <g>
       <use style="stroke:#000000;stroke-width:0.8;" x="251.697479" xlink:href="#m3f6a09fc4e" y="252"/>
      </g>
     </g>
     <g id="text_5">
      <!-- $\mathdefault{10000}$ -->
      <g transform="translate(239.244141 262.418498)scale(0.1 -0.1)">
       <defs>
        <path d="M 26.59375 63.796875 
C 26.59375 65.890625 26.5 66 25.09375 66 
C 21.203125 61.359375 15.296875 59.890625 9.703125 59.6875 
C 9.40625 59.6875 8.90625 59.6875 8.796875 59.5 
C 8.703125 59.296875 8.703125 59.09375 8.703125 57 
C 11.796875 57 17 57.59375 21 59.984375 
L 21 7.296875 
C 21 3.796875 20.796875 2.59375 12.203125 2.59375 
L 9.203125 2.59375 
L 9.203125 0 
C 14 0.09375 19 0.1875 23.796875 0.1875 
C 28.59375 0.1875 33.59375 0.09375 38.40625 0 
L 38.40625 2.59375 
L 35.40625 2.59375 
C 26.796875 2.59375 26.59375 3.6875 26.59375 7.296875 
z
" id="CMR17-49"/>
       </defs>
       <use transform="scale(0.996264)" xlink:href="#CMR17-49"/>
       <use transform="translate(45.690477 0)scale(0.996264)" xlink:href="#CMR17-48"/>
       <use transform="translate(91.380954 0)scale(0.996264)" xlink:href="#CMR17-48"/>
       <use transform="translate(137.071431 0)scale(0.996264)" xlink:href="#CMR17-48"/>
       <use transform="translate(182.761908 0)scale(0.996264)" xlink:href="#CMR17-48"/>
      </g>
     </g>
    </g>
    <g id="xtick_6">
     <g id="line2d_11">
      <path clip-path="url(#p79a48db329)" d="M 288 252 
L 288 34.56 
" style="fill:none;stroke:#808080;stroke-dasharray:0.7,3.5;stroke-dashoffset:0;stroke-width:0.7;"/>
     </g>
     <g id="line2d_12">
      <g>
       <use style="stroke:#000000;stroke-width:0.8;" x="288" xlink:href="#m3f6a09fc4e" y="252"/>
      </g>
     </g>
     <g id="text_6">
      <!-- $\mathdefault{12000}$ -->
      <g transform="translate(275.546662 262.418498)scale(0.1 -0.1)">
       <use transform="scale(0.996264)" xlink:href="#CMR17-49"/>
       <use transform="translate(45.690477 0)scale(0.996264)" xlink:href="#CMR17-50"/>
       <use transform="translate(91.380954 0)scale(0.996264)" xlink:href="#CMR17-48"/>
       <use transform="translate(137.071431 0)scale(0.996264)" xlink:href="#CMR17-48"/>
       <use transform="translate(182.761908 0)scale(0.996264)" xlink:href="#CMR17-48"/>
      </g>
     </g>
    </g>
    <g id="text_7">
     <!-- Predicted $N_f$ -->
     <g transform="translate(151.556264 275.274175)scale(0.1 -0.1)">
      <defs>
       <path d="M 19.796875 32 
L 35.796875 32 
C 48.703125 32 58.09375 40.359375 58.09375 49.796875 
C 58.09375 59.234375 48.90625 68 35.796875 68 
L 5.203125 68 
L 5.203125 65.390625 
C 12.09375 65.390625 13.203125 65.390625 13.203125 60.921875 
L 13.203125 7.078125 
C 13.203125 2.59375 12.09375 2.59375 5.203125 2.59375 
L 5.203125 0 
C 8.09375 0.1875 13.40625 0.1875 16.5 0.1875 
C 19.59375 0.1875 24.90625 0.1875 27.796875 0 
L 27.796875 2.59375 
C 20.90625 2.59375 19.796875 2.59375 19.796875 7.078125 
z
M 19.59375 34.09375 
L 19.59375 61.515625 
C 19.59375 64.890625 19.796875 65.390625 23.796875 65.390625 
L 33.90625 65.390625 
C 46.796875 65.390625 50.5 58.046875 50.5 49.796875 
C 50.5 40.75 46.09375 34.09375 33.90625 34.09375 
z
" id="CMR17-80"/>
       <path d="M 15 23.703125 
C 15 33.34375 19.09375 42.390625 26.59375 42.390625 
C 27.296875 42.390625 28 42.296875 28.703125 41.984375 
C 28.703125 41.984375 26.5 41.28125 26.5 38.671875 
C 26.5 36.265625 28.40625 35.265625 29.90625 35.265625 
C 31.09375 35.265625 33.296875 35.96875 33.296875 38.78125 
C 33.296875 41.984375 30.09375 44 26.703125 44 
C 19.09375 44 15.796875 36.5625 14.796875 33.046875 
L 14.703125 33.046875 
L 14.703125 44 
L 3.09375 42.890625 
L 3.09375 40.28125 
C 9 40.28125 9.90625 39.6875 9.90625 34.859375 
L 9.90625 6.921875 
C 9.90625 3.09375 9.5 2.59375 3.09375 2.59375 
L 3.09375 0 
C 5.5 0.1875 10.09375 0.1875 12.703125 0.1875 
C 15.59375 0.1875 20.703125 0.1875 23.40625 0 
L 23.40625 2.59375 
C 16.203125 2.59375 15 2.59375 15 7.109375 
z
" id="CMR17-114"/>
       <path d="M 38.09375 23.484375 
C 38.5 23.890625 38.5 24.09375 38.5 25.09375 
C 38.5 35.171875 33.09375 44 21.703125 44 
C 11.09375 44 2.703125 33.984375 2.703125 21.78125 
C 2.703125 8.65625 12.203125 -1 22.796875 -1 
C 34 -1 38.40625 9.671875 38.40625 11.796875 
C 38.40625 12.5 37.796875 12.5 37.59375 12.5 
C 36.90625 12.5 36.796875 12.296875 36.40625 11.078125 
C 34.203125 4.21875 28.703125 0.796875 23.5 0.796875 
C 19.203125 0.796875 14.90625 3.21875 12.203125 7.65625 
C 9.09375 12.796875 9.09375 18.75 9.09375 23.484375 
z
M 9.203125 25 
C 9.90625 39.234375 17.59375 42.390625 21.59375 42.390625 
C 28.40625 42.390625 33 36.0625 33.09375 25 
z
" id="CMR17-101"/>
       <path d="M 29.203125 67.890625 
L 29.203125 65.296875 
C 35.09375 65.296875 36 64.703125 36 60.046875 
L 36 37.046875 
C 35.59375 37.546875 31.5 44 23.40625 44 
C 13.203125 44 3.296875 34.8125 3.296875 21.5 
C 3.296875 8.265625 12.59375 -1 22.40625 -1 
C 30.90625 -1 35.296875 5.640625 35.796875 6.34375 
L 35.796875 -1 
L 47.90625 -0.203125 
L 47.90625 2.40625 
C 42 2.40625 41.09375 3.015625 41.09375 7.859375 
L 41.09375 69 
z
M 35.796875 11.90625 
C 35.796875 8.875 34 6.140625 31.703125 4.125 
C 28.296875 1.09375 24.90625 0.59375 23 0.59375 
C 20.09375 0.59375 9.703125 2.109375 9.703125 21.390625 
C 9.703125 41.1875 21.296875 42.390625 23.90625 42.390625 
C 28.5 42.390625 32.203125 39.765625 34.5 36.140625 
C 35.796875 34.015625 35.796875 33.703125 35.796875 31.890625 
z
" id="CMR17-100"/>
       <path d="M 15.5 61.890625 
C 15.5 64.09375 13.703125 66 11.40625 66 
C 9.203125 66 7.296875 64.1875 7.296875 61.890625 
C 7.296875 59.6875 9.09375 57.796875 11.40625 57.796875 
C 13.59375 57.796875 15.5 59.59375 15.5 61.890625 
z
M 3.796875 42.890625 
L 3.796875 40.296875 
C 9.40625 40.296875 10.203125 39.6875 10.203125 34.859375 
L 10.203125 6.921875 
C 10.203125 3.09375 9.796875 2.59375 3.40625 2.59375 
L 3.40625 0 
C 5.796875 0.1875 10.09375 0.1875 12.59375 0.1875 
C 15 0.1875 19.09375 0.1875 21.40625 0 
L 21.40625 2.59375 
C 15.5 2.59375 15.296875 3.203125 15.296875 6.8125 
L 15.296875 44 
z
" id="CMR17-105"/>
       <path d="M 34.90625 35 
C 33 35 30.203125 35 30.203125 31.484375 
C 30.203125 28.6875 32.5 27.890625 33.796875 27.890625 
C 34.5 27.890625 37.40625 28.1875 37.40625 31.6875 
C 37.40625 38.6875 30.59375 44 22.90625 44 
C 12.296875 44 3.296875 34.390625 3.296875 21.546875 
C 3.296875 8.140625 12.703125 -1 22.90625 -1 
C 35.296875 -1 38.40625 10.5625 38.40625 11.671875 
C 38.40625 12.078125 38.296875 12.375 37.59375 12.375 
C 36.90625 12.375 36.796875 12.28125 36.40625 10.96875 
C 33.796875 2.8125 28.09375 0.796875 23.796875 0.796875 
C 17.40625 0.796875 9.703125 6.734375 9.703125 21.640625 
C 9.703125 36.84375 17.09375 42.1875 23 42.1875 
C 26.90625 42.1875 32.703125 40.34375 34.90625 35 
z
" id="CMR17-99"/>
       <path d="M 15.09375 40.390625 
L 29.09375 40.390625 
L 29.09375 43 
L 15.09375 43 
L 15.09375 62 
L 13.296875 62 
C 13.09375 51.4375 9.59375 42.1875 1.09375 41.984375 
L 1.09375 40.390625 
L 9.796875 40.390625 
L 9.796875 12.15625 
C 9.796875 10.234375 9.796875 -1 21.40625 -1 
C 27.296875 -1 30.703125 4.8125 30.703125 12.25 
L 30.703125 17.984375 
L 28.90625 17.984375 
L 28.90625 12.34375 
C 28.90625 5.421875 26.203125 0.796875 22 0.796875 
C 19.09375 0.796875 15.09375 2.796875 15.09375 11.953125 
z
" id="CMR17-116"/>
       <path d="M 74 57.53125 
C 75.09375 61.8125 76.703125 64.796875 84.296875 65.09375 
C 84.59375 65.09375 85.796875 65.1875 85.796875 66.890625 
C 85.796875 68 84.90625 68 84.5 68 
C 82.5 68 77.40625 67.796875 75.40625 67.796875 
L 70.59375 67.796875 
C 69.203125 67.796875 67.40625 68 66 68 
C 65.40625 68 64.203125 68 64.203125 66.09375 
C 64.203125 65.09375 65 65.09375 65.703125 65.09375 
C 71.703125 64.890625 72.09375 62.609375 72.09375 60.8125 
C 72.09375 59.921875 72 59.625 71.703125 58.21875 
L 60.40625 13.34375 
L 39 66.296875 
C 38.296875 67.890625 38.203125 68 36 68 
L 23.796875 68 
C 21.796875 68 20.90625 68 20.90625 66.09375 
C 20.90625 65.09375 21.59375 65.09375 23.5 65.09375 
C 24 65.09375 29.90625 65.09375 29.90625 64.203125 
C 29.90625 64 29.703125 63.203125 29.59375 62.90625 
L 16.296875 10.15625 
C 15.09375 5.28125 12.703125 3.1875 6.09375 2.890625 
C 5.59375 2.890625 4.59375 2.796875 4.59375 1 
C 4.59375 0 5.59375 0 5.90625 0 
C 7.90625 0 13 0.1875 15 0.1875 
L 19.796875 0.1875 
C 21.203125 0.1875 22.90625 0 24.296875 0 
C 25 0 26.09375 0 26.09375 1.890625 
C 26.09375 2.796875 25.09375 2.890625 24.703125 2.890625 
C 21.40625 2.984375 18.203125 3.59375 18.203125 7.171875 
C 18.203125 7.96875 18.40625 8.859375 18.59375 9.65625 
L 32.09375 62.90625 
C 32.703125 61.90625 32.703125 61.703125 33.09375 60.8125 
L 56.90625 1.796875 
C 57.40625 0.59375 57.59375 0 58.5 0 
C 59.5 0 59.59375 0.296875 60 2 
z
" id="CMMI12-78"/>
       <path d="M 44.59375 40.09375 
C 46.59375 40.09375 47.40625 40.09375 47.40625 41.984375 
C 47.40625 43 46.59375 43 44.796875 43 
L 36.703125 43 
C 38.59375 53.09375 40 60.09375 40.796875 63.296875 
C 41.40625 65.6875 43.5 67.984375 46.09375 67.984375 
C 48.203125 67.984375 50.296875 67.09375 51.296875 66.1875 
C 47.40625 65.796875 46.203125 62.890625 46.203125 61.1875 
C 46.203125 59.1875 47.703125 58 49.59375 58 
C 51.59375 58 54.59375 59.6875 54.59375 63.5 
C 54.59375 67.6875 50.40625 70 46 70 
C 41.703125 70 37.5 66.796875 35.5 62.890625 
C 33.703125 59.390625 32.703125 55.828125 30.40625 43 
L 23.703125 43 
C 21.796875 43 20.796875 43 20.796875 41.1875 
C 20.796875 40.09375 21.40625 40.09375 23.40625 40.09375 
L 29.796875 40.09375 
C 28 30.890625 23.90625 8.515625 21.59375 -2.0625 
C 19.90625 -10.703125 18.40625 -18 13.40625 -18 
C 13.09375 -18 10.203125 -18 8.40625 -16.109375 
C 13.5 -15.703125 13.5 -11.3125 13.5 -11.203125 
C 13.5 -9.203125 12 -8 10.09375 -8 
C 8.09375 -8 5.09375 -9.703125 5.09375 -13.515625 
C 5.09375 -17.8125 9.5 -20 13.40625 -20 
C 23.59375 -20 27.796875 -1.765625 28.90625 3.171875 
C 30.703125 10.796875 35.59375 37.125 36.09375 40.09375 
z
" id="CMMI12-102"/>
      </defs>
      <use transform="scale(0.996264)" xlink:href="#CMR17-80"/>
      <use transform="translate(62.586301 0)scale(0.996264)" xlink:href="#CMR17-114"/>
      <use transform="translate(97.867068 0)scale(0.996264)" xlink:href="#CMR17-101"/>
      <use transform="translate(138.352729 0)scale(0.996264)" xlink:href="#CMR17-100"/>
      <use transform="translate(189.248099 0)scale(0.996264)" xlink:href="#CMR17-105"/>
      <use transform="translate(214.119157 0)scale(0.996264)" xlink:href="#CMR17-99"/>
      <use transform="translate(254.604818 0)scale(0.996264)" xlink:href="#CMR17-116"/>
      <use transform="translate(289.885585 0)scale(0.996264)" xlink:href="#CMR17-101"/>
      <use transform="translate(330.371246 0)scale(0.996264)" xlink:href="#CMR17-100"/>
      <use transform="translate(411.342582 0)scale(0.996264)" xlink:href="#CMMI12-78"/>
      <use transform="translate(489.457701 -14.943915)scale(0.697382)" xlink:href="#CMMI12-102"/>
     </g>
    </g>
   </g>
   <g id="matplotlib.axis_2">
    <g id="ytick_1">
     <g id="line2d_13">
      <path clip-path="url(#p79a48db329)" d="M 72 217.282689 
L 288 217.282689 
" style="fill:none;stroke:#808080;stroke-dasharray:0.7,3.5;stroke-dashoffset:0;stroke-width:0.7;"/>
     </g>
     <g id="line2d_14">
      <defs>
       <path d="M 0 0 
L 3.5 0 
" id="ma92ae38c3a" style="stroke:#000000;stroke-width:0.8;"/>
      </defs>
      <g>
       <use style="stroke:#000000;stroke-width:0.8;" x="72" xlink:href="#ma92ae38c3a" y="217.282689"/>
      </g>
     </g>
     <g id="text_8">
      <!-- $\mathdefault{2000}$ -->
      <g transform="translate(48.574659 220.741938)scale(0.1 -0.1)">
       <use transform="scale(0.996264)" xlink:href="#CMR17-50"/>
       <use transform="translate(45.690477 0)scale(0.996264)" xlink:href="#CMR17-48"/>
       <use transform="translate(91.380954 0)scale(0.996264)" xlink:href="#CMR17-48"/>
       <use transform="translate(137.071431 0)scale(0.996264)" xlink:href="#CMR17-48"/>
      </g>
     </g>
    </g>
    <g id="ytick_2">
     <g id="line2d_15">
      <path clip-path="url(#p79a48db329)" d="M 72 180.738151 
L 288 180.738151 
" style="fill:none;stroke:#808080;stroke-dasharray:0.7,3.5;stroke-dashoffset:0;stroke-width:0.7;"/>
     </g>
     <g id="line2d_16">
      <g>
       <use style="stroke:#000000;stroke-width:0.8;" x="72" xlink:href="#ma92ae38c3a" y="180.738151"/>
      </g>
     </g>
     <g id="text_9">
      <!-- $\mathdefault{4000}$ -->
      <g transform="translate(48.574659 184.1974)scale(0.1 -0.1)">
       <use transform="scale(0.996264)" xlink:href="#CMR17-52"/>
       <use transform="translate(45.690477 0)scale(0.996264)" xlink:href="#CMR17-48"/>
       <use transform="translate(91.380954 0)scale(0.996264)" xlink:href="#CMR17-48"/>
       <use transform="translate(137.071431 0)scale(0.996264)" xlink:href="#CMR17-48"/>
      </g>
     </g>
    </g>
    <g id="ytick_3">
     <g id="line2d_17">
      <path clip-path="url(#p79a48db329)" d="M 72 144.193613 
L 288 144.193613 
" style="fill:none;stroke:#808080;stroke-dasharray:0.7,3.5;stroke-dashoffset:0;stroke-width:0.7;"/>
     </g>
     <g id="line2d_18">
      <g>
       <use style="stroke:#000000;stroke-width:0.8;" x="72" xlink:href="#ma92ae38c3a" y="144.193613"/>
      </g>
     </g>
     <g id="text_10">
      <!-- $\mathdefault{6000}$ -->
      <g transform="translate(48.574659 147.652863)scale(0.1 -0.1)">
       <use transform="scale(0.996264)" xlink:href="#CMR17-54"/>
       <use transform="translate(45.690477 0)scale(0.996264)" xlink:href="#CMR17-48"/>
       <use transform="translate(91.380954 0)scale(0.996264)" xlink:href="#CMR17-48"/>
       <use transform="translate(137.071431 0)scale(0.996264)" xlink:href="#CMR17-48"/>
      </g>
     </g>
    </g>
    <g id="ytick_4">
     <g id="line2d_19">
      <path clip-path="url(#p79a48db329)" d="M 72 107.649076 
L 288 107.649076 
" style="fill:none;stroke:#808080;stroke-dasharray:0.7,3.5;stroke-dashoffset:0;stroke-width:0.7;"/>
     </g>
     <g id="line2d_20">
      <g>
       <use style="stroke:#000000;stroke-width:0.8;" x="72" xlink:href="#ma92ae38c3a" y="107.649076"/>
      </g>
     </g>
     <g id="text_11">
      <!-- $\mathdefault{8000}$ -->
      <g transform="translate(48.574659 111.108325)scale(0.1 -0.1)">
       <use transform="scale(0.996264)" xlink:href="#CMR17-56"/>
       <use transform="translate(45.690477 0)scale(0.996264)" xlink:href="#CMR17-48"/>
       <use transform="translate(91.380954 0)scale(0.996264)" xlink:href="#CMR17-48"/>
       <use transform="translate(137.071431 0)scale(0.996264)" xlink:href="#CMR17-48"/>
      </g>
     </g>
    </g>
    <g id="ytick_5">
     <g id="line2d_21">
      <path clip-path="url(#p79a48db329)" d="M 72 71.104538 
L 288 71.104538 
" style="fill:none;stroke:#808080;stroke-dasharray:0.7,3.5;stroke-dashoffset:0;stroke-width:0.7;"/>
     </g>
     <g id="line2d_22">
      <g>
       <use style="stroke:#000000;stroke-width:0.8;" x="72" xlink:href="#ma92ae38c3a" y="71.104538"/>
      </g>
     </g>
     <g id="text_12">
      <!-- $\mathdefault{10000}$ -->
      <g transform="translate(43.593324 74.563787)scale(0.1 -0.1)">
       <use transform="scale(0.996264)" xlink:href="#CMR17-49"/>
       <use transform="translate(45.690477 0)scale(0.996264)" xlink:href="#CMR17-48"/>
       <use transform="translate(91.380954 0)scale(0.996264)" xlink:href="#CMR17-48"/>
       <use transform="translate(137.071431 0)scale(0.996264)" xlink:href="#CMR17-48"/>
       <use transform="translate(182.761908 0)scale(0.996264)" xlink:href="#CMR17-48"/>
      </g>
     </g>
    </g>
    <g id="ytick_6">
     <g id="line2d_23">
      <path clip-path="url(#p79a48db329)" d="M 72 34.56 
L 288 34.56 
" style="fill:none;stroke:#808080;stroke-dasharray:0.7,3.5;stroke-dashoffset:0;stroke-width:0.7;"/>
     </g>
     <g id="line2d_24">
      <g>
       <use style="stroke:#000000;stroke-width:0.8;" x="72" xlink:href="#ma92ae38c3a" y="34.56"/>
      </g>
     </g>
     <g id="text_13">
      <!-- $\mathdefault{12000}$ -->
      <g transform="translate(43.593324 38.019249)scale(0.1 -0.1)">
       <use transform="scale(0.996264)" xlink:href="#CMR17-49"/>
       <use transform="translate(45.690477 0)scale(0.996264)" xlink:href="#CMR17-50"/>
       <use transform="translate(91.380954 0)scale(0.996264)" xlink:href="#CMR17-48"/>
       <use transform="translate(137.071431 0)scale(0.996264)" xlink:href="#CMR17-48"/>
       <use transform="translate(182.761908 0)scale(0.996264)" xlink:href="#CMR17-48"/>
      </g>
     </g>
    </g>
    <g id="text_14">
     <!-- Measured $N_f$ -->
     <g transform="translate(36.742929 171.820594)rotate(-90)scale(0.1 -0.1)">
      <defs>
       <path d="M 20.90625 66.390625 
C 20.296875 67.890625 20.203125 68 18.09375 68 
L 5.296875 68 
L 5.296875 65.390625 
C 12.203125 65.390625 13.296875 65.390625 13.296875 60.90625 
L 13.296875 9.75 
C 13.296875 7.265625 13.296875 2.59375 5.296875 2.59375 
L 5.296875 0 
C 7.59375 0.1875 11.796875 0.1875 14.296875 0.1875 
C 16.796875 0.1875 21 0.1875 23.296875 0 
L 23.296875 2.59375 
C 15.296875 2.59375 15.296875 7.265625 15.296875 9.75 
L 15.296875 64.984375 
L 15.40625 64.984375 
L 38.90625 1.59375 
C 39.296875 0.59375 39.5 0 40.296875 0 
C 41.09375 0 41.296875 0.59375 41.703125 1.59375 
L 65.40625 65.484375 
L 65.5 65.484375 
L 65.5 7.078125 
C 65.5 2.59375 64.40625 2.59375 57.5 2.59375 
L 57.5 0 
C 60.203125 0.1875 65.59375 0.1875 68.5 0.1875 
C 71.40625 0.1875 76.90625 0.1875 79.59375 0 
L 79.59375 2.59375 
C 72.703125 2.59375 71.59375 2.59375 71.59375 7.078125 
L 71.59375 60.90625 
C 71.59375 65.390625 72.703125 65.390625 79.59375 65.390625 
L 79.59375 68 
L 66.90625 68 
C 64.796875 68 64.703125 67.890625 64.09375 66.390625 
L 42.5 8.0625 
z
" id="CMR17-77"/>
       <path d="M 36 25.875 
C 36 32 36 35.546875 31.796875 39.59375 
C 28.09375 42.984375 23.796875 44 20.40625 44 
C 12.5 44 6.796875 37.625 6.796875 30.890625 
C 6.796875 27.1875 9.796875 27 10.40625 27 
C 11.703125 27 14 27.796875 14 30.59375 
C 14 33.09375 12.09375 34.1875 10.40625 34.1875 
C 10 34.1875 9.5 34.09375 9.203125 34 
C 11.296875 40.53125 16.703125 42.390625 20.203125 42.390625 
C 25.203125 42.390625 30.703125 37.828125 30.703125 29.296875 
L 30.703125 25.5 
C 24.796875 25.296875 17.703125 24.5 12.09375 21.453125 
C 5.796875 17.921875 4 12.84375 4 9 
C 4 1.203125 13 -1 18.296875 -1 
C 23.796875 -1 28.90625 2.109375 31.09375 7.890625 
C 31.296875 3.421875 34.09375 -0.609375 38.5 -0.609375 
C 40.59375 -0.609375 45.90625 0.796875 45.90625 8.796875 
L 45.90625 14.46875 
L 44.09375 14.46875 
L 44.09375 8.703125 
C 44.09375 2.515625 41.40625 1.703125 40.09375 1.703125 
C 36 1.703125 36 6.96875 36 11.4375 
z
M 30.703125 13.859375 
C 30.703125 5.046875 24.5 0.59375 19 0.59375 
C 14 0.59375 10.09375 4.34375 10.09375 9 
C 10.09375 12.046875 11.40625 17.40625 17.203125 20.65625 
C 22 23.390625 27.5 23.796875 30.703125 24 
z
" id="CMR17-97"/>
       <path d="M 30.90625 42 
C 30.90625 43.796875 30.796875 43.890625 30.203125 43.890625 
C 29.796875 43.890625 29.703125 43.796875 28.5 42.296875 
C 28.203125 41.890625 27.296875 40.890625 27 40.5 
C 23.796875 43.890625 19.296875 44 17.59375 44 
C 6.5 44 2.5 38.1875 2.5 32.390625 
C 2.5 23.390625 12.703125 21.296875 15.59375 20.6875 
C 21.90625 19.390625 24.09375 19 26.203125 17.1875 
C 27.5 16 29.703125 13.796875 29.703125 10.1875 
C 29.703125 6 27.296875 0.59375 18.09375 0.59375 
C 9.40625 0.59375 6.296875 7.1875 4.5 16 
C 4.203125 17.390625 4.203125 17.5 3.40625 17.5 
C 2.59375 17.5 2.5 17.390625 2.5 15.390625 
L 2.5 1 
C 2.5 -0.8125 2.59375 -0.90625 3.203125 -0.90625 
C 3.703125 -0.90625 3.796875 -0.8125 4.296875 0 
C 4.90625 0.890625 6.40625 3.296875 7 4.296875 
C 9 1.59375 12.5 -1 18.09375 -1 
C 28 -1 33.296875 4.390625 33.296875 12.1875 
C 33.296875 17.296875 30.59375 20 29.296875 21.1875 
C 26.296875 24.296875 22.796875 25 18.59375 25.796875 
C 13.09375 27 6.09375 28.390625 6.09375 34.5 
C 6.09375 37.09375 7.5 42.59375 17.59375 42.59375 
C 28.296875 42.59375 28.90625 32.59375 29.09375 29.390625 
C 29.203125 28.890625 29.703125 28.796875 30 28.796875 
C 30.90625 28.796875 30.90625 29.09375 30.90625 30.796875 
z
" id="CMR17-115"/>
       <path d="M 29.40625 42.890625 
L 29.40625 40.296875 
C 35.296875 40.296875 36.203125 39.6875 36.203125 34.828125 
L 36.203125 16.453125 
C 36.203125 7.96875 31.703125 0.59375 24.296875 0.59375 
C 16.09375 0.59375 15.40625 5.546875 15.40625 10.796875 
L 15.40625 44 
L 3.296875 42.890625 
L 3.296875 40.296875 
C 7.296875 40.296875 10 40.296875 10.09375 36.25 
L 10.09375 16.859375 
C 10.09375 10.09375 10.09375 5.75 12.703125 2.921875 
C 14 1.609375 16.5 -1 23.703125 -1 
C 32.203125 -1 35.5 6.25 36.296875 8.375 
L 36.40625 8.375 
L 36.40625 -1 
L 48.296875 -0.203125 
L 48.296875 2.40625 
C 42.40625 2.40625 41.5 3.015625 41.5 7.859375 
L 41.5 44 
z
" id="CMR17-117"/>
      </defs>
      <use transform="scale(0.996264)" xlink:href="#CMR17-77"/>
      <use transform="translate(84.686941 0)scale(0.996264)" xlink:href="#CMR17-101"/>
      <use transform="translate(125.172601 0)scale(0.996264)" xlink:href="#CMR17-97"/>
      <use transform="translate(170.863078 0)scale(0.996264)" xlink:href="#CMR17-115"/>
      <use transform="translate(206.664416 0)scale(0.996264)" xlink:href="#CMR17-117"/>
      <use transform="translate(257.559786 0)scale(0.996264)" xlink:href="#CMR17-114"/>
      <use transform="translate(292.840553 0)scale(0.996264)" xlink:href="#CMR17-101"/>
      <use transform="translate(333.326214 0)scale(0.996264)" xlink:href="#CMR17-100"/>
      <use transform="translate(414.29755 0)scale(0.996264)" xlink:href="#CMMI12-78"/>
      <use transform="translate(492.412669 -14.943915)scale(0.697382)" xlink:href="#CMMI12-102"/>
     </g>
    </g>
   </g>
   <g id="line2d_25">
    <path clip-path="url(#p79a48db329)" d="M 72 252 
L 323.324503 -1 
" style="fill:none;stroke:#000000;stroke-linecap:square;stroke-width:2;"/>
   </g>
   <g id="line2d_26">
    <path clip-path="url(#p79a48db329)" d="M 70.184874 253.827227 
L 179.092437 34.56 
" style="fill:none;stroke:#808080;stroke-dasharray:3.7,1.6;stroke-dashoffset:0;"/>
   </g>
   <g id="line2d_27">
    <path clip-path="url(#p79a48db329)" d="M 70.184874 253.827227 
L 288 144.193613 
" style="fill:none;stroke:#808080;stroke-dasharray:3.7,1.6;stroke-dashoffset:0;"/>
   </g>
   <g id="line2d_28">
    <defs>
     <path d="M 0 3.5 
C 0.928211 3.5 1.81853 3.131218 2.474874 2.474874 
C 3.131218 1.81853 3.5 0.928211 3.5 0 
C 3.5 -0.928211 3.131218 -1.81853 2.474874 -2.474874 
C 1.81853 -3.131218 0.928211 -3.5 0 -3.5 
C -0.928211 -3.5 -1.81853 -3.131218 -2.474874 -2.474874 
C -3.131218 -1.81853 -3.5 -0.928211 -3.5 0 
C -3.5 0.928211 -3.131218 1.81853 -2.474874 2.474874 
C -1.81853 3.131218 -0.928211 3.5 0 3.5 
z
" id="me6c6b9de4c" style="stroke:#ff0029;stroke-width:1.5;"/>
    </defs>
    <g clip-path="url(#p79a48db329)">
     <use style="fill-opacity:0;stroke:#ff0029;stroke-width:1.5;" x="276.780323" xlink:href="#me6c6b9de4c" y="55.792376"/>
     <use style="fill-opacity:0;stroke:#ff0029;stroke-width:1.5;" x="243.227771" xlink:href="#me6c6b9de4c" y="58.64285"/>
     <use style="fill-opacity:0;stroke:#ff0029;stroke-width:1.5;" x="235.10237" xlink:href="#me6c6b9de4c" y="88.061203"/>
    </g>
   </g>
   <g id="line2d_29">
    <defs>
     <path d="M 0 3.5 
C 0.928211 3.5 1.81853 3.131218 2.474874 2.474874 
C 3.131218 1.81853 3.5 0.928211 3.5 0 
C 3.5 -0.928211 3.131218 -1.81853 2.474874 -2.474874 
C 1.81853 -3.131218 0.928211 -3.5 0 -3.5 
C -0.928211 -3.5 -1.81853 -3.131218 -2.474874 -2.474874 
C -3.131218 -1.81853 -3.5 -0.928211 -3.5 0 
C -3.5 0.928211 -3.131218 1.81853 -2.474874 2.474874 
C -1.81853 3.131218 -0.928211 3.5 0 3.5 
z
" id="m285335d918" style="stroke:#f97306;stroke-width:1.5;"/>
    </defs>
    <g clip-path="url(#p79a48db329)">
     <use style="fill-opacity:0;stroke:#f97306;stroke-width:1.5;" x="154.177191" xlink:href="#m285335d918" y="162.28316"/>
     <use style="fill-opacity:0;stroke:#f97306;stroke-width:1.5;" x="162.663588" xlink:href="#m285335d918" y="156.856296"/>
     <use style="fill-opacity:0;stroke:#f97306;stroke-width:1.5;" x="134.738343" xlink:href="#m285335d918" y="185.890931"/>
    </g>
   </g>
   <g id="line2d_30">
    <defs>
     <path d="M 0 3.5 
C 0.928211 3.5 1.81853 3.131218 2.474874 2.474874 
C 3.131218 1.81853 3.5 0.928211 3.5 0 
C 3.5 -0.928211 3.131218 -1.81853 2.474874 -2.474874 
C 1.81853 -3.131218 0.928211 -3.5 0 -3.5 
C -0.928211 -3.5 -1.81853 -3.131218 -2.474874 -2.474874 
C -3.131218 -1.81853 -3.5 -0.928211 -3.5 0 
C -3.5 0.928211 -3.131218 1.81853 -2.474874 2.474874 
C -1.81853 3.131218 -0.928211 3.5 0 3.5 
z
" id="m37124fb91f" style="stroke:#15b01a;stroke-width:1.5;"/>
    </defs>
    <g clip-path="url(#p79a48db329)">
     <use style="fill-opacity:0;stroke:#15b01a;stroke-width:1.5;" x="106.258313" xlink:href="#m37124fb91f" y="220.133163"/>
     <use style="fill-opacity:0;stroke:#15b01a;stroke-width:1.5;" x="106.757426" xlink:href="#m37124fb91f" y="217.04515"/>
     <use style="fill-opacity:0;stroke:#15b01a;stroke-width:1.5;" x="105.492222" xlink:href="#m37124fb91f" y="217.849129"/>
     <use style="fill-opacity:0;stroke:#15b01a;stroke-width:1.5;" x="98.55987" xlink:href="#m37124fb91f" y="226.217829"/>
    </g>
   </g>
   <g id="line2d_31">
    <defs>
     <path d="M 0 3.5 
C 0.928211 3.5 1.81853 3.131218 2.474874 2.474874 
C 3.131218 1.81853 3.5 0.928211 3.5 0 
C 3.5 -0.928211 3.131218 -1.81853 2.474874 -2.474874 
C 1.81853 -3.131218 0.928211 -3.5 0 -3.5 
C -0.928211 -3.5 -1.81853 -3.131218 -2.474874 -2.474874 
C -3.131218 -1.81853 -3.5 -0.928211 -3.5 0 
C -3.5 0.928211 -3.131218 1.81853 -2.474874 2.474874 
C -1.81853 3.131218 -0.928211 3.5 0 3.5 
z
" id="m2fb22f16bb" style="stroke:#75bbfd;stroke-width:1.5;"/>
    </defs>
    <g clip-path="url(#p79a48db329)">
     <use style="fill-opacity:0;stroke:#75bbfd;stroke-width:1.5;" x="85.342819" xlink:href="#m2fb22f16bb" y="238.971872"/>
     <use style="fill-opacity:0;stroke:#75bbfd;stroke-width:1.5;" x="85.425184" xlink:href="#m2fb22f16bb" y="238.295798"/>
     <use style="fill-opacity:0;stroke:#75bbfd;stroke-width:1.5;" x="85.299131" xlink:href="#m2fb22f16bb" y="238.825694"/>
    </g>
   </g>
   <g id="line2d_32">
    <defs>
     <path d="M 0 3.5 
C 0.928211 3.5 1.81853 3.131218 2.474874 2.474874 
C 3.131218 1.81853 3.5 0.928211 3.5 0 
C 3.5 -0.928211 3.131218 -1.81853 2.474874 -2.474874 
C 1.81853 -3.131218 0.928211 -3.5 0 -3.5 
C -0.928211 -3.5 -1.81853 -3.131218 -2.474874 -2.474874 
C -3.131218 -1.81853 -3.5 -0.928211 -3.5 0 
C -3.5 0.928211 -3.131218 1.81853 -2.474874 2.474874 
C -1.81853 3.131218 -0.928211 3.5 0 3.5 
z
" id="m8574b0b51a" style="stroke:#2a00ff;stroke-width:1.5;"/>
    </defs>
    <g clip-path="url(#p79a48db329)">
     <use style="fill-opacity:0;stroke:#2a00ff;stroke-width:1.5;" x="75.768339" xlink:href="#m8574b0b51a" y="249.971778"/>
     <use style="fill-opacity:0;stroke:#2a00ff;stroke-width:1.5;" x="75.730291" xlink:href="#m8574b0b51a" y="247.888739"/>
     <use style="fill-opacity:0;stroke:#2a00ff;stroke-width:1.5;" x="75.73517" xlink:href="#m8574b0b51a" y="248.126279"/>
    </g>
   </g>
   <g id="line2d_33">
    <defs>
     <path d="M 0 3.5 
C 0.928211 3.5 1.81853 3.131218 2.474874 2.474874 
C 3.131218 1.81853 3.5 0.928211 3.5 0 
C 3.5 -0.928211 3.131218 -1.81853 2.474874 -2.474874 
C 1.81853 -3.131218 0.928211 -3.5 0 -3.5 
C -0.928211 -3.5 -1.81853 -3.131218 -2.474874 -2.474874 
C -3.131218 -1.81853 -3.5 -0.928211 -3.5 0 
C -3.5 0.928211 -3.131218 1.81853 -2.474874 2.474874 
C -1.81853 3.131218 -0.928211 3.5 0 3.5 
z
" id="m2dc6b86d1f" style="stroke:#ff00bf;stroke-width:1.5;"/>
    </defs>
    <g clip-path="url(#p79a48db329)">
     <use style="fill-opacity:0;stroke:#ff00bf;stroke-width:1.5;" x="72.477427" xlink:href="#m2dc6b86d1f" y="251.378743"/>
     <use style="fill-opacity:0;stroke:#ff00bf;stroke-width:1.5;" x="72.523563" xlink:href="#m2dc6b86d1f" y="251.323926"/>
     <use style="fill-opacity:0;stroke:#ff00bf;stroke-width:1.5;" x="72.537169" xlink:href="#m2dc6b86d1f" y="251.049842"/>
    </g>
   </g>
   <g id="line2d_34">
    <defs>
     <path d="M -3.5 3.5 
L 3.5 3.5 
L 3.5 -3.5 
L -3.5 -3.5 
z
" id="m95d4ef6493" style="stroke:#2a00ff;stroke-linejoin:miter;stroke-width:1.5;"/>
    </defs>
    <g clip-path="url(#p79a48db329)">
     <use style="fill:#2a00ff;stroke:#2a00ff;stroke-linejoin:miter;stroke-width:1.5;" x="76.265668" xlink:href="#m95d4ef6493" y="247.395388"/>
     <use style="fill:#2a00ff;stroke:#2a00ff;stroke-linejoin:miter;stroke-width:1.5;" x="78.286537" xlink:href="#m95d4ef6493" y="245.495072"/>
    </g>
   </g>
   <g id="line2d_35">
    <defs>
     <path d="M 0 -3.5 
L -3.5 3.5 
L 3.5 3.5 
z
" id="m6766bd45c7" style="stroke:#75bbfd;stroke-linejoin:miter;stroke-width:1.5;"/>
    </defs>
    <g clip-path="url(#p79a48db329)">
     <use style="fill:#75bbfd;stroke:#75bbfd;stroke-linejoin:miter;stroke-width:1.5;" x="83.645642" xlink:href="#m6766bd45c7" y="240.451926"/>
     <use style="fill:#75bbfd;stroke:#75bbfd;stroke-linejoin:miter;stroke-width:1.5;" x="83.416647" xlink:href="#m6766bd45c7" y="240.872188"/>
    </g>
   </g>
   <g id="line2d_36">
    <defs>
     <path d="M 0 -3.5 
L -3.5 3.5 
L 3.5 3.5 
z
" id="m7fdd1ba63e" style="stroke:#2a00ff;stroke-linejoin:miter;stroke-width:1.5;"/>
    </defs>
    <g clip-path="url(#p79a48db329)">
     <use style="fill:#2a00ff;stroke:#2a00ff;stroke-linejoin:miter;stroke-width:1.5;" x="76.172149" xlink:href="#m7fdd1ba63e" y="247.267482"/>
     <use style="fill:#2a00ff;stroke:#2a00ff;stroke-linejoin:miter;stroke-width:1.5;" x="75.976254" xlink:href="#m7fdd1ba63e" y="247.523294"/>
     <use style="fill:#2a00ff;stroke:#2a00ff;stroke-linejoin:miter;stroke-width:1.5;" x="75.910384" xlink:href="#m7fdd1ba63e" y="247.706017"/>
    </g>
   </g>
   <g id="line2d_37">
    <defs>
     <path d="M 0 3.5 
C 0.928211 3.5 1.81853 3.131218 2.474874 2.474874 
C 3.131218 1.81853 3.5 0.928211 3.5 0 
C 3.5 -0.928211 3.131218 -1.81853 2.474874 -2.474874 
C 1.81853 -3.131218 0.928211 -3.5 0 -3.5 
C -0.928211 -3.5 -1.81853 -3.131218 -2.474874 -2.474874 
C -3.131218 -1.81853 -3.5 -0.928211 -3.5 0 
C -3.5 0.928211 -3.131218 1.81853 -2.474874 2.474874 
C -1.81853 3.131218 -0.928211 3.5 0 3.5 
z
" id="mf4ffa8c129" style="stroke:#ff0029;stroke-width:1.5;"/>
    </defs>
    <g clip-path="url(#p79a48db329)">
     <use style="fill:#ff0029;stroke:#ff0029;stroke-width:1.5;" x="174.742968" xlink:href="#mf4ffa8c129" y="123.089143"/>
     <use style="fill:#ff0029;stroke:#ff0029;stroke-width:1.5;" x="188.212355" xlink:href="#mf4ffa8c129" y="77.64601"/>
     <use style="fill:#ff0029;stroke:#ff0029;stroke-width:1.5;" x="187.67333" xlink:href="#mf4ffa8c129" y="88.371832"/>
     <use style="fill:#ff0029;stroke:#ff0029;stroke-width:1.5;" x="170.828065" xlink:href="#mf4ffa8c129" y="146.605553"/>
    </g>
   </g>
   <g id="line2d_38">
    <defs>
     <path d="M 0 3.5 
C 0.928211 3.5 1.81853 3.131218 2.474874 2.474874 
C 3.131218 1.81853 3.5 0.928211 3.5 0 
C 3.5 -0.928211 3.131218 -1.81853 2.474874 -2.474874 
C 1.81853 -3.131218 0.928211 -3.5 0 -3.5 
C -0.928211 -3.5 -1.81853 -3.131218 -2.474874 -2.474874 
C -3.131218 -1.81853 -3.5 -0.928211 -3.5 0 
C -3.5 0.928211 -3.131218 1.81853 -2.474874 2.474874 
C -1.81853 3.131218 -0.928211 3.5 0 3.5 
z
" id="mfa4035a293" style="stroke:#f97306;stroke-width:1.5;"/>
    </defs>
    <g clip-path="url(#p79a48db329)">
     <use style="fill:#f97306;stroke:#f97306;stroke-width:1.5;" x="125.712948" xlink:href="#mfa4035a293" y="199.924034"/>
     <use style="fill:#f97306;stroke:#f97306;stroke-width:1.5;" x="114.294023" xlink:href="#mfa4035a293" y="202.865869"/>
     <use style="fill:#f97306;stroke:#f97306;stroke-width:1.5;" x="116.940819" xlink:href="#mfa4035a293" y="197.420733"/>
     <use style="fill:#f97306;stroke:#f97306;stroke-width:1.5;" x="98.696629" xlink:href="#mfa4035a293" y="224.591597"/>
    </g>
   </g>
   <g id="line2d_39">
    <defs>
     <path d="M 0 3.5 
C 0.928211 3.5 1.81853 3.131218 2.474874 2.474874 
C 3.131218 1.81853 3.5 0.928211 3.5 0 
C 3.5 -0.928211 3.131218 -1.81853 2.474874 -2.474874 
C 1.81853 -3.131218 0.928211 -3.5 0 -3.5 
C -0.928211 -3.5 -1.81853 -3.131218 -2.474874 -2.474874 
C -3.131218 -1.81853 -3.5 -0.928211 -3.5 0 
C -3.5 0.928211 -3.131218 1.81853 -2.474874 2.474874 
C -1.81853 3.131218 -0.928211 3.5 0 3.5 
z
" id="md6e163caca" style="stroke:#15b01a;stroke-width:1.5;"/>
    </defs>
    <g clip-path="url(#p79a48db329)">
     <use style="fill:#15b01a;stroke:#15b01a;stroke-width:1.5;" x="96.445582" xlink:href="#md6e163caca" y="225.139765"/>
     <use style="fill:#15b01a;stroke:#15b01a;stroke-width:1.5;" x="96.006493" xlink:href="#md6e163caca" y="227.734427"/>
     <use style="fill:#15b01a;stroke:#15b01a;stroke-width:1.5;" x="102.418942" xlink:href="#md6e163caca" y="221.010232"/>
    </g>
   </g>
   <g id="line2d_40">
    <defs>
     <path d="M 0 3.5 
C 0.928211 3.5 1.81853 3.131218 2.474874 2.474874 
C 3.131218 1.81853 3.5 0.928211 3.5 0 
C 3.5 -0.928211 3.131218 -1.81853 2.474874 -2.474874 
C 1.81853 -3.131218 0.928211 -3.5 0 -3.5 
C -0.928211 -3.5 -1.81853 -3.131218 -2.474874 -2.474874 
C -3.131218 -1.81853 -3.5 -0.928211 -3.5 0 
C -3.5 0.928211 -3.131218 1.81853 -2.474874 2.474874 
C -1.81853 3.131218 -0.928211 3.5 0 3.5 
z
" id="m8db3b460d2" style="stroke:#75bbfd;stroke-width:1.5;"/>
    </defs>
    <g clip-path="url(#p79a48db329)">
     <use style="fill:#75bbfd;stroke:#75bbfd;stroke-width:1.5;" x="87.837922" xlink:href="#m8db3b460d2" y="235.956948"/>
     <use style="fill:#75bbfd;stroke:#75bbfd;stroke-width:1.5;" x="86.787197" xlink:href="#m8db3b460d2" y="237.272551"/>
     <use style="fill:#75bbfd;stroke:#75bbfd;stroke-width:1.5;" x="89.412698" xlink:href="#m8db3b460d2" y="234.476894"/>
     <use style="fill:#75bbfd;stroke:#75bbfd;stroke-width:1.5;" x="87.558522" xlink:href="#m8db3b460d2" y="236.724383"/>
    </g>
   </g>
   <g id="line2d_41">
    <defs>
     <path d="M 0 3.5 
C 0.928211 3.5 1.81853 3.131218 2.474874 2.474874 
C 3.131218 1.81853 3.5 0.928211 3.5 0 
C 3.5 -0.928211 3.131218 -1.81853 2.474874 -2.474874 
C 1.81853 -3.131218 0.928211 -3.5 0 -3.5 
C -0.928211 -3.5 -1.81853 -3.131218 -2.474874 -2.474874 
C -3.131218 -1.81853 -3.5 -0.928211 -3.5 0 
C -3.5 0.928211 -3.131218 1.81853 -2.474874 2.474874 
C -1.81853 3.131218 -0.928211 3.5 0 3.5 
z
" id="m72819c6210" style="stroke:#2a00ff;stroke-width:1.5;"/>
    </defs>
    <g clip-path="url(#p79a48db329)">
     <use style="fill:#2a00ff;stroke:#2a00ff;stroke-width:1.5;" x="77.47574" xlink:href="#m72819c6210" y="247.194393"/>
     <use style="fill:#2a00ff;stroke:#2a00ff;stroke-width:1.5;" x="76.876061" xlink:href="#m72819c6210" y="247.029943"/>
     <use style="fill:#2a00ff;stroke:#2a00ff;stroke-width:1.5;" x="77.169387" xlink:href="#m72819c6210" y="246.262508"/>
    </g>
   </g>
   <g id="patch_3">
    <path d="M 72 252 
L 72 34.56 
" style="fill:none;stroke:#000000;stroke-linecap:square;stroke-linejoin:miter;stroke-width:0.8;"/>
   </g>
   <g id="patch_4">
    <path d="M 288 252 
L 288 34.56 
" style="fill:none;stroke:#000000;stroke-linecap:square;stroke-linejoin:miter;stroke-width:0.8;"/>
   </g>
   <g id="patch_5">
    <path d="M 72 252 
L 288 252 
" style="fill:none;stroke:#000000;stroke-linecap:square;stroke-linejoin:miter;stroke-width:0.8;"/>
   </g>
   <g id="patch_6">
    <path d="M 72 34.56 
L 288 34.56 
" style="fill:none;stroke:#000000;stroke-linecap:square;stroke-linejoin:miter;stroke-width:0.8;"/>
   </g>
   <g id="text_15">
    <!-- $\chi^2 = 0.591$ -->
    <g transform="translate(152.7621 28.56)scale(0.12 -0.12)">
     <defs>
      <path d="M 33 16.171875 
C 30.296875 24.40625 30.90625 23.609375 28.40625 30.5625 
C 25.296875 39.109375 24.5 39.796875 23.09375 41.1875 
C 21.296875 42.796875 17.90625 44 14.40625 44 
C 8.796875 44 6.09375 38.8125 6.09375 37.515625 
C 6.09375 36.921875 6.59375 36.625 7.203125 36.625 
C 8 36.625 8.203125 37.125 8.296875 37.515625 
C 9.796875 41.390625 12.90625 41.984375 13.796875 41.984375 
C 16.703125 41.984375 19.5 34.84375 21.296875 30.078125 
C 23.703125 24.015625 24.90625 19.84375 27.59375 10.203125 
L 4 -16.40625 
C 3.09375 -17.5 3.09375 -17.90625 3.09375 -18 
C 3.09375 -18.8125 3.59375 -19 4 -19 
C 4.40625 -19 4.703125 -18.8125 5 -18.5 
C 7.796875 -15.71875 14 -8.359375 16.59375 -5.390625 
L 28.203125 7.71875 
C 33.09375 -7.484375 33.09375 -7.671875 34.59375 -11.359375 
C 36.203125 -15.125 38.296875 -20 46.796875 -20 
C 52.5 -20 55.09375 -14.921875 55.09375 -13.53125 
C 55.09375 -12.84375 54.5 -12.640625 54 -12.640625 
C 53.203125 -12.640625 53.09375 -13.046875 52.796875 -13.84375 
C 51.703125 -16.625 49.09375 -18 47.5 -18 
C 46.203125 -18 44.59375 -18 40.203125 -6.984375 
C 37.59375 -0.328125 35.296875 7.609375 33.59375 13.78125 
L 57.296875 40.59375 
C 58.09375 41.484375 58.203125 41.59375 58.203125 41.984375 
C 58.203125 42.6875 57.703125 43 57.203125 43 
C 56.90625 43 56.59375 43 55.59375 41.890625 
z
" id="CMMI12-31"/>
      <path d="M 64.296875 32 
C 65.796875 32 67.296875 32 67.296875 33.6875 
C 67.296875 35.5 65.59375 35.5 63.90625 35.5 
L 8 35.5 
C 6.296875 35.5 4.59375 35.5 4.59375 33.6875 
C 4.59375 32 6.09375 32 7.59375 32 
z
M 63.90625 14.484375 
C 65.59375 14.484375 67.296875 14.484375 67.296875 16.296875 
C 67.296875 18 65.796875 18 64.296875 18 
L 7.59375 18 
C 6.09375 18 4.59375 18 4.59375 16.296875 
C 4.59375 14.484375 6.296875 14.484375 8 14.484375 
z
" id="CMR17-61"/>
      <path d="M 18.40625 4.796875 
C 18.40625 7.6875 16 9.6875 13.59375 9.6875 
C 10.703125 9.6875 8.703125 7.296875 8.703125 4.890625 
C 8.703125 2 11.09375 0 13.5 0 
C 16.40625 0 18.40625 2.390625 18.40625 4.796875 
z
" id="CMMI12-58"/>
      <path d="M 11.40625 58.59375 
C 12.40625 58.1875 16.5 56.890625 20.703125 56.890625 
C 30 56.890625 35.09375 61.890625 38 64.6875 
C 38 65.484375 38 66 37.40625 66 
C 37.296875 66 37.09375 66 36.296875 65.59375 
C 32.796875 64.09375 28.703125 63 23.703125 63 
C 20.703125 63 16.203125 63.359375 11.296875 65.484375 
C 10.203125 66 10 66 9.90625 66 
C 9.40625 66 9.296875 65.890625 9.296875 63.90625 
L 9.296875 34.859375 
C 9.296875 33.015625 9.296875 32.5 10.296875 32.5 
C 10.796875 32.5 11 32.703125 11.5 33.421875 
C 14.703125 38.046875 19.09375 40 24.09375 40 
C 27.59375 40 35.09375 37.734375 35.09375 20.203125 
C 35.09375 16.984375 35.09375 11.1875 32.09375 6.59375 
C 29.59375 2.484375 25.703125 0.390625 21.40625 0.390625 
C 14.796875 0.390625 8.09375 4.984375 6.296875 12.6875 
C 6.703125 12.59375 7.5 12.390625 7.90625 12.390625 
C 9.203125 12.390625 11.703125 13.09375 11.703125 16.1875 
C 11.703125 18.890625 9.796875 20 7.90625 20 
C 5.59375 20 4.09375 18.59375 4.09375 15.796875 
C 4.09375 7.09375 11 -2 21.59375 -2 
C 31.90625 -2 41.703125 6.890625 41.703125 19.796875 
C 41.703125 32.09375 33.90625 41.59375 24.203125 41.59375 
C 19.09375 41.59375 14.796875 39.6875 11.40625 36 
z
" id="CMR17-53"/>
      <path d="M 35.203125 29.234375 
C 35.203125 7 26.09375 0.390625 18.59375 0.390625 
C 16.296875 0.390625 10.703125 0.671875 8.40625 4.390625 
C 11 4 12.90625 5.390625 12.90625 7.890625 
C 12.90625 10.59375 10.703125 11.5 9.296875 11.5 
C 8.40625 11.5 5.703125 11.09375 5.703125 7.6875 
C 5.703125 1.0625 11.59375 -2 18.796875 -2 
C 30.296875 -2 42 10.390625 42 32.65625 
C 42 60.265625 30.796875 66 23.203125 66 
C 13.296875 66 3.796875 57.25 3.796875 43.75 
C 3.796875 31.25 11.90625 22 22.09375 22 
C 30.5 22 34.203125 29.84375 35.203125 33.15625 
z
M 22.296875 23.59375 
C 19.59375 23.59375 15.796875 24.09375 12.703125 30.140625 
C 10.59375 34.078125 10.59375 38.703125 10.59375 43.640625 
C 10.59375 49.59375 10.59375 53.71875 13.40625 58.15625 
C 14.796875 60.265625 17.40625 63.6875 23.203125 63.6875 
C 35 63.6875 35 45.453125 35 41.421875 
C 35 34.265625 31.796875 23.59375 22.296875 23.59375 
z
" id="CMR17-57"/>
     </defs>
     <use transform="scale(0.996264)" xlink:href="#CMMI12-31"/>
     <use transform="translate(61.112959 36.153639)scale(0.697382)" xlink:href="#CMR17-50"/>
     <use transform="translate(121.268282 0)scale(0.996264)" xlink:href="#CMR17-61"/>
     <use transform="translate(220.657079 0)scale(0.996264)" xlink:href="#CMR17-48"/>
     <use transform="translate(266.347556 0)scale(0.996264)" xlink:href="#CMMI12-58"/>
     <use transform="translate(293.444733 0)scale(0.996264)" xlink:href="#CMR17-53"/>
     <use transform="translate(339.13521 0)scale(0.996264)" xlink:href="#CMR17-57"/>
     <use transform="translate(384.825687 0)scale(0.996264)" xlink:href="#CMR17-49"/>
    </g>
   </g>
   <g id="legend_1">
    <g id="patch_7">
     <path d="M 306.225397 190.646183 
L 367.4 190.646183 
Q 369.4 190.646183 369.4 188.646183 
L 369.4 87.041817 
Q 369.4 85.041817 367.4 85.041817 
L 306.225397 85.041817 
Q 304.225397 85.041817 304.225397 87.041817 
L 304.225397 188.646183 
Q 304.225397 190.646183 306.225397 190.646183 
z
" style="fill:#ffffff;opacity:0.8;"/>
    </g>
    <g id="text_16">
     <!-- Strain Range -->
     <g transform="translate(308.225397 96.640255)scale(0.1 -0.1)">
      <defs>
       <path d="M 43.796875 67.984375 
C 43.796875 69.796875 43.703125 69.890625 43.09375 69.890625 
C 42.5 69.890625 42.296875 69.484375 41.90625 68.59375 
L 38.90625 61.953125 
C 35.09375 67.5 29.296875 70 23 70 
C 12.796875 70 4.59375 61.84375 4.59375 51.578125 
C 4.59375 48.453125 5.296875 44.015625 8.703125 39.78125 
C 12.40625 35.15625 15.90625 34.34375 23.90625 32.234375 
C 26.90625 31.421875 31.90625 30.109375 32.90625 29.703125 
C 38.59375 27.296875 41.59375 21.25 41.59375 15.609375 
C 41.59375 8.34375 36.5 0.59375 27.796875 0.59375 
C 17.09375 0.59375 7.09375 6.640625 6.40625 20.75 
C 6.296875 22.359375 6.203125 22.453125 5.5 22.453125 
C 4.703125 22.453125 4.59375 22.359375 4.59375 20.34375 
L 4.59375 0 
C 4.59375 -1.8125 4.703125 -1.90625 5.296875 -1.90625 
C 6 -1.90625 6.203125 -1.40625 7.59375 1.703125 
C 7.703125 2 7.703125 2.203125 9.59375 6.03125 
C 14.59375 -0.609375 23 -2 27.796875 -2 
C 38.703125 -2 46.40625 7.140625 46.40625 17.828125 
C 46.40625 23.0625 44.5 27.09375 43.40625 28.90625 
C 39.203125 35.359375 34.703125 36.5625 29.90625 37.765625 
C 29.203125 38.078125 29 38.078125 23.40625 39.484375 
C 18 40.890625 15.703125 41.59375 13.203125 44.3125 
C 10.40625 47.4375 9.40625 50.671875 9.40625 53.890625 
C 9.40625 60.4375 14.59375 67.59375 23.09375 67.59375 
C 33.703125 67.59375 40.296875 60.03125 41.796875 47.4375 
C 42.09375 45.625 42.203125 45.53125 42.90625 45.53125 
C 43.796875 45.53125 43.796875 45.828125 43.796875 47.546875 
z
" id="CMR17-83"/>
       <path d="M 41.5 30.53125 
C 41.5 35.65625 40.5 44 28.703125 44 
C 20.796875 44 16.703125 37.875 15.203125 33.84375 
L 15.09375 33.84375 
L 15.09375 44 
L 3.296875 42.890625 
L 3.296875 40.28125 
C 9.203125 40.28125 10.09375 39.6875 10.09375 34.859375 
L 10.09375 6.921875 
C 10.09375 3.09375 9.703125 2.59375 3.296875 2.59375 
L 3.296875 0 
C 5.703125 0.1875 10.09375 0.1875 12.703125 0.1875 
C 15.296875 0.1875 19.796875 0.1875 22.203125 0 
L 22.203125 2.59375 
C 15.796875 2.59375 15.40625 3 15.40625 6.921875 
L 15.40625 26.21875 
C 15.40625 35.453125 21 42.390625 28 42.390625 
C 35.40625 42.390625 36.203125 35.765625 36.203125 30.9375 
L 36.203125 6.921875 
C 36.203125 3.09375 35.796875 2.59375 29.40625 2.59375 
L 29.40625 0 
C 31.796875 0.1875 36.203125 0.1875 38.796875 0.1875 
C 41.40625 0.1875 45.90625 0.1875 48.296875 0 
L 48.296875 2.59375 
C 41.90625 2.59375 41.5 3 41.5 6.921875 
z
" id="CMR17-110"/>
       <path d="M 39.203125 33.6875 
C 48.703125 35.59375 56.703125 42.015625 56.703125 50.046875 
C 56.703125 59.46875 46.09375 68 32.09375 68 
L 5.203125 68 
L 5.203125 65.390625 
C 12.09375 65.390625 13.203125 65.390625 13.203125 60.875 
L 13.203125 6.6875 
C 13.203125 2.1875 12.09375 2.1875 5.203125 2.1875 
L 5.203125 -0.40625 
C 8.09375 -0.203125 13.296875 -0.203125 16.40625 -0.203125 
C 19.5 -0.203125 24.703125 -0.203125 27.59375 -0.40625 
L 27.59375 2.1875 
C 20.703125 2.1875 19.59375 2.1875 19.59375 6.6875 
L 19.59375 33 
L 31.296875 33 
C 37 33 40.203125 30.6875 41.59375 29.390625 
C 45.59375 25.5 45.59375 22.796875 45.59375 16 
C 45.59375 9.296875 45.59375 5.890625 48.59375 2.5 
C 52.40625 -1.609375 57.5 -2 59.703125 -2 
C 67.09375 -2 68.203125 6.296875 68.203125 8 
C 68.203125 8.59375 68.203125 9.296875 67.296875 9.296875 
C 66.5 9.296875 66.40625 8.6875 66.40625 8.296875 
C 65.90625 1.796875 63 -0.40625 59.90625 -0.40625 
C 54.40625 -0.40625 53.796875 5.890625 53.203125 12 
C 52.90625 14.09375 52.703125 15.59375 52.5 17.796875 
C 51.90625 22.796875 51.09375 30.09375 39.203125 33.6875 
z
M 31 34.59375 
L 19.59375 34.59375 
L 19.59375 61.484375 
C 19.59375 64.890625 19.796875 65.390625 23.796875 65.390625 
L 31.09375 65.390625 
C 39.40625 65.390625 49.09375 62.484375 49.09375 50.046875 
C 49.09375 37.09375 38.5 34.59375 31 34.59375 
z
" id="CMR17-82"/>
       <path d="M 11.09375 18.203125 
C 13 16.6875 16.296875 15 20.296875 15 
C 28.203125 15 35 21.234375 35 29.609375 
C 35 32.234375 34.203125 36.265625 31.203125 39.390625 
C 34 42.390625 38.09375 43.390625 40.40625 43.390625 
C 40.796875 43.390625 41.40625 43.390625 41.90625 43.09375 
C 41.5 42.984375 40.59375 42.59375 40.59375 40.984375 
C 40.59375 39.6875 41.5 38.796875 42.796875 38.796875 
C 44.296875 38.796875 45.09375 39.796875 45.09375 41.09375 
C 45.09375 42.984375 43.59375 45 40.40625 45 
C 36.40625 45 32.90625 43.09375 30.09375 40.484375 
C 27.09375 43.1875 23.5 44.1875 20.296875 44.1875 
C 12.40625 44.1875 5.59375 37.984375 5.59375 29.609375 
C 5.59375 23.859375 8.90625 20.21875 9.90625 19.21875 
C 6.90625 15.6875 6.90625 11.59375 6.90625 11.09375 
C 6.90625 8.5 7.90625 4.6875 11.296875 2.59375 
C 6.09375 1.28125 2 -2.875 2 -8.078125 
C 2 -15.5625 11.5 -21 22.90625 -21 
C 33.90625 -21 43.796875 -15.765625 43.796875 -7.96875 
C 43.796875 6 29 6 21.296875 6 
C 19 6 14.90625 6 14.40625 6.09375 
C 11.296875 6.59375 9.203125 9.390625 9.203125 12.890625 
C 9.203125 13.796875 9.203125 16 11.09375 18.203125 
z
M 20.296875 16.6875 
C 11.5 16.6875 11.5 27.59375 11.5 29.609375 
C 11.5 31.625 11.5 42.484375 20.296875 42.484375 
C 29.09375 42.484375 29.09375 31.625 29.09375 29.609375 
C 29.09375 27.59375 29.09375 16.6875 20.296875 16.6875 
z
M 22.90625 -19.3125 
C 12.90625 -19.3125 6 -13.796875 6 -8.078125 
C 6 -4.859375 7.703125 -1.84375 9.90625 -0.171875 
C 12.40625 1.59375 13.40625 1.59375 20.203125 1.59375 
C 28.40625 1.59375 39.796875 1.59375 39.796875 -8.078125 
C 39.796875 -13.796875 32.90625 -19.3125 22.90625 -19.3125 
z
" id="CMR17-103"/>
      </defs>
      <use transform="scale(0.996264)" xlink:href="#CMR17-83"/>
      <use transform="translate(50.89537 0)scale(0.996264)" xlink:href="#CMR17-116"/>
      <use transform="translate(86.176138 0)scale(0.996264)" xlink:href="#CMR17-114"/>
      <use transform="translate(121.456905 0)scale(0.996264)" xlink:href="#CMR17-97"/>
      <use transform="translate(167.147382 0)scale(0.996264)" xlink:href="#CMR17-105"/>
      <use transform="translate(192.018441 0)scale(0.996264)" xlink:href="#CMR17-110"/>
      <use transform="translate(272.989777 0)scale(0.996264)" xlink:href="#CMR17-82"/>
      <use transform="translate(340.780879 0)scale(0.996264)" xlink:href="#CMR17-97"/>
      <use transform="translate(386.471356 0)scale(0.996264)" xlink:href="#CMR17-110"/>
      <use transform="translate(437.366726 0)scale(0.996264)" xlink:href="#CMR17-103"/>
      <use transform="translate(483.057203 0)scale(0.996264)" xlink:href="#CMR17-101"/>
     </g>
    </g>
    <g id="patch_8">
     <path d="M 312.296546 111.31838 
L 332.296546 111.31838 
L 332.296546 104.31838 
L 312.296546 104.31838 
z
" style="fill:#ff0029;stroke:#ff0029;stroke-linejoin:miter;"/>
    </g>
    <g id="text_17">
     <!-- 0.3\% -->
     <g transform="translate(340.296546 111.31838)scale(0.1 -0.1)">
      <defs>
       <path d="M 16.59375 4.09375 
C 16.59375 6.59375 14.59375 8.1875 12.5 8.1875 
C 10.5 8.1875 8.40625 6.59375 8.40625 4.09375 
C 8.40625 1.59375 10.40625 0 12.5 0 
C 14.5 0 16.59375 1.59375 16.59375 4.09375 
z
" id="CMR17-46"/>
       <path d="M 22.09375 34 
C 31 34 34.90625 26.140625 34.90625 17.09375 
C 34.90625 5.03125 28.5 0.390625 22.703125 0.390625 
C 17.40625 0.390625 8.796875 3.015625 6.09375 10.796875 
C 6.59375 10.59375 7.09375 10.59375 7.59375 10.59375 
C 10 10.59375 11.796875 12.1875 11.796875 14.796875 
C 11.796875 17.6875 9.59375 19 7.59375 19 
C 5.90625 19 3.296875 18.1875 3.296875 14.484375 
C 3.296875 5.234375 12.296875 -2 22.90625 -2 
C 34 -2 42.5 6.75 42.5 16.984375 
C 42.5 26.84375 34.5 34 25 35.09375 
C 32.59375 36.671875 39.90625 43.375 39.90625 52.390625 
C 39.90625 60.25 32 66 23 66 
C 13.90625 66 5.90625 60.34375 5.90625 52.296875 
C 5.90625 48.796875 8.5 48.1875 9.796875 48.1875 
C 11.90625 48.1875 13.703125 49.484375 13.703125 52.09375 
C 13.703125 54.6875 11.90625 56 9.796875 56 
C 9.40625 56 8.90625 56 8.5 55.796875 
C 11.40625 62.484375 19.296875 63.6875 22.796875 63.6875 
C 26.296875 63.6875 32.90625 61.96875 32.90625 52.296875 
C 32.90625 49.484375 32.5 44.546875 29.09375 40.21875 
C 26.09375 36.390625 22.703125 36.1875 19.40625 35.890625 
C 18.90625 35.890625 16.59375 35.6875 16.203125 35.6875 
C 15.5 35.59375 15.09375 35.5 15.09375 34.796875 
C 15.09375 34.09375 15.203125 34 17.203125 34 
z
" id="CMR17-51"/>
       <path d="M 72.5 14.5 
C 72.5 26.09375 66.796875 34.59375 60.09375 34.59375 
C 53.296875 34.59375 46.40625 26.6875 46.40625 14.5 
C 46.40625 2.296875 53.203125 -5.609375 60.09375 -5.609375 
C 66.796875 -5.609375 72.5 2.796875 72.5 14.5 
z
M 60.203125 -4 
C 57.59375 -4 51.09375 -1.609375 51.09375 14.5 
C 51.09375 30.6875 57.59375 33 60.203125 33 
C 65.703125 33 70.703125 25.09375 70.703125 14.5 
C 70.703125 3.890625 65.703125 -4 60.203125 -4 
z
M 63.796875 71.4375 
C 64.5 72.5625 64.59375 72.671875 64.59375 73.1875 
C 64.59375 74.390625 63.703125 75 62.90625 75 
C 61.90625 75 61.5 74.296875 60.796875 73.484375 
C 55 64.921875 47 64 42.90625 64 
C 32.90625 64 26.796875 69.984375 24.90625 71.84375 
C 23.59375 73.078125 21.703125 75 18.296875 75 
C 11.5 75 4.59375 66.890625 4.59375 54.625 
C 4.59375 42.46875 11.40625 34.59375 18.296875 34.59375 
C 25 34.59375 30.703125 42.96875 30.703125 54.625 
C 30.703125 61.5 28.59375 66.265625 28.296875 66.890625 
C 34.40625 62.890625 40.40625 62.390625 43 62.390625 
C 49.40625 62.390625 54 64.8125 56.5 66.578125 
L 56.59375 66.46875 
L 13.40625 -1.90625 
C 12.5 -3.3125 12.5 -3.5 12.5 -3.8125 
C 12.5 -4.90625 13.40625 -5.609375 14.296875 -5.609375 
C 15.203125 -5.609375 15.5 -5.109375 16.203125 -4 
z
M 18.40625 36.1875 
C 15.796875 36.1875 9.296875 38.578125 9.296875 54.625 
C 9.296875 71.015625 15.796875 73.390625 18.40625 73.390625 
C 23.90625 73.390625 28.90625 65.234375 28.90625 54.625 
C 28.90625 44.0625 23.90625 36.1875 18.40625 36.1875 
z
" id="CMR17-37"/>
      </defs>
      <use transform="scale(0.996264)" xlink:href="#CMR17-48"/>
      <use transform="translate(45.690477 0)scale(0.996264)" xlink:href="#CMR17-46"/>
      <use transform="translate(70.561536 0)scale(0.996264)" xlink:href="#CMR17-51"/>
      <use transform="translate(116.252013 0)scale(0.996264)" xlink:href="#CMR17-37"/>
     </g>
    </g>
    <g id="patch_9">
     <path d="M 312.296546 125.996505 
L 332.296546 125.996505 
L 332.296546 118.996505 
L 312.296546 118.996505 
z
" style="fill:#f97306;stroke:#f97306;stroke-linejoin:miter;"/>
    </g>
    <g id="text_18">
     <!-- 0.4\% -->
     <g transform="translate(340.296546 125.996505)scale(0.1 -0.1)">
      <use transform="scale(0.996264)" xlink:href="#CMR17-48"/>
      <use transform="translate(45.690477 0)scale(0.996264)" xlink:href="#CMR17-46"/>
      <use transform="translate(70.561536 0)scale(0.996264)" xlink:href="#CMR17-52"/>
      <use transform="translate(116.252013 0)scale(0.996264)" xlink:href="#CMR17-37"/>
     </g>
    </g>
    <g id="patch_10">
     <path d="M 312.296546 140.67463 
L 332.296546 140.67463 
L 332.296546 133.67463 
L 312.296546 133.67463 
z
" style="fill:#15b01a;stroke:#15b01a;stroke-linejoin:miter;"/>
    </g>
    <g id="text_19">
     <!-- 0.6\% -->
     <g transform="translate(340.296546 140.67463)scale(0.1 -0.1)">
      <use transform="scale(0.996264)" xlink:href="#CMR17-48"/>
      <use transform="translate(45.690477 0)scale(0.996264)" xlink:href="#CMR17-46"/>
      <use transform="translate(70.561536 0)scale(0.996264)" xlink:href="#CMR17-54"/>
      <use transform="translate(116.252013 0)scale(0.996264)" xlink:href="#CMR17-37"/>
     </g>
    </g>
    <g id="patch_11">
     <path d="M 312.296546 155.352755 
L 332.296546 155.352755 
L 332.296546 148.352755 
L 312.296546 148.352755 
z
" style="fill:#75bbfd;stroke:#75bbfd;stroke-linejoin:miter;"/>
    </g>
    <g id="text_20">
     <!-- 1.0\% -->
     <g transform="translate(340.296546 155.352755)scale(0.1 -0.1)">
      <use transform="scale(0.996264)" xlink:href="#CMR17-49"/>
      <use transform="translate(45.690477 0)scale(0.996264)" xlink:href="#CMR17-46"/>
      <use transform="translate(70.561536 0)scale(0.996264)" xlink:href="#CMR17-48"/>
      <use transform="translate(116.252013 0)scale(0.996264)" xlink:href="#CMR17-37"/>
     </g>
    </g>
    <g id="patch_12">
     <path d="M 312.296546 170.03088 
L 332.296546 170.03088 
L 332.296546 163.03088 
L 312.296546 163.03088 
z
" style="fill:#2a00ff;stroke:#2a00ff;stroke-linejoin:miter;"/>
    </g>
    <g id="text_21">
     <!-- 2.0\% -->
     <g transform="translate(340.296546 170.03088)scale(0.1 -0.1)">
      <use transform="scale(0.996264)" xlink:href="#CMR17-50"/>
      <use transform="translate(45.690477 0)scale(0.996264)" xlink:href="#CMR17-46"/>
      <use transform="translate(70.561536 0)scale(0.996264)" xlink:href="#CMR17-48"/>
      <use transform="translate(116.252013 0)scale(0.996264)" xlink:href="#CMR17-37"/>
     </g>
    </g>
    <g id="patch_13">
     <path d="M 312.296546 184.709005 
L 332.296546 184.709005 
L 332.296546 177.709005 
L 312.296546 177.709005 
z
" style="fill:#ff00bf;stroke:#ff00bf;stroke-linejoin:miter;"/>
    </g>
    <g id="text_22">
     <!-- 3.0\% -->
     <g transform="translate(340.296546 184.709005)scale(0.1 -0.1)">
      <use transform="scale(0.996264)" xlink:href="#CMR17-51"/>
      <use transform="translate(45.690477 0)scale(0.996264)" xlink:href="#CMR17-46"/>
      <use transform="translate(70.561536 0)scale(0.996264)" xlink:href="#CMR17-48"/>
      <use transform="translate(116.252013 0)scale(0.996264)" xlink:href="#CMR17-37"/>
     </g>
    </g>
   </g>
   <g id="legend_2">
    <g id="patch_14">
     <path d="M 303.686517 261.246482 
L 378.2 261.246482 
Q 380.2 261.246482 380.2 259.246482 
L 380.2 201.265518 
Q 380.2 199.265518 378.2 199.265518 
L 303.686517 199.265518 
Q 301.686517 199.265518 301.686517 201.265518 
L 301.686517 259.246482 
Q 301.686517 261.246482 303.686517 261.246482 
z
" style="fill:#ffffff;opacity:0.8;"/>
    </g>
    <g id="text_23">
     <!-- Strain Rate (/s) -->
     <g transform="translate(305.686517 210.863956)scale(0.1 -0.1)">
      <defs>
       <path d="M 30.59375 -24.40625 
C 30.59375 -24.3125 30.59375 -24.109375 30.296875 -23.8125 
C 25.703125 -19.109375 13.40625 -6.296875 13.40625 24.9375 
C 13.40625 56.171875 25.5 68.875 30.40625 73.890625 
C 30.40625 73.984375 30.59375 74.1875 30.59375 74.484375 
C 30.59375 74.796875 30.296875 75 29.90625 75 
C 28.796875 75 20.296875 67.578125 15.40625 56.5625 
C 10.40625 45.453125 9 34.65625 9 25.046875 
C 9 17.828125 9.703125 5.625 15.703125 -7.296875 
C 20.5 -17.703125 28.703125 -25 29.90625 -25 
C 30.40625 -25 30.59375 -24.8125 30.59375 -24.40625 
z
" id="CMR17-40"/>
       <path d="M 40.703125 71.484375 
C 41.203125 72.78125 41.203125 72.984375 41.203125 73.1875 
C 41.203125 74.390625 40.296875 75 39.5 75 
C 38.296875 75 37.90625 74.1875 37.5 72.984375 
L 5.09375 -21.5 
C 4.59375 -22.8125 4.59375 -23 4.59375 -23.203125 
C 4.59375 -24.40625 5.5 -25 6.296875 -25 
C 7.5 -25 7.90625 -24.203125 8.296875 -23 
z
" id="CMR17-47"/>
       <path d="M 26.296875 24.9375 
C 26.296875 32.140625 25.59375 44.359375 19.59375 57.265625 
C 14.796875 67.6875 6.59375 75 5.40625 75 
C 5.09375 75 4.703125 74.890625 4.703125 74.390625 
C 4.703125 74.1875 4.796875 74.09375 4.90625 73.890625 
C 9.703125 68.875 21.90625 56.171875 21.90625 25.046875 
C 21.90625 -6.1875 9.796875 -18.90625 4.90625 -23.90625 
C 4.796875 -24.109375 4.703125 -24.203125 4.703125 -24.40625 
C 4.703125 -24.90625 5.09375 -25 5.40625 -25 
C 6.5 -25 15 -17.609375 19.90625 -6.59375 
C 24.90625 4.515625 26.296875 15.328125 26.296875 24.9375 
z
" id="CMR17-41"/>
      </defs>
      <use transform="scale(0.996264)" xlink:href="#CMR17-83"/>
      <use transform="translate(50.89537 0)scale(0.996264)" xlink:href="#CMR17-116"/>
      <use transform="translate(86.176138 0)scale(0.996264)" xlink:href="#CMR17-114"/>
      <use transform="translate(121.456905 0)scale(0.996264)" xlink:href="#CMR17-97"/>
      <use transform="translate(167.147382 0)scale(0.996264)" xlink:href="#CMR17-105"/>
      <use transform="translate(192.018441 0)scale(0.996264)" xlink:href="#CMR17-110"/>
      <use transform="translate(272.989777 0)scale(0.996264)" xlink:href="#CMR17-82"/>
      <use transform="translate(340.780879 0)scale(0.996264)" xlink:href="#CMR17-97"/>
      <use transform="translate(386.471356 0)scale(0.996264)" xlink:href="#CMR17-116"/>
      <use transform="translate(421.752124 0)scale(0.996264)" xlink:href="#CMR17-101"/>
      <use transform="translate(492.313751 0)scale(0.996264)" xlink:href="#CMR17-40"/>
      <use transform="translate(527.594519 0)scale(0.996264)" xlink:href="#CMR17-47"/>
      <use transform="translate(573.284996 0)scale(0.996264)" xlink:href="#CMR17-115"/>
      <use transform="translate(609.086333 0)scale(0.996264)" xlink:href="#CMR17-41"/>
     </g>
    </g>
    <g id="line2d_42"/>
    <g id="line2d_43">
     <defs>
      <path d="M 0 3.5 
C 0.928211 3.5 1.81853 3.131218 2.474874 2.474874 
C 3.131218 1.81853 3.5 0.928211 3.5 0 
C 3.5 -0.928211 3.131218 -1.81853 2.474874 -2.474874 
C 1.81853 -3.131218 0.928211 -3.5 0 -3.5 
C -0.928211 -3.5 -1.81853 -3.131218 -2.474874 -2.474874 
C -3.131218 -1.81853 -3.5 -0.928211 -3.5 0 
C -3.5 0.928211 -3.131218 1.81853 -2.474874 2.474874 
C -1.81853 3.131218 -0.928211 3.5 0 3.5 
z
" id="m2bcb6a4d0a" style="stroke:#000000;stroke-width:1.5;"/>
     </defs>
     <g>
      <use style="fill-opacity:0;stroke:#000000;stroke-width:1.5;" x="320.615549" xlink:href="#m2bcb6a4d0a" y="222.453053"/>
     </g>
    </g>
    <g id="text_24">
     <!-- 0.00100 -->
     <g transform="translate(338.615549 225.953053)scale(0.1 -0.1)">
      <use transform="scale(0.996264)" xlink:href="#CMR17-48"/>
      <use transform="translate(45.690477 0)scale(0.996264)" xlink:href="#CMR17-46"/>
      <use transform="translate(70.561536 0)scale(0.996264)" xlink:href="#CMR17-48"/>
      <use transform="translate(116.252013 0)scale(0.996264)" xlink:href="#CMR17-48"/>
      <use transform="translate(161.94249 0)scale(0.996264)" xlink:href="#CMR17-49"/>
      <use transform="translate(207.632967 0)scale(0.996264)" xlink:href="#CMR17-48"/>
      <use transform="translate(253.323444 0)scale(0.996264)" xlink:href="#CMR17-48"/>
     </g>
    </g>
    <g id="line2d_44"/>
    <g id="line2d_45">
     <defs>
      <path d="M 0 -3.5 
L -3.5 3.5 
L 3.5 3.5 
z
" id="m9224b94fc3" style="stroke:#000000;stroke-linejoin:miter;stroke-width:1.5;"/>
     </defs>
     <g>
      <use style="fill-opacity:0;stroke:#000000;stroke-linejoin:miter;stroke-width:1.5;" x="320.615549" xlink:href="#m9224b94fc3" y="237.131178"/>
     </g>
    </g>
    <g id="text_25">
     <!-- 0.00010 -->
     <g transform="translate(338.615549 240.631178)scale(0.1 -0.1)">
      <use transform="scale(0.996264)" xlink:href="#CMR17-48"/>
      <use transform="translate(45.690477 0)scale(0.996264)" xlink:href="#CMR17-46"/>
      <use transform="translate(70.561536 0)scale(0.996264)" xlink:href="#CMR17-48"/>
      <use transform="translate(116.252013 0)scale(0.996264)" xlink:href="#CMR17-48"/>
      <use transform="translate(161.94249 0)scale(0.996264)" xlink:href="#CMR17-48"/>
      <use transform="translate(207.632967 0)scale(0.996264)" xlink:href="#CMR17-49"/>
      <use transform="translate(253.323444 0)scale(0.996264)" xlink:href="#CMR17-48"/>
     </g>
    </g>
    <g id="line2d_46"/>
    <g id="line2d_47">
     <defs>
      <path d="M -3.5 3.5 
L 3.5 3.5 
L 3.5 -3.5 
L -3.5 -3.5 
z
" id="mf951de0621" style="stroke:#000000;stroke-linejoin:miter;stroke-width:1.5;"/>
     </defs>
     <g>
      <use style="fill-opacity:0;stroke:#000000;stroke-linejoin:miter;stroke-width:1.5;" x="320.615549" xlink:href="#mf951de0621" y="251.809303"/>
     </g>
    </g>
    <g id="text_26">
     <!-- 0.00001 -->
     <g transform="translate(338.615549 255.309303)scale(0.1 -0.1)">
      <use transform="scale(0.996264)" xlink:href="#CMR17-48"/>
      <use transform="translate(45.690477 0)scale(0.996264)" xlink:href="#CMR17-46"/>
      <use transform="translate(70.561536 0)scale(0.996264)" xlink:href="#CMR17-48"/>
      <use transform="translate(116.252013 0)scale(0.996264)" xlink:href="#CMR17-48"/>
      <use transform="translate(161.94249 0)scale(0.996264)" xlink:href="#CMR17-48"/>
      <use transform="translate(207.632967 0)scale(0.996264)" xlink:href="#CMR17-48"/>
      <use transform="translate(253.323444 0)scale(0.996264)" xlink:href="#CMR17-49"/>
     </g>
    </g>
   </g>
   <g id="legend_3">
    <g id="patch_15">
     <path d="M 307.443075 79.749933 
L 367.4 79.749933 
Q 369.4 79.749933 369.4 77.749933 
L 369.4 34.858067 
Q 369.4 32.858067 367.4 32.858067 
L 307.443075 32.858067 
Q 305.443075 32.858067 305.443075 34.858067 
L 305.443075 77.749933 
Q 305.443075 79.749933 307.443075 79.749933 
z
" style="fill:#ffffff;opacity:0.8;"/>
    </g>
    <g id="text_27">
     <!-- Temperature -->
     <g transform="translate(309.443075 44.456505)scale(0.1 -0.1)">
      <defs>
       <path d="M 62.203125 67.6875 
L 4.5 67.6875 
L 2.796875 45.6875 
L 4.59375 45.6875 
C 5.90625 62.203125 7.296875 65.09375 22.703125 65.09375 
C 24.5 65.09375 27.40625 65.09375 28.203125 64.984375 
C 30.09375 64.6875 30.09375 63.5 30.09375 61.203125 
L 30.09375 7.265625 
C 30.09375 3.6875 29.796875 2.59375 21.5 2.59375 
L 18.703125 2.59375 
L 18.703125 0 
C 23.5 0.09375 28.5 0.1875 33.40625 0.1875 
C 38.296875 0.1875 43.296875 0.09375 48.09375 0 
L 48.09375 2.59375 
L 45.296875 2.59375 
C 37 2.59375 36.703125 3.6875 36.703125 7.265625 
L 36.703125 61.203125 
C 36.703125 63.390625 36.703125 64.59375 38.5 64.984375 
C 39.296875 65.09375 42.203125 65.09375 44 65.09375 
C 59.296875 65.09375 60.796875 62.203125 62.09375 45.6875 
L 63.90625 45.6875 
z
" id="CMR17-84"/>
       <path d="M 67.59375 30.53125 
C 67.59375 35.5625 66.703125 44 54.796875 44 
C 48 44 43.296875 39.375 41.5 33.953125 
L 41.40625 33.953125 
C 40.203125 42.1875 34.296875 44 28.703125 44 
C 20.796875 44 16.703125 37.875 15.203125 33.84375 
L 15.09375 33.84375 
L 15.09375 44 
L 3.296875 42.890625 
L 3.296875 40.28125 
C 9.203125 40.28125 10.09375 39.6875 10.09375 34.859375 
L 10.09375 6.921875 
C 10.09375 3.09375 9.703125 2.59375 3.296875 2.59375 
L 3.296875 0 
C 5.703125 0.1875 10.09375 0.1875 12.703125 0.1875 
C 15.296875 0.1875 19.796875 0.1875 22.203125 0 
L 22.203125 2.59375 
C 15.796875 2.59375 15.40625 3 15.40625 6.921875 
L 15.40625 26.21875 
C 15.40625 35.453125 21 42.390625 28 42.390625 
C 35.40625 42.390625 36.203125 35.765625 36.203125 30.9375 
L 36.203125 6.921875 
C 36.203125 3.09375 35.796875 2.59375 29.40625 2.59375 
L 29.40625 0 
C 31.796875 0.1875 36.203125 0.1875 38.796875 0.1875 
C 41.40625 0.1875 45.90625 0.1875 48.296875 0 
L 48.296875 2.59375 
C 41.90625 2.59375 41.5 3 41.5 6.921875 
L 41.5 26.21875 
C 41.5 35.453125 47.09375 42.390625 54.09375 42.390625 
C 61.5 42.390625 62.296875 35.765625 62.296875 30.9375 
L 62.296875 6.921875 
C 62.296875 3.09375 61.90625 2.59375 55.5 2.59375 
L 55.5 0 
C 57.90625 0.1875 62.296875 0.1875 64.90625 0.1875 
C 67.5 0.1875 72 0.1875 74.40625 0 
L 74.40625 2.59375 
C 68 2.59375 67.59375 3 67.59375 6.921875 
z
" id="CMR17-109"/>
       <path d="M 22 -17.40625 
C 15.59375 -17.40625 15.203125 -17 15.203125 -13.03125 
L 15.203125 5.9375 
C 18.09375 1.703125 22.296875 -1 27.59375 -1 
C 37.59375 -1 47.703125 7.859375 47.703125 21.59375 
C 47.703125 34.3125 39 44 28.703125 44 
C 22.703125 44 17.796875 40.671875 15 36.640625 
L 15 44 
L 3.09375 42.890625 
L 3.09375 40.265625 
C 9 40.265625 9.90625 39.671875 9.90625 34.8125 
L 9.90625 -13.03125 
C 9.90625 -16.890625 9.5 -17.40625 3.09375 -17.40625 
L 3.09375 -20 
C 5.5 -19.8125 9.90625 -19.8125 12.5 -19.8125 
C 15.09375 -19.8125 19.59375 -19.8125 22 -20 
z
M 15.203125 31.484375 
C 15.203125 32.90625 15.203125 35.015625 19.09375 38.765625 
C 19.59375 39.15625 23 42.1875 28 42.1875 
C 35.296875 42.1875 41.296875 33 41.296875 21.5 
C 41.296875 9.984375 34.90625 0.59375 27 0.59375 
C 23.40625 0.59375 19.5 2.3125 16.5 7.046875 
C 15.203125 9.28125 15.203125 9.875 15.203125 11.5 
z
" id="CMR17-112"/>
      </defs>
      <use transform="scale(0.996264)" xlink:href="#CMR17-84"/>
      <use transform="translate(58.702625 0)scale(0.996264)" xlink:href="#CMR17-101"/>
      <use transform="translate(99.188286 0)scale(0.996264)" xlink:href="#CMR17-109"/>
      <use transform="translate(176.107875 0)scale(0.996264)" xlink:href="#CMR17-112"/>
      <use transform="translate(229.605684 0)scale(0.996264)" xlink:href="#CMR17-101"/>
      <use transform="translate(270.091344 0)scale(0.996264)" xlink:href="#CMR17-114"/>
      <use transform="translate(305.372112 0)scale(0.996264)" xlink:href="#CMR17-97"/>
      <use transform="translate(351.062589 0)scale(0.996264)" xlink:href="#CMR17-116"/>
      <use transform="translate(386.343357 0)scale(0.996264)" xlink:href="#CMR17-117"/>
      <use transform="translate(437.238727 0)scale(0.996264)" xlink:href="#CMR17-114"/>
      <use transform="translate(472.519495 0)scale(0.996264)" xlink:href="#CMR17-101"/>
     </g>
    </g>
    <g id="line2d_48"/>
    <g id="line2d_49">
     <defs>
      <path d="M 0 -3.5 
L -3.031089 -1.75 
L -3.031089 1.75 
L -0 3.5 
L 3.031089 1.75 
L 3.031089 -1.75 
z
" id="mfc2629a6b6" style="stroke:#000000;stroke-linejoin:miter;stroke-width:1.5;"/>
     </defs>
     <g>
      <use style="fill-opacity:0;stroke:#000000;stroke-linejoin:miter;stroke-width:1.5;" x="319.861631" xlink:href="#mfc2629a6b6" y="55.63463"/>
     </g>
    </g>
    <g id="text_28">
     <!-- \SI{850}{\celsius} -->
     <g transform="translate(337.861631 59.13463)scale(0.1 -0.1)">
      <defs>
       <path d="M 13.90625 68 
C 8.5 67.296875 5.09375 62.765625 5.09375 57.984375 
C 5.09375 52.921875 9 48 15 48 
L 15.90625 48 
C 21.203125 48.6875 24.796875 53.21875 24.796875 57.984375 
C 24.796875 63.171875 20.5 68 14.796875 68 
z
M 8.203125 57.390625 
L 8.203125 57.984375 
C 8.203125 61.546875 11.296875 64.6875 14.796875 64.796875 
C 18.40625 64.796875 20.90625 61.953125 21.59375 58.59375 
L 21.59375 57.984375 
C 21.59375 54.4375 18.5 51.296875 15 51.1875 
C 11.40625 51.1875 8.90625 54.03125 8.203125 57.390625 
z
" id="Computer_Modern_Roman-176"/>
       <path d="M 62.09375 67.984375 
C 62.09375 69.796875 62 69.890625 61.40625 69.890625 
C 61 69.890625 60.90625 69.796875 60.203125 68.59375 
L 55.796875 60.140625 
C 50.90625 66.390625 44.90625 70 37.203125 70 
C 20.09375 70 4.59375 54.796875 4.59375 34.046875 
C 4.59375 13.078125 20.09375 -2 37.296875 -2 
C 52.59375 -2 62.09375 11.578125 62.09375 23.15625 
C 62.09375 24.171875 62.09375 24.578125 61.203125 24.578125 
C 60.40625 24.578125 60.40625 24.265625 60.296875 23.359375 
C 59.5 9.25 49.5 0.59375 38.703125 0.59375 
C 28.5 0.59375 12.203125 7.84375 12.203125 34.046875 
C 12.203125 60.34375 28.796875 67.390625 38.5 67.390625 
C 49.796875 67.390625 58 57.515625 59.90625 43.515625 
C 60.09375 42.296875 60.09375 42.109375 61 42.109375 
C 62.09375 42.109375 62.09375 42.296875 62.09375 44.125 
z
" id="CMR17-67"/>
      </defs>
      <use transform="scale(0.996264)" xlink:href="#CMR17-56"/>
      <use transform="translate(45.690477 0)scale(0.996264)" xlink:href="#CMR17-53"/>
      <use transform="translate(91.380954 0)scale(0.996264)" xlink:href="#CMR17-48"/>
      <use transform="translate(152.302067 0)scale(0.356961)" xlink:href="#Computer_Modern_Roman-176"/>
      <use transform="translate(162.942965 0)scale(0.996264)" xlink:href="#CMR17-67"/>
     </g>
    </g>
    <g id="line2d_50"/>
    <g id="line2d_51">
     <defs>
      <path d="M 0 -3.5 
L -3.031089 -1.75 
L -3.031089 1.75 
L -0 3.5 
L 3.031089 1.75 
L 3.031089 -1.75 
z
" id="mb482c34703" style="stroke:#000000;stroke-linejoin:miter;stroke-width:1.5;"/>
     </defs>
     <g>
      <use style="stroke:#000000;stroke-linejoin:miter;stroke-width:1.5;" x="319.861631" xlink:href="#mb482c34703" y="70.312755"/>
     </g>
    </g>
    <g id="text_29">
     <!-- \SI{950}{\celsius} -->
     <g transform="translate(337.861631 73.812755)scale(0.1 -0.1)">
      <use transform="scale(0.996264)" xlink:href="#CMR17-57"/>
      <use transform="translate(45.690477 0)scale(0.996264)" xlink:href="#CMR17-53"/>
      <use transform="translate(91.380954 0)scale(0.996264)" xlink:href="#CMR17-48"/>
      <use transform="translate(152.302067 0)scale(0.356961)" xlink:href="#Computer_Modern_Roman-176"/>
      <use transform="translate(162.942965 0)scale(0.996264)" xlink:href="#CMR17-67"/>
     </g>
    </g>
   </g>
  </g>
 </g>
 <defs>
  <clipPath id="p79a48db329">
   <rect height="217.44" width="216" x="72" y="34.56"/>
  </clipPath>
 </defs>
</svg>
